/* XPM */
static char *result[] = {
/* columns rows colors chars-per-pixel */
"40 40 230 2 ",
"   c black",
".  c gray2",
"X  c #090503",
"o  c #0C0904",
"O  c #090909",
"+  c #100C05",
"@  c #100F0D",
"#  c #111111",
"$  c #171410",
"%  c gray9",
"&  c #191919",
"*  c gray10",
"=  c #1B1B1B",
"-  c #1E1E1E",
";  c #20140B",
":  c #241F14",
">  c #2D1F14",
",  c #2E2110",
"<  c #2F2510",
"1  c #2A251A",
"2  c #3C2715",
"3  c #362C1C",
"4  c #3A2A1D",
"5  c #392E1D",
"6  c #3D311B",
"7  c #252525",
"8  c #2A2521",
"9  c gray16",
"0  c #2A2A2A",
"q  c #2C2C2C",
"w  c #2D2D2D",
"e  c #383123",
"r  c #3E3321",
"t  c #3F382A",
"y  c #3F3A2F",
"u  c #313131",
"i  c #333130",
"p  c gray20",
"a  c #343434",
"s  c #353535",
"d  c gray21",
"f  c #373737",
"g  c #3D3A36",
"h  c #3C3A37",
"j  c gray22",
"k  c #3A3A3A",
"l  c #3C3C3C",
"z  c #3E3E3E",
"x  c #3F3F3F",
"c  c #433316",
"v  c #433317",
"b  c #423319",
"n  c #453218",
"m  c #453219",
"M  c #453418",
"N  c #40331E",
"B  c #483519",
"V  c #493519",
"C  c #48341B",
"Z  c #4B361A",
"A  c #4D351A",
"S  c #4C361A",
"D  c #4D371A",
"F  c #4F381A",
"G  c #4E391F",
"H  c #50381B",
"J  c #50381C",
"K  c #543A1D",
"L  c #573B1E",
"P  c #583C1E",
"I  c #5A3D1E",
"U  c #423621",
"Y  c #413527",
"T  c #4C3922",
"R  c #42382A",
"E  c #453B2D",
"W  c #453B2F",
"Q  c #483C2E",
"!  c #5C3B21",
"~  c #5C3E20",
"^  c #5D3E20",
"/  c #5F3F21",
"(  c #5F3C22",
")  c #493C30",
"_  c #493E30",
"`  c #4B3E35",
"'  c #603F21",
"]  c #613D23",
"[  c #4D4133",
"{  c #42403C",
"}  c #504233",
"|  c #544434",
" . c #544535",
".. c #5B4B3B",
"X. c #5E4939",
"o. c #5C4B3C",
"O. c #5A4C3D",
"+. c #5E4D3D",
"@. c #624121",
"#. c #644122",
"$. c #644223",
"%. c #664223",
"&. c #674425",
"*. c #684324",
"=. c #694525",
"-. c #6A4425",
";. c #6E4525",
":. c #6F4626",
">. c #6F4726",
",. c #704626",
"<. c #714928",
"1. c #724928",
"2. c #774B2A",
"3. c #774C2A",
"4. c #724C2F",
"5. c #794C2B",
"6. c #794E2B",
"7. c #7B4E2B",
"8. c #794D2C",
"9. c #7A4E2C",
"0. c #7B4E2C",
"q. c #7B4F2C",
"w. c #7C4E2C",
"e. c #7D502D",
"r. c #7E502D",
"t. c #644F3F",
"y. c #7F5536",
"u. c #414141",
"i. c gray26",
"p. c #434343",
"a. c #444444",
"s. c gray27",
"d. c #464646",
"f. c gray28",
"g. c #484848",
"h. c #494949",
"j. c gray29",
"k. c #4B4B4B",
"l. c gray30",
"z. c #4E4E4E",
"x. c gray31",
"c. c #505050",
"v. c #515151",
"b. c #535353",
"n. c gray33",
"m. c #555555",
"M. c #565656",
"N. c gray34",
"B. c #5A5A5A",
"V. c gray36",
"C. c #5D5D5D",
"Z. c #5F5F5F",
"A. c #625141",
"S. c #665343",
"D. c #665647",
"F. c #685342",
"G. c #6D5441",
"H. c #6D5746",
"J. c #6D5848",
"K. c #735A49",
"L. c #735E4E",
"P. c #765F4D",
"I. c #785D4C",
"U. c #785E4C",
"Y. c #7B5F4D",
"T. c #625B55",
"R. c #7A614F",
"E. c #7F6554",
"W. c #7F6957",
"Q. c #73655D",
"!. c #79675A",
"~. c #606060",
"^. c #626262",
"/. c gray39",
"(. c #646464",
"). c #656565",
"_. c gray40",
"`. c #686868",
"'. c #6A6A6A",
"]. c gray42",
"[. c #6C6C6C",
"{. c #6D6D6D",
"}. c gray43",
"|. c #766F6A",
" X c gray44",
".X c #717171",
"XX c gray45",
"oX c gray46",
"OX c #777777",
"+X c #797979",
"@X c #80502D",
"#X c #82522F",
"$X c #83522F",
"%X c #845230",
"&X c #855330",
"*X c #815433",
"=X c #865431",
"-X c #875431",
";X c #875531",
":X c #895532",
">X c #895732",
",X c #8A5633",
"<X c #8C5734",
"1X c #8A5833",
"2X c #8B5833",
"3X c #8D5834",
"4X c #8E5934",
"5X c #8F5935",
"6X c #8A5B3D",
"7X c #905A35",
"8X c #905936",
"9X c #915B36",
"0X c #915A37",
"qX c #925B37",
"wX c #925C37",
"eX c #935C37",
"rX c #945C37",
"tX c #935B38",
"yX c #975F39",
"uX c #9D623B",
"iX c #9E643C",
"pX c #9F643C",
"aX c #9F653D",
"sX c #A1663D",
"dX c #A4693F",
"fX c #836653",
"gX c #826956",
"hX c #8F6A50",
"jX c #8A6C58",
"kX c #896E5B",
/* pixels */
"                                                                                ",
"                                                                                ",
"                                                                                ",
"                                                                                ",
"                                                                                ",
"                                                                                ",
"                                                                                ",
"                                                                                ",
"                                                                                ",
"                                                                                ",
"                                                                                ",
"                                                                                ",
"                                                                                ",
"                                                                                ",
"                                                                                ",
"                                                                                ",
"                                                                                ",
"                                                                                ",
"                                                                                ",
"                            f j.j.j.j.j.v.v.v.n.V.V.%                           ",
"                        = [.p.p p s j j j z a.k.x.b./.d.                        ",
"                      X ` }.{.(.C.N.N.m.c.z.l.k.k.i.u.h o                       ",
"                      ; &XP.E.L.J.S.A.+... .[ E t e e N <                       ",
"                      ] #XrXiXyXpXeX#XtX,X9.@.;.%.L I c S +                     ",
"                      ( #XpX7XaXuX4X#XtX,Xw.' ,.;.L ^ F T @                     ",
"                    7 V. X|.kXjXfXR.Y.I.K.F.o.t.X.} { j d :                     ",
"                    8 T.).}.OX_.).~.B.B.x.l.l.k.i.i.k u i 6                     ",
"                    2 4.G.U.D.K.H.O.+.+.| | W _ t t R Y r v                     ",
"                    2 #X1XdXwXsXuX4X0X:X$X3.' ,.,.@.H J v v                     ",
"                    2 #X1XdXwXsXuX2X0X:X$X3.' ,.,.@.H J v v                     ",
"                    2 #X1XdXwXsXuX1X0X:X$X3.' ,.,.@.H J v v                     ",
"                    4 *X1XdX9XsXuX>X0X:X$X3.' ,.,.@.H J b U                     ",
"                    a !.gXhX5XsXuX-X0X:X$X3.' ,.,.@.G Q y k                     ",
"                    0 /.].+X+X'.'.`.Z.Z.V.M.n.b.h.f.a.d u $                     ",
"                    O ) M.C./.^.^.C.N.N.h.h.h.f.x x g 3 5 C                     ",
"                      ! 0.%X@X=X8./ 1.=.&.$.A ' ~ V m B S ,                     ",
"                      > y.3X;XqX8X2.7.r.e.<.P ,.*.D Z B n o                     ",
"                      & Q.W.6X#X<X5.>.q.6.-.K :.#.B M v 1                       ",
"                        9 ].XXoX.X`.).Z.n.v.g.s.l d w -                         ",
"                          * p.v.x.j.s.s.l f d q 0 9 # .                         "
};
