/* XPM */
static char *result[] = {
/* columns rows colors chars-per-pixel */
"40 40 256 2 ",
"   c #00000C",
".  c #06060C",
"X  c gray3",
"o  c #000010",
"O  c #000011",
"+  c #000012",
"@  c #000013",
"#  c #000015",
"$  c #000016",
"%  c #000017",
"&  c #000018",
"*  c #000019",
"=  c #00001A",
"-  c #00001B",
";  c #04041A",
":  c #00001C",
">  c #00001D",
",  c #00001E",
"<  c #00001F",
"1  c #0C0C19",
"2  c #101010",
"3  c gray8",
"4  c #181818",
"5  c gray10",
"6  c gray11",
"7  c #1E1E1E",
"8  c #000020",
"9  c #000021",
"0  c #000022",
"q  c #000023",
"w  c #000024",
"e  c #000025",
"r  c #000026",
"t  c #000027",
"y  c #060625",
"u  c #060626",
"i  c #000029",
"p  c #00002A",
"a  c #00002B",
"s  c #00002C",
"d  c #00002E",
"f  c #00002F",
"g  c #101021",
"h  c #1C1C25",
"j  c #1C1C29",
"k  c #18182F",
"l  c #000030",
"z  c #000031",
"x  c #000032",
"c  c #000033",
"v  c #000035",
"b  c #000036",
"n  c #000037",
"m  c #040436",
"M  c #000038",
"N  c #00003A",
"B  c #00003E",
"V  c #101032",
"C  c #101035",
"Z  c #101036",
"A  c #181837",
"S  c #1A1A37",
"D  c #121239",
"F  c #12123C",
"G  c #10103F",
"H  c #1A1A39",
"J  c #18183B",
"K  c #1D1D39",
"L  c #1D1D3C",
"P  c #2C2C2C",
"I  c #35353D",
"U  c #000040",
"Y  c #000041",
"T  c #000042",
"R  c #000043",
"E  c #000044",
"W  c #000045",
"Q  c #000046",
"!  c #000047",
"~  c #040446",
"^  c #000048",
"/  c #000049",
"(  c #00004B",
")  c #00004C",
"_  c #00004E",
"`  c #00004F",
"'  c #121241",
"]  c #101043",
"[  c #181840",
"{  c #181841",
"}  c #1D1D41",
"|  c #181844",
" . c #181846",
".. c #181847",
"X. c #14144F",
"o. c #000050",
"O. c #000051",
"+. c #000052",
"@. c #000053",
"#. c #040453",
"$. c #000054",
"%. c #000055",
"&. c #020255",
"*. c #000057",
"=. c #040456",
"-. c #000058",
";. c #000059",
":. c #00005A",
">. c #00005B",
",. c #00005C",
"<. c #00005D",
"1. c #00005E",
"2. c #00005F",
"3. c #141452",
"4. c #141456",
"5. c #14145B",
"6. c #16165B",
"7. c #212145",
"8. c #3F3F5E",
"9. c #000060",
"0. c #000061",
"q. c #000062",
"w. c #000063",
"e. c #000064",
"r. c #000065",
"t. c #000066",
"y. c #000067",
"u. c #000068",
"i. c #000069",
"p. c #00006A",
"a. c #00006B",
"s. c #00006C",
"d. c #00006D",
"f. c #00006E",
"g. c #00006F",
"h. c #101062",
"j. c #131362",
"k. c #101065",
"l. c #131365",
"z. c #161667",
"x. c #101068",
"c. c #10106A",
"v. c #10106B",
"b. c #10106D",
"n. c #10106E",
"m. c #000070",
"M. c #000071",
"N. c #000072",
"B. c #000073",
"V. c #000074",
"C. c #000075",
"Z. c #000076",
"A. c #000077",
"S. c #0B0B73",
"D. c #000078",
"F. c #000079",
"G. c #00007A",
"H. c #00007B",
"J. c #00007C",
"K. c #00007D",
"L. c #00007E",
"P. c #00007F",
"I. c #08087C",
"U. c #131371",
"Y. c #3F3F60",
"T. c #3F3F61",
"R. c #3F3F64",
"E. c #3F3F6B",
"W. c #464657",
"Q. c #4A4A51",
"!. c #46465B",
"~. c #46465E",
"^. c navy",
"/. c #000081",
"(. c #000082",
"). c #000083",
"_. c #060681",
"`. c #000084",
"'. c #000085",
"]. c #000086",
"[. c #000087",
"{. c #080881",
"}. c #080883",
"|. c #000088",
" X c #000089",
".X c #00008A",
"XX c #00008B",
"oX c #00008C",
"OX c #00008D",
"+X c #00008E",
"@X c #00008F",
"#X c #080888",
"$X c #08088C",
"%X c #000090",
"&X c #000091",
"*X c #000092",
"=X c #000093",
"-X c #000094",
";X c #000095",
":X c #000096",
">X c #000097",
",X c #080892",
"<X c #080893",
"1X c #000098",
"2X c #000099",
"3X c #00009A",
"4X c #00009B",
"5X c #00009C",
"6X c #00009D",
"7X c #00009E",
"8X c #00009F",
"9X c #0000A0",
"0X c #0000A1",
"qX c #0000A2",
"wX c #0000A3",
"eX c #0000A4",
"rX c #0000A5",
"tX c #0000A6",
"yX c #0000A7",
"uX c #0000A8",
"iX c #0000A9",
"pX c #0000AA",
"aX c #0000AB",
"sX c #0000AC",
"dX c #0000AD",
"fX c #0000AE",
"gX c #0000AF",
"hX c #0000B0",
"jX c #0000B1",
"kX c #0000B2",
"lX c #0000B3",
"zX c #0000B4",
"xX c #0000B5",
"cX c #0000B6",
"vX c #0000B7",
"bX c #0000B8",
"nX c #0000B9",
"mX c #0000BB",
"MX c #0000BC",
"NX c #0000BE",
"BX c #0000BF",
"VX c #0000C0",
"CX c #0000C1",
"ZX c #0000C2",
"AX c #0000C4",
"SX c #0000C5",
"DX c #0000C7",
"FX c #0000C8",
"GX c #0000CB",
"HX c #0000CC",
"JX c MediumBlue",
"KX c #0000CE",
"LX c #0000D1",
"PX c #0000D4",
"IX c #0808D6",
"UX c #0000D9",
/* pixels */
"6.@X%X%X%X%X%X%X%X%X%X%X%XS.P qXqXqXqXqXqXqXqXqXqXqXqXqXqXqXqXqXz.7.;X:X:X:X;X} ",
"=.9X;X5X5X>X-X6X[.4X@X XP.&.5 cXkX9XuXwX^.oX;XyX[.:XqX:X-XaXtX*X~ | xXeX0XsX2Xu ",
"+.;X].hX7XJ.OX>XH./.m.B.y.( 4 1.$.) ! ! x f v +.N M v M f Y B v : | sXdXwXeX[.- ",
"+.%X;XCX[.'.OX9X1X|.g.s.<.n 4 yXpXiXwX0XtXwXeXwXiXyX_.6 { { [ J j | kXyX1XP.q.% ",
"+.9X9XgXtX@X`.eX;X'.g.9.$.n 4 sXCXJXpXgX0X3XeXiXiXwXF.2 qX4X-X/.m | 7X7X'.|.D.* ",
"+.*X X8X].OX@Xp.Z.H.B.F.e.l 4 pXbXlX4XiXpXwX7X).L.OX,.2 wX3X).s.f  .wX-X0X3Xe.o ",
"_ XX%XoXL.@XoXd.9.i.0.s.e.l 4 gXhXsX7XsXxXiXXXm.).m.W 2 qX:X.Xg.s ..1X3X X%X;.o ",
") OX.XG.oXm.d.m.>.d.+.R +.l 4 dXiXeXkXeXhXdX&XJ..X1.Y 2 5X[.).y.f ..eXB.d.m.d.o ",
") @XK.C.y.1.9.e.q.! +.o.*.l 4 sXHXuXXX2X].L.(.%XL.w.M 2 qX%XK.u.z J i.;.! T B   ",
"@ q 8 = = : + o o o o o o   4 hXjX0X|.6X8XOXOXs.A.1.b 2 qX8X:Xi.z 7 4 4 4 4 4 4 ",
"lXpXeXgXtX6XqX3X4Xw hXpXhX*Xa yXwXwX7XwXeX.X/.C.O.%.c 2 3X@X.XN.f { iX=X@.MXkXmX",
"lX9X5XtX*X.X*X/.@Xq xXlXpX`.0 iXwXdX4X X XZ.N.w.^ -.c 2 :Xd.0.,.q { tX].) cXhXkX",
"9X7XlX7X^..X.XG.J.< cXyX>XXX* yXeX7X-X'.y.y.0.1.1.` c 2 &Xt.>.) 8 { K.e.W MXxXhX",
"qX@X8XvX+X^.d.d.B.> eX6XF.C.& X X X X X X X X X X X X 3 X X ; s s s s ; ' nXwX3X",
"yX@XoX;X+X.XZ.N.s.$ kX2XC.0.& 4.$X$X$X$X$X$X$X$X$X$X$X$XI.H x.nXnXyXyX#.' xX3X1X",
"dX=X@XeX|..X).m.:.& 9XL.J.1.& x.xXpXSXKXBXNXdXgX9XhXhX9X(.$ x.BXZXBX;XY G nXyX7X",
"wX@X*XfX4X`.(.F.:.& i.) ^ E @ x.kXhXGXUXZXLXMX=X%X*X@X%X2.$ x.xXcXyX:Xv G mXvXyX",
"6X3X7X0XtXd.p.y.) @ 2 2 2 2 2 x.cXcXlXbXeXMXhX3X/.J.^.p.:.& x.NXdX0X[.v G cXkXkX",
"4X*X0X8XK.y.<.w.$.% x.fXpX9XD x.aXkXtX|.dXwX%X6X).|.B.m.>.# x.BXhX3XwXs G lXwXrX",
"%X|.[..Xp.y.M.s.T + x.yX5X+Xe x.bXkXfXtX9XXX/.eXK.i.0.s.e.o x.gX6XuXwXz G iX@X=X",
">X2X].F.s.1.y.d.+.o x.rX:XC.& x.dX9X>XpX>XK.F.t.g.y.^ ` _ o x.lXgX7X4Xf G gX/.J.",
"OX&X/.H.Z.$.$.<.-.+ x.fX3Xs.& x.qX0X6XXXA.d.J.N.e.<.-.:._ o x.vXyX|.G.f G lX1X+X",
"(.H.Z.B.J.>.:.+.<.$ x.yX&Xs.& x.rX:X8Xg.1.9.m.d.>.) ( Q W o x.nX>X+XP.f G dXwX X",
"|.(.B.s.1.$.^ _ W o x.9XqXw.& 3 X X X X X X X X X X X X X X h.aX>Xs.C.d G gX|.P.",
"|.XXB.C.f.Q E W W o x.tXOXw.& 3.}.}.}.}.}.}.}.}.}.}.}.}.}.H h.aXgX%Xu.8 G gX@X`.",
"2 2 2 s v B E Y n 1 k.qXJ.t.$ k.nXZXnXhXdXkXyX9XeXOX X:X:X< h.dXeX5Xe.8 g ^ E O ",
"X.#X,XwXrXuXdXuXeXF h.8XL.M.& x.mXSXBXcXhXxX1X`.].>X*X.X(.- h.dX%Xg.9.8 C =XJ.< ",
"h.xXcXFXcXlXlX0XlXf h.5XV.1.& x.nXnXZXPXsX6X).H.Z.)./.F./.* h.6XB.t.0.8 Z [.N.* ",
"n.bXlXGXNX1XtXnX2Xp 3 X X X X h.fXbXlXDXZXpX9X/.B.e.y.C.s.& ] 2.o.T / & V /.t.% ",
"n.cXtX3XhX6X6XhXaXt 5.<X#X{.S h.sXSX1X8XsXtX;X X|.i.r.:.R O 6 4 4 4 4 4 h A k . ",
"n.bXdXaX0XwX6X=X3Xi n.rXiX=X9 h.hXhXdXeXMXnX9XL.F.0.w.0.( + x.gXpXcXcXlXsXcXaXt ",
"n.kXpXaXbX8X).C.8Xi n.dX6X(.8 h.hXyXyXqXcXMXhX4XN.:.1.e.2.$ x.gXMXAXkXeX4XtXOX, ",
"n.gXeXIXIX>X2X].*Xr n.hX3X@Xq h.hXdX7X X*XdXpX%XK.1.<.%.Q + x.hXnXFXcXwX;XOXC.& ",
"n.xXcXVXbX+X=XN.+.* n.hXdXD.* h.iXlX+X(.L./.(.2.|.[.d.-.! + x.zXwX1X0X.XD.D.>.* ",
"k.kXkX9X(.2X=XP.9.* n.kX3X`., h.aXtXjX+XF.D.[.2.D.:XL.t.$.+ x.aX7X1X0XZ.a.B.;.% ",
"n.hXlX+X=X).8X&Xm.& n.lX%Xm.: h.pX0X2X XeX.Xy.d.>.e.e.-./ o v.cXiX6XhX>X/.1X9.o ",
"c.wXXXoXP.i. XXXi.= b.aX(.t.% h.pX7XeX0X X[.1.i.1.( ^ ` U o n.kX7XrXeX3X/.).t.o ",
"k.5XF.Z.J.d.B.e.w.& x.5Xm.w.& h.sXiXaX7X1.e.1.$.Q >.O.) R @ n.cXdX8X/.F.Z.B._ # ",
"j.&XL.J.J.B.B.D.J.L j..XJ.J.L l.rX2X@XP.J.J.D.u.0.J.J.g.t.K U.rXOX=X`.J.J.D.C.y ",
"W.T.Y.8.8.8.8.8.8.Q.W.Y.8.8.Q.!.E.T.T.T.8.8.8.8.8.8.8.8.8.Q.~.R.Y.8.8.8.8.8.8.I "
};
