/* XPM */
static char *c0bab1a816ef4773f5eb0a9d6f65e9d2wrjdhkNipgsbJfAa[] = {
/* columns rows colors chars-per-pixel */
"64 64 244 2 ",
"   c #08090A",
".  c #0A1417",
"X  c #141414",
"o  c #1C1C1C",
"O  c #161819",
"+  c #0F0F0E",
"@  c #241D15",
"#  c #311006",
"$  c #2A241A",
"%  c #35281A",
"&  c #3E230C",
"*  c #0D1C23",
"=  c #1A1A21",
"-  c #231C25",
";  c #192427",
":  c #192C31",
">  c #0C2124",
",  c #242424",
"<  c #2A2425",
"1  c #242529",
"2  c #242A2C",
"3  c #2B2C2C",
"4  c #262A26",
"5  c #322C2C",
"6  c #322825",
"7  c #28312C",
"8  c #33332D",
"9  c #2B2C31",
"0  c #232C32",
"q  c #2A3538",
"w  c #333333",
"e  c #3B3B3B",
"r  c #35373A",
"t  c #312F32",
"y  c #14201E",
"u  c #441603",
"i  c #542D18",
"p  c #7B3806",
"a  c #663817",
"s  c #793D16",
"d  c #622E0E",
"f  c #573B26",
"g  c #582F2B",
"h  c #6C3D26",
"j  c #743C2C",
"k  c #6E421E",
"l  c #7C451B",
"z  c #7F400A",
"x  c #5C412A",
"c  c #564532",
"v  c #674428",
"b  c #7B4D2B",
"n  c #784726",
"m  c #634B36",
"M  c #785135",
"N  c #7B4D32",
"B  c #303D42",
"V  c #394749",
"C  c #3C4B51",
"Z  c #3E5154",
"A  c #444444",
"S  c #4B4B4B",
"D  c #47484A",
"F  c #58554A",
"G  c #474E55",
"H  c #4A5557",
"J  c #535354",
"K  c #5C5C5C",
"L  c #59545B",
"P  c #534648",
"I  c #6E5645",
"U  c #766658",
"Y  c #555C63",
"T  c #586668",
"R  c #5E6970",
"E  c #576D71",
"W  c #646464",
"Q  c #696A6B",
"!  c #676B72",
"~  c #6B7779",
"^  c #747474",
"/  c #7C7C7C",
"(  c #767679",
")  c #746D6D",
"_  c #625D63",
"`  c #8B3C0B",
"'  c #843B06",
"]  c #8B3E10",
"[  c #8D440D",
"{  c #86420B",
"}  c #924408",
"|  c #834413",
" . c #8B4412",
".. c #84451A",
"X. c #844A1C",
"o. c #8B4B1C",
"O. c #8A4818",
"+. c #924413",
"@. c #934B1C",
"#. c #974A16",
"$. c #9C521A",
"%. c #A5561E",
"&. c #844A23",
"*. c #8B4C23",
"=. c #844929",
"-. c #875124",
";. c #935323",
":. c #855535",
">. c #985B35",
",. c #81493A",
"<. c #895A4A",
"1. c #8F6C52",
"2. c #A7724D",
"3. c #937A6A",
"4. c #AF7B6F",
"5. c #855E63",
"6. c #6F827E",
"7. c #94857B",
"8. c #AE8B71",
"9. c #C5946D",
"0. c #6E7E81",
"q. c #797C84",
"w. c #867B83",
"e. c #78878A",
"r. c #7A8E94",
"t. c #848484",
"y. c #8B8B8B",
"u. c #858889",
"i. c #958887",
"p. c #878D91",
"a. c #8A969A",
"s. c #939392",
"d. c #9A9C9C",
"f. c #968D90",
"g. c #AC928A",
"h. c #879BA3",
"j. c #98A7AA",
"k. c #9DB6BA",
"l. c #95AAAF",
"z. c #A4A4A4",
"x. c #ABABAB",
"c. c #A8ABA8",
"v. c #BDAAA8",
"b. c #A4ADB3",
"n. c #A8B7B9",
"m. c #B3B4B4",
"M. c #BBBCBC",
"N. c #B7B8B9",
"B. c #ADB0AF",
"V. c #A49EA1",
"C. c #C39A8F",
"Z. c #C7A793",
"A. c #C69DA4",
"S. c #C6A5AA",
"D. c #D4BBAC",
"F. c #D5ABB1",
"G. c #C6B9B7",
"H. c #D6B6B8",
"J. c #CDAEAB",
"K. c #E5BBB1",
"L. c #E7B793",
"P. c #B7C3BE",
"I. c #C7C3BE",
"U. c #D6C7BB",
"Y. c #DDC5AA",
"T. c #EED2BA",
"R. c #9BBCC4",
"E. c #9DBEC9",
"W. c #A3BCC3",
"Q. c #A6BCC7",
"!. c #BBBEC2",
"~. c #B3BCC3",
"^. c #C6BDC1",
"/. c #D8BAC3",
"(. c #9EC1C9",
"). c #9FC8D6",
"_. c #A5C2C6",
"`. c #ACC3C5",
"'. c #A4C4CD",
"]. c #ABC6CC",
"[. c #A5C9CE",
"{. c #ACC9CD",
"}. c #B2C5C5",
"|. c #B3C5CC",
" X c #B2CACD",
".X c #BCC6C9",
"XX c #A5C7D1",
"oX c #A9C6D1",
"OX c #A5C9D3",
"+X c #ABCAD3",
"@X c #A3CADA",
"#X c #ADCED9",
"$X c #A3C7DA",
"%X c #B2CDD3",
"&X c #BBCCD2",
"*X c #B5CCDA",
"=X c #B8C9D5",
"-X c #ADD1D9",
";X c #B3D2DB",
":X c #BAD3D7",
">X c #B7D5E1",
",X c #A0CAE0",
"<X c #C4C5C5",
"1X c #CBC5C4",
"2X c #CBCAC5",
"3X c #CDCDCD",
"4X c #C6C9CA",
"5X c #DBCDC3",
"6X c #D3CDCB",
"7X c #D6C9C5",
"8X c #CCD1CE",
"9X c #D4D1CD",
"0X c #DCD2CB",
"qX c #D8D0C4",
"wX c #C8CDD3",
"eX c #D3CFD0",
"rX c #CDD2D4",
"tX c #CBD4DB",
"yX c #C5D8DA",
"uX c #D3D3D3",
"iX c #DAD5D4",
"pX c #D6D9DB",
"aX c #DBDBDB",
"sX c #D7D7D7",
"dX c #E4CBC4",
"fX c #E4D3C6",
"gX c #E6D6CA",
"hX c #FBDDC8",
"jX c #E2DAD5",
"kX c #E4DCD8",
"lX c #F7D3C9",
"zX c #DCE0DF",
"xX c #F0E0D3",
"cX c #C9DAE4",
"vX c #D7DCE2",
"bX c #DAE4E6",
"nX c #CDE4E7",
"mX c #E4E4E4",
"MX c #EAEAEB",
"NX c #E6E8E9",
"BX c #E9EDF2",
"VX c #F4F4F4",
"CX c #FAFAFA",
"ZX c #EEF2F4",
/* pixels */
"+X;X(.(.:X_.`.V > ; =X~.~.oX*XoX-X_.OX+XR.oX;X{.#XoX'.XX-X@X$X$XXXoXOXOX$X).,X,X).$X$X$XoX X|.`.OX(.).[.OX#X[.oXoXoXoXoXXXoXoX+X",
"#XOX'.(._._.:XV G 0.R l.*XQ.>XE.-X(.OX;X-XoX+XOXW.#X-X+X@X).).XXXX[.+X%X#X$X).OX@XOXXXoXoXoX|.].OX-X@X#X'.OX[.'.oXoX].oXoX'.oX#X",
"-X'.OX+X_.{.%X: ~ ZXB ! cXn.Q. X(.OX[.(._.oX+X_.-X'.R.E.OXOX).-XoX_.W.{. X].'.].{.{.{.}.|.].].].OX+X_.[.R.#XoX[.oXoXoXoXoXoXoX+X",
">X(.[.-X[.{.`.q T BXwX! . : 0.nX>X-X(._.;X+X_.+X_.+XoX#X+XOX).-X-X+X+X{.].`.`.}.}.}.}.`.].].oX].(.OX[.-XXX;X[.[.oXoXoXoX'.oXoX#X",
">X'.(._.[.{. Xe.e.( vXB.e.p.~ E E l.:X_.k.P.{. X_.&X[.k._.;X{._.R.'.+X_.`.|.}.`.P.{.{.{.OX).).OXOX{._.+XR.R.(.-XOXXXoXXXoXoXoXoX",
"#X+XOX'.OX_. X:Xq.. 4X<XuXBXu.; y 6.P.P.B.P.P.B.N.n.P.P.P.k.k.[.oX-X%X]._.].`.`.`.[.[.[.OX@X@X@X+X_._.{.-X+X[.[.oXXX].oXoX'.oX%X",
"#X$X#X#X+X_._.yXp.; + w.CXP.aX2XMX) @ $ % @ @ 6 % @ @ % $ $ Q pX:XoXoX#X#X]._.OX[.(.[.).@X,X,X@X_.}.:X{.:X+X%XR.oXOXoXXXoXoXoX#X",
">XQ.'.XX_.[._.:X0.= t.) ^ 9X6XjXgX1.i x x x f h f x x f x f m U W T ~ n.:X%XOX-X).).).).@X@X#X%X X&X|.~ E E k.;XoX[.oXoX'.oXoX+X",
";X+XOXOX[.[.{.{.e.r x.w.< G.1XdXK.2.n n :.:.:.=.=.b n ,.:.:.a u & $ 6 c.P.j.k.(.(.[.[._.&Xk.b.j.b.V.~.G * : Q.*X+XoXXX+XoXoXoX%X",
";X+XOXOX[.[.{.{.:X.X2 Q M.@ t.dXj ] ..&.O.] ] #...@.;...l l =.=.k M m & $ 7 + 6.nX:X XyXuXJ @ $ - 9   ^.h.* Q.Q.+XOXXX+XoXoXoX#X",
";XoX[.OX[.[.-X{. X~.1 ) 6XX i.lXs ] #.#.] #.] ` ` ` #.] @.O.@...@.-.l d v m c K F F F I I g j g 6 P w.^.q.; l.*X+XXXoX+XoX'.oX+X",
"*XoX[.).[.[.[.[.`.n.D ( f.P i.Z.*.#.` ' ] #.#.` #.` ` ] @.]  . .} } } ;.l k :.u & & & i # N <.j g U /.~.q.0 Q.Q.oXoXXXXXXXoXoX%X",
"*XoXoXoX).[.).[.*X|.vXw.< G.) # l  .]  . .` [ +.+.#.+.+. .@. .` } { #.' @.O.-.l -.b =.:.N N s u A.F.S./.w.= ~.~.oXoXXXOXXX'.oX+X",
"*X|.oX+X[.[.).[.Q.~.=X! - G.V.w.=.O.@.@.@. .`  .'  . .p p o.*.| #.{ +.p $.$.p { | l =.h ,.g ,.w.g.F.F./.q.t ~.~.oXoXXXOXoX[.].%X",
"*XQ.oX#X).).OXOX;XW.b.q.L ^./.F.n s s ..O.o.O.O.;.O.>.>.2.| -.-.X.s | o.{ ' $.#.$.z -.N j g 5.dXF.F.A./.w.- ~.Q.=XoXOX+XoX[.oX+X",
"*XoXXX#XOXOXOXXXoX:X. q.BXiXkXH.n X.o.o.| | ] | l -.L.T.hXM a b &.l O.@.{ [ #.' { o.-.n # g./.S.F.F.F./.w.- ~.wX+XoX+XOXoXOXoX%X",
">X*XE.#X(.OX+X%Xr.B k.!.tX6XzXD.l z o.{ %.p $.{ | n Z.gXU.U.8.n o.[  .[ [  . .O.] =.d j A.A./.S.S.F.S./.w.O 4XQ.oXoX[.oX[._.oXoX",
"$XE.Q.XX_.%X{.%Xr.; tXvXI.1XU.D.-.{ { O.z } } { ;.3.v.2X9XxXg.a O. .[ [ O.| X.X...j j <.K.F.V./.S.F.F.V.q.A b.*XoXoXOXOXoX[.{.+X",
">X#X$X'.%X_.P.:X~ 0 ~.rX2XaXgXY.l z $.z ;.-.X.z 1.T.kXuX2XfX9.k &.O.| X.X.X.X.l ,.u 4.K.F.S.v.S.F.S./.6 _ NX|.W.oXoXXXXX[.[.{.{.",
">XE.*X].k.%X:XZ e.n.tXuXuXqXU.Y.-.z z -.z d a C.D.0XI.uX0XT.8.l &.X.X.| X.O.|  .=.p ,.,.<.A.F.H.v.S.S.5 K wX&X].oXoXXXXX[._.[.{.",
"[.[.[.[.[.k.{.> T CX4X2X0X0XI.8.l o.l k 1.8.7.D.7XuXuX3X5XT.9.{  . .O.[ } } } } ` +.+.] =.4.8.H./.G.1X^ ) a.n.(.oX[.XXOX[.'.].oX",
"-X;X[.[.:XP.P.V ! BX3X3XU.xX7.f -.X.b f D.gXgXU.aXvXcX<XgXhX9.p +. . .} } } } } ` %.] ] =.s <.lX5XkX6XVXj.. k.cX#XOXOX+XoX].{.+X",
";X(.[.[.P.:XyXy ! sXaXjXqXxXg.m k k U Y.U.jXI.jXwX4XrXzXgX1.l ;.o...O. .} } } } ` ` +.,.b g.gXU.7XiXsXzXa.: n.(.oXOXXXOXOX].].%X",
"+X-XP._.%Xd.6.6.s.mX1X1X0XU.7.m 8.7.8.jXI.9XjXI.2XbX4X4X0XI k X.&.X.X.| +.+.` ] ] ` =.,.3.Y.gXI.6X9XuXtXp.> (.+XoX[.'.XX].'._.{.",
"-X[.{._.:X6.. I.zX9X9XqX5XxXg.m T.xXqXP.sXsXiX5X0XuXsX2X0XU v M n ..| | O.o.O.{ ] X.n 1.hXgX2XsX8X8X8XzXr.: Q.OX+XOX'.OXoXoX{.+X",
"%XcXl.: : V 4 P.8XzXiX9XI.0XU.0XU.0XsXyXtX4X1X5X7X7XuX8XkX5Xg.a n X.X.-.| z z o.*.&.a <.gX0X2X8XuX XBXB T %X_.XX[.).'.XX].[.].+X",
"*Xe.Y 0 7 4 4 I.eXsX1XiXjX0XU.U.9X4X&XyXtXuX0XfXfX7X6X2X<XjXG.8.8.>.l | -.{ z o.&.n h <.dX0XqX8X8XP.~ T r.:X%X(.OX[.'.XX[.].].{.",
"cXZ > : 7 ; 8 B.^.iXM.1XuX2X9XzXaXrXtXyXtXtXgXU.U.dX9XuXuX9XI.xXhX9.-.v b b b M N M M 3.7X9X8XrXzXs.+ }.yX{.Q.oX#XOX[.oXoX{.{.{.",
"&XG 0 9 9 w 4 w w w 1 w.MXNXaXI.qX2XtXvXyXrXiX5XU.0X2X<XvXsXI.5XU.U.U.fXgXgXqXY.dXdX1X1XmX8X:X:XbXc.y l.=X_.W.%X#X+XOX+XoXoX{.%X",
"bXH 0 0 3 2 $ 4 2 1 - H ~ Q c.MXjX6X4XyXyXtXiXiX0X0X8XsXmXsXkXqX0XaXaXiXqX9X0XzXiXkXiXsXzXyXzXbXe.H > P.|.*X%XoX#XoX[.[.[._.[.[.",
"wXG 0 - 7 3 8 3 1 t t 9 = . ^ 2Xv.U.sXtXyXvXwX4X2XaXm..X!.m.G.G.M..XM.}..XI.P.P.G.^.G.G.M.M.P.I.H 4 B c.l.|.Q.W.+XoXOXOX{._.{.{.",
"cXH - 0 r $ 3 4 t 2 9 1 q 0 q , @ g.MXzXcXvXBXmXaXMXS ; 0 t $ < 3 2 2 4 7 4 4 4 < 6 % 6 $ @ @ + c.ZXyXq * * `.cX%X+X{.+X{.[.[.{.",
"nXV 2 2 < w w < 4 3 3 3 1 9 9 3 6 P ^ Q T ! W W W K A 2 , 3 5 5 3 3 3 9 3 3 3 3 5 5 5 3 < ) c.s.M.sXsXd.s.d.E G T  Xn.{.R.{.[.[.",
"yXV 0 e r < < 6 3 3 3 3 3 3 9 5 3 4 O O $ < , , , , < 3 8 8 9 1 3 3 3 3 3 3 3 3 1 w o e e c.9XaXzXM.8XpXaX4XD A r j.}.`.-X[.(.-X",
"yXH > O 9 5 t 5 4 3 3 3 3 3 3 9 4 w , w = , o e t 9 3 3 1 3 3 3 3 3 3 5 9 9 3 3 4 3 w A CXD e zX.XzXmX4XsXsXsXuXbX  e.:X_._.[.-X",
":Xh.0.1 r 1 3 1 3 6 2 9 3 3 3 t w 3 w z.z.y., w 3 3 9 8 3 3 4 3 3 3 3 3 3 3 5 3 3 w , e K t.d.NXmXm.e <XsXsX4XsXP.}.R Z yX:X(.{.",
"{.:Xl.; q 1 9 < 3 7 3 4 3 3 9 3 3 3 S mXsX^., 2 , 3 3 3 3 3 3 3 3 3 3 3 5 3 3 3 1 3 , w o N.aX<Xm.u.A .X9X8X3X8XtXBXa.B l.k.:X[.",
":X{.r.: r 0 t r 3 3 3 7 t 3 5 t e + w aXiXc., 3 w 8 3 4 1 4 3 5 3 3 3 3 5 7 3 3 w 2 3 w $ x.mXMXA S CX4XaXmXsX8XNXN.bXvX  a.:X{.",
"#X+XP.r.C = 1 9 3 9 3 7 3 3 5 5 X q.<XaX4XuXx.D @ , , w w w 3 , 3 3 5 7 3 3 3 3 e $ 3 , ; e ^ mXw Q 8XmXd.q I.rX4XaXvX.X}.R Y }.",
";X[.[.cXC q 9 2 9 3 3 3 5 9 9 5 J c.sX2X8X4XMX( A w 3 3 3 3 3 w 3 3 5 3 3 3 3 3 , w S S w A K m.e H mXc.7.A 3X2XsX4X4XwXNX! 0 tX",
"+X{.#XcXV ; 9 9 9 o 3 ; $ t @ r mX6XwX8XNXsXeXmXx.X @ 9 5 w 3 3 8 w , e , 3 e , , X B.3X  ^.<X  o Q MX3 K VXI.iXsXaXeXwXNX! B ^.",
"+X#Xr.B a.4Xm.9 W <Xm.N.M.z.N.N.^.NX&Xf r K zXsX3Xm.4X( + X o , 3 X , O 6 , X t.2Xx.<X4XN.J K sXm.y.e 5 ^ VXMXf.e ^.vX4XvX_ 0 vX",
":X{.l.* ^.vXvX( W P.<XaXrXaXVXaXaXz.s.J J W s.<X3XsXaXm.Q ^ ^ K K W Q ) K Q L c.eXmXsXsXNX^ K d.aXN.K X P c.s.6.W ^.NXsXvXw.! f.",
"%XyXr.. W.uXuXNXd.  sXaX4X2XuX<XmXK , <X3Xz.X z.aXsX3XsXsXaXaXmXNXmXuXNXaXvXaXaX3XzX3XeX1XVXN.  N.sXmXW O O O ) CX8X<XrXvXBX!.= ",
":XZ T wXwXeXeXsX<X2X; 6.VXuXuXeX6X4XN.w 1 J 2X4XeXeX4X3XiX4X8X2X<X2XmX1XpX2X2X3XsX<X3XiXaX^.3X<XJ B r G.8X3X2X9X6XsXvXuX^.eX!.9 ",
"bXq Z NX3XeXsX^.2XaX) ^ s.3X4XuXvX3Xm., K w.uXsX3X8XuX3XaX4XuXuXaXc.u.rX3X8XsX3X2XsXaX4XsX8XiXmXD t ) w.s.d.t.x.2XeX3X<XtXvX~.0 ",
":XZ Y vX3X^.mXeXuXI.VXt.+ vXiX<XM.mXm.O B.mXuXuX8XuXuX4XuXsXuX<XaX^ 3 2XeX3XsX4XuX3X2XaXuX2X3XaXA W CXr X y X ^ mXrXpXrX3XvX~.- ",
"7 k.4XuXsXaX6XeX3XaX6X4X4X- t.CXVXQ @ 4 X K aXaXkXmXaXsXmXVXy., , ^ eX3XmXmXsXmXvXmX^ + w t 2 1 - L mX4X2X2XuX<XsX4XuXeXeXvXN.9 ",
"y c.aX3X2XuXsXsXsX4XrXiXN.t.^ t.y.^ 6.^ / t./ u.3.e./ t.y.y./ ^ ) z.aXmXd.^ u.( w./ t.( ^ t.( / r L mXiXeX3XsXuX3XsX2X3X8XaX<X1 ",
"e c.aXaXpX3XuXuXiXaXuX1XmXMXy.X X V.mXiXMXc.; = q = O 3 O X ) VXuXuXuX<X6.6 O 3 3 1 s.ZXmX3XaXCXD L NXeX8XuXaX3XuXsXuXaXuX3Xm.= ",
"<XaXuX8X3X3XsXsX3X3XuXrXeX8XrX3XmXL , = X < 4 O o o o o 4 < o O y 5 = o 3.tXsX3XsX<XsXkX3XaXaXeXA S mX3X8XeXsX3XsXuXuX3X3XsX2Xr ",
"mXuX2X3XeXuXsX3XsXeXeXuXuX6X3XuXuXd.t.t.y.y.3.p.3.s.s.t.t.y.t.t./ u.t./ m.mXeXuX<X9X8X4X3X2X4XkXe J MXsXuX3XuX2X3X3XuX3XeXsXm.X ",
"8X2XuXsX3X3XuXeX4XeXeX4X<X8XsXsXeXsXmXaXiXMXMXaXbXvXsXaXmXaXaXmXmXaXMXmXaXeX!.uXrXsXuXuXiX3X4X3XJ W uX4X3XuXsXuXsXeXuXuXuX3XN.D ",
"mXsXaXuX1XuXsXsXvX8X2XsXmXsX3X2XsX<X8XiX<X!.8XsX4XuXsX4X3XsXuXsXsX<X3X<X<XaXkXrXuX3XuX3X3XmXx.O <X1XMXiXsXuX3X<XaX3X4X6XuX2XvX2X",
"sX4X2X4XuXaX8XeX2XsXuX<X<XsXaXuXeX4X2XsXsXvXzX^.aXwX<X8XaXeX<X3X3X3XuXaXsX4XrX2XuXI.3XsX3XsXc.+ m.3X4X4X3XsX9XsXuX4XuXuXaX<XuXaX",
"aXuXsXeXuX8X<XsXeXsXuXeXsXsXuX3XsXsX3X3XsX6X8XsX2XsXuX6XuXuXuXsX3XaX3X6XeX3XsX8XuXaXuXuXsXaXz.o c.mXeXaXsX3X4XuX9XaXsX<XuX3XeXsX",
"vX2XaXMXuXzXMX2X2XsX3XM.sXiX3XsXuXuXeXuXuXuXsXuX3XsXeXuXsXsXuXuXuXrXuXuXuXuXuXuXuX8XvX3X3XZXB.  !.3XaXsXeXuXuXeXsXuXuXuXuXuXuXsX",
"kX3XN.J K _ D aXmX8XNXeX8XzXeX4XuX8X8XeXuXuXuXeX3XsX8X8XuXsX8XeX3XuXuXuXuXuXuX8XsX3X6XsXiX( Q V.<X8XsXuX8XeX8X8XuXuXuXuXuX3XuXuX",
"rXmXz.w S c D d.N.z.1XeXuXeXsXsXuXeX8XuXuXsXuXuXeXsXeXeXsXeX8XsXuXuXuXuXuXuXuXeXsXeX3XsXmXf C ZX3XsXsXuX8XuXuXeXsXuXuXuXuX9XuXsX",
"mX3X4XmXpXtXMXw + 9 <XzX!.eXsXsXeX8XeXeX8XuXuXuX8XeX8X3XsXuXeXeX3XuX9XuXuXeXeX8XeX3XsXuXmXS H aXeXuXuXeXeXuXuXeXuX3XuXuX8X3XuXuX",
"iX3XsX3XuX^.pXx.x.z.J y.mXaXpX<X3X3X3X4X3X8XeX8X4X8X3X3XeXrX2X8X4X3X3X3X8X8X3X3XsX<XsX3XaXA L iX2X3X8X3X8X8X3X4X8X8X3X3X8X3X3XuX",
"MX<X2X<X6X4XuXsXpXkXD Q N.G.8XaXuX8X3XeXeXuXeXuXeXuXeX3XuXuX8XeXeXeXuXuXuXeXeX8XeX8X8X<XMXA D mX4XeXeXsXuXuXeX3XeXuXeXeXeX8XeXsX",
"3XaXuXsXmX3XuXsXaX<XVXt., aXaX2XsXeXeXuXuXsXsXuXuXuXeXeXsXsXeXsXuXuXsXuXuXsXuXuX2XsXuX4XMXJ S zX8XeXuXsXsXeXuXuXsXsXsXsXuXeXeXsX",
"mXeX4XrX4X2XuXrX2X3XaX/ = eX8XsX8XeX4X8XeX8XuXeX4XuX8X3XeXsX4XuX3X8X8XuXeXeX8X3XsX6XuXeXaXA S zX8X8XuXeXeX3X4XeXuX3X3XuX8X3X8XuX"
};
