/* XPM */
static char *collect1667941774[] = {
/* columns rows colors chars-per-pixel */
"50 50 99 2 ",
"   c #3D262F",
".  c #3E2731",
"X  c #3F2834",
"o  c #3F2A38",
"O  c #432B3C",
"+  c #462E45",
"@  c #432F4A",
"#  c #45304B",
"$  c #4C314C",
"%  c #50304B",
"&  c #4E3151",
"*  c #543454",
"=  c #5A3556",
"-  c #5C3659",
";  c #60375A",
":  c #66395E",
">  c #6D3D5B",
",  c #673960",
"<  c #6C3A63",
"1  c #65376B",
"2  c #67386C",
"3  c #6A396D",
"4  c #723B6B",
"5  c #7B3E6C",
"6  c #743B70",
"7  c #7B3E72",
"8  c #784160",
"9  c #7E406D",
"0  c #813F75",
"q  c #82416E",
"w  c #89466B",
"e  c #964C6C",
"r  c #844174",
"t  c #8B4376",
"y  c #864178",
"u  c #8D4379",
"i  c #954974",
"p  c #994A76",
"a  c #92457A",
"s  c #9A477E",
"d  c #974878",
"f  c #9B497B",
"g  c #A34C7D",
"h  c #A94F7E",
"j  c #A25070",
"k  c #AC5375",
"l  c #AD517D",
"z  c #B2537E",
"x  c #BA567F",
"c  c #BE597E",
"v  c #C35B7F",
"b  c #CA5F7D",
"n  c #CF617F",
"m  c #D4637F",
"M  c #DC677F",
"N  c #DF687F",
"B  c #F87F6E",
"V  c #E46B7E",
"C  c #EA6E7E",
"Z  c #EE717C",
"A  c #F67777",
"S  c #F77A74",
"D  c #F87C72",
"F  c #F5757A",
"G  c #F8767A",
"H  c #FFB32E",
"J  c #FEAD35",
"K  c #FDA53E",
"L  c #FDA93A",
"P  c #FEB131",
"I  c #FC9F47",
"U  c #FB9B4C",
"Y  c #FA8D5D",
"T  c #FB9454",
"R  c #FA9158",
"E  c #FCA243",
"W  c #F88665",
"Q  c #FA8963",
"!  c #F8826A",
"~  c #9E4980",
"^  c #A44A82",
"/  c #AB4D84",
"(  c #B24F87",
")  c #B34F88",
"_  c #AF5081",
"`  c #B45185",
"'  c #BB5585",
"]  c #BE5880",
"[  c #B65088",
"{  c #B85188",
"}  c #C05786",
"|  c #C55B82",
" . c #CA5D82",
".. c #CE6080",
"X. c #D36281",
"o. c #DB6680",
"O. c #DF6880",
"+. c #E16981",
"@. c #E96C80",
/* pixels */
". . . . . .     O O O # # # & , 9 u u u u a u u u u u u u u u a u 5 < & @ @ # # O O     . . . . . . ",
". . . . . .   O O + $ $ & $ = < r a a a a a a a a a a a a a a a a q < = * $ % # + O O   . . . . . . ",
". . . . . . . o O % = - - - , 5 u f ~ ~ f f g f g g g g g g ^ l g p w 8 > : ; = % O     .   . . . . ",
". . . . . . o O $ = < 4 4 8 5 t f ^ / ^ ^ _ z ' ] x x x x ] x x x z k j e w 9 : = % O O o . . . . . ",
". . . . o O O + = < r t u y u ~ / ( [ ) [ '  ...X.............n X.b ..b v l d q < = # O O O . . . . ",
". . . . O O $ = < 9 a f ~ ~ ~ ^ / [ { ' '  .X.o.N V N O.O.O.O.O.+.o.+.+.m | l d q : = $ O . . . . . ",
"  . . O O % = < 9 u ~ / / ^ / / ) [ ' }  .X.+.@.Z Z C C V @.@.@.C C C C V m | l d q < - % O O . .   ",
". . O O $ = < q a ^ / / ( [ ) [ [ { }  .X.+.Z F F Z Z F F F F F F F F F Z V m v z i q < = + O O . . ",
"o O O % = < 9 a ^ / ( [ [ [ { { { } | X.O.V Z F F F G S D ! ! ! ! B S A F C V m v l d q < = % + O o ",
"O + % = < 9 a ^ / ( [ [ [ [ { ' |  .X.O.C Z F F G F G ! Q R T T T Y ! A Z F C V m v z p q < = $ + O ",
"+ $ = < r a ~ / [ [ [ [ [ [ ' '  .X.O.Z Z F F F G @.G ! T E L L K U Y B F F F C V m v z d q < = # + ",
"# % = 4 y f ^ / / / ( / ( / ` ]  .o.V Z F A G F G F S W U L P H J K T W D A G F C N n ' g t 8 - % # ",
"# & - 4 u f ^ ^ ^ ^ ^ ^ ^ ^ _ '  .O.V Z F G G F F F A Q U L H H P L E T Y ! S F C +.X.x g u < - & # ",
"# $ - < t a a d ~ a s a a a f `  .X.V Z F F G F G G A W U L P P J J L K U Y B F C o.b ' g u 4 - $ # ",
"* = : 9 u a a a u a u u u u f l  .X.V F F G G G F @.A ! T E L P J J J J E R B Z C N n ' g a 9 - = * ",
", < 4 r u a u u a u a u u u f l v O.V Z F G G G G G A D W R I E J H H H L T B F @.N  .v _ f y 9 < , ",
"q r y y y ~ ~ y u a a u u a f l  .o.V Z F F G F F F F F D ! Y E L P H P E T ! @.@.O.X.| { _ ~ y 9 9 ",
"u u a u y y 0 ~ a a u a u a f l v m C Z F G G F G F G F F F ! R E L J L E R ! Z @.O.X.| ' [ ^ ~ ~ u ",
"a a ~ y a u ~ 7 a a a u u a f l ..o.V Z F A G F F F A F F F S W R T U U R W S F @.O.X. .' [ ~ ~ ~ y ",
"a a a a u a 7 ~ u a a a u u d h ] o.V Z F F G F F F G F F F F ! ! ! ! ! ! S G F @.O.X.} { ( ^ ~ ~ y ",
"a a u a ~ y y ~ u ~ ~ 9 ~ ~ y _ ..n V Z A A G F G F G F G F G F G A A G F G F F @.o.X. .{ [ ^ ~ y a ",
"a u u a 9 ~ y 7 9 9 7 7 9 y a _ ..o.C Z G G G F F F F F F F F F G @.@.G F F G Z @.O.X.| { [ ^ ~ a y ",
"a a a a ~ 6 y 6 6 6 6 6 9 ~ f _ | o.V Z G G F F F F F F F G G F F G F F F G A F @.o.X...' [ ^ ~ a u ",
"u u a a ~ y 7 3 2 2 2 6 9 y d ^ c m N Z F F F F A F G F F F F F F F G F F G A Z C o...| { [ ^ ~ a u ",
"a u u a u 0 7 3 1 1 1 3 6 7 y ~ z v m V Z F G A G G G G F G G F A G G F F Z Z C O.X...' { [ ^ a ~ t ",
"a a a a u 0 6 3 1 1 2 3 3 6 6 ~ f l c n O.@.F A G G G A G F F G A F G G F Z +.O.X.| ' { { [ ^ ~ a y ",
"u a a a a t 7 6 1 1 2 3 3 3 6 6 t p l n X.V C Z F F Z F F F F F F F F F Z V O...| { [ [ [ ( ^ ~ a u ",
"u a a g g d t 6 6 3 3 1 1 1 3 6 7 t f l v n O.O.@.Z Z Z Z Z Z Z Z Z Z Z C O...| } { [ [ [ [ ~ ~ a a ",
"a a f l x l d t 6 6 3 1 1 1 3 3 6 7 y p _ ' ] ..X.O.N V O.V +.V V V V V O.X.| ' { { [ [ [ [ ^ ~ a u ",
"u a g x  .x l d y 6 3 3 1 3 1 3 2 6 9 t a ~ _ ' | ..X.X.X.o.X.o.m X.o.X.X. .' [ [ [ [ [ [ ( ^ ~ a u ",
"u a h c ..v l d y 7 6 3 3 3 3 1 1 3 6 9 y ~ ~ / ` ' ] n v v v v v .. . .| } [ [ ( [ [ [ [ ( ~ ~ a a ",
"u f g v X.n ` a 7 ~ y 9 6 3 1 1 1 3 3 6 9 y a f ^ _ h l l l h l l ` { } } { [ ( [ [ [ [ [ [ ^ ~ ~ a ",
"u a g c b v z d a u u y 7 3 3 2 2 3 2 3 6 7 y a s a f f a f f a f g / ( { { [ [ ) [ ` { ` ( ^ s a u ",
"7 r i l c c z g f a a y 7 7 6 3 3 2 1 1 2 6 7 y y a u a a u u u a a s / / ) ) [ { ' { { ) / f u 9 9 ",
": < 9 e l z x x z g a u y 0 7 6 2 1 1 1 2 3 6 6 0 y u u u u u u u a s s ^ / ( { }  .} ' / f t 5 8 , ",
"* = : 9 a h x | c l d a u t y 6 6 3 1 2 3 3 3 6 7 y u a a a u a a a a a s ^ / { }  . .' h t 5 : = % ",
"# $ - 4 t g x b  .x g d a a u 0 6 6 3 3 2 2 2 3 6 7 y u u a a u a u u a a ^ ` ' |  .| x g t 4 = & # ",
"# $ - 4 t g | X.m  .c l g a t y 7 7 6 3 2 1 2 2 3 6 7 0 y u u a a u u u d / '  . . .| z g t 4 - $ # ",
"# $ - 4 t g c b X.X...c l d a y y r 6 6 3 1 2 2 3 3 6 6 0 u a a a u u a f z | .. .} { / s t 4 ; $ # ",
"# # = < q f z v X.X.X. .x h f a ~ y 9 6 6 3 3 2 3 1 3 6 y u a a u a u a f z |  .} { / g a 0 > = % O ",
"O + % = < q d z |  .X.X. .x l f a a y 9 7 6 2 2 1 1 1 6 r u a a a u u u s h | | } ) g a 5 < = % O O ",
"O O O $ = > q d l v X.m m n | l p u t y 0 7 6 3 1 1 2 6 r y a a a a u a f h ) { / ^ t 0 < = % O O O ",
"O   o O $ = < q d z v n ....v z g d a d ~ y 7 3 2 3 6 6 r y a u u a u a a ^ / / ^ a 0 < = $ O O     ",
"    . O O $ = < q d z x ] ] x x x l ` l ^ d t 9 6 6 7 r y u a a a u a a a ^ ^ g a 5 < ; % O . O O   ",
"        O O % = < w d g g g l z c v b  .v l d y y r y y u u a a a a a a a f s t 5 : * % O O . .     ",
"  O O     . O $ = < q u u u i h c n X... .x g a u u a u u a a u u u u y t t t 0 4 = $ + O   .       ",
"  O       O O O # = < 4 4 < 9 i l x v c x l ^ a u a a a a u a u a t 0 5 5 4 4 < = % O o o .   . O   ",
"            O O O % = - - = : 9 i g h h g d a a a u a a a u a y a q 4 : - ; = = % O o . . .   .     ",
"        O     O O O + % & & * 8 9 a ~ u u a a a a a u a a u a ~ a 0 < = $ $ & # O O O             O ",
"  O               O O $ # # * > 9 y y ~ y u u a u a a u a a y ~ t 0 : % $ # # # O O     O           "
};
