/* XPM */
static char *result[] = {
/* columns rows colors chars-per-pixel */
"40 40 89 1 ",
"  c #1E1E1E",
". c #3A2D15",
"X c #3F3017",
"o c #3B311D",
"O c #232323",
"+ c #2C2C2C",
"@ c #3E3523",
"# c #343434",
"$ c #3B3B3B",
"% c #433417",
"& c #443418",
"* c #4B371A",
"= c #493919",
"- c #543C1D",
"; c #593F1F",
": c #423624",
"> c #4C3D23",
", c #443B2B",
"< c #4A3C28",
"1 c #533E22",
"2 c #583F21",
"3 c #453E32",
"4 c #4D412D",
"5 c #564024",
"6 c #5C4020",
"7 c #54442B",
"8 c #5B462C",
"9 c #4C4336",
"0 c #46433B",
"q c #4A443A",
"w c #4E483C",
"e c #504534",
"r c #5A4932",
"t c #50473B",
"y c #544C3C",
"u c #5B4D3B",
"i c #634422",
"p c #694623",
"a c #6E4826",
"s c #634729",
"d c #62492F",
"f c #694A2C",
"g c #794E2A",
"h c #624D35",
"j c #6B4F35",
"k c #6E5035",
"l c #67523C",
"z c #705237",
"x c #75573C",
"c c #434343",
"v c #494640",
"b c #4C4C4C",
"n c #534C43",
"m c #534F4A",
"M c #575146",
"N c #5B5143",
"B c #54514B",
"V c #5D564D",
"C c #545454",
"Z c #595651",
"A c #5C5955",
"S c #5B5B5B",
"D c #635443",
"F c #6A5643",
"G c #6A5846",
"H c #61574E",
"J c #63594D",
"K c #695A4C",
"L c #655C53",
"P c #6D5F52",
"I c #625E59",
"U c #70604F",
"Y c #6C6256",
"T c #63615F",
"R c #6B645C",
"E c #796C5E",
"W c #636363",
"Q c #696561",
"! c #6D6A66",
"~ c #6C6C6C",
"^ c #736D66",
"/ c #716F6C",
"( c #75726E",
") c #737373",
"_ c #7C7773",
"` c #7B7B7B",
"' c #858585",
"] c #8D8D8D",
"[ c #939393",
/* pixels */
"`!4;a66666666;&-66=4!`)))#++#m~SSbCSSW~)",
"~~A7i66666-666&*-5nSVuruAC##bWWSCSSSSSSW",
"S)/Bi66666666-%=eA~n-=X==WSCWWSWWSSCCCCC",
"bC~Q*666-666-X<T)Q6*==%=Xw]'SCbbbbbbbbbb",
"bbC)Z-66666*&mT/l5====%Xow'~Cbbbbbbbbbbb",
"bbbS)M5;6=<M~/Y7==%=%%X.Xw`Sbbbbbbbbbbbb",
"bbbC)/M<40A)~N2-=======..C`Sbbbbbbbbbbbb",
"bbbb)~SCW`)!r;======XX=..T)Wbbbbbbbcbbbb",
"bbc/WCCb~])8-=-=====X%=.o~)Sbbbbbbbbbcbb",
"bc~`CCCCbWu--=====%=XX=.0)`Sbbbbbbbbbbbb",
"bSW~SCCbCAN--=====%=.%X.mUQbbbbbbbbbbbb$",
"Sy4bWCbcCCJ5*%======XXX4r6NSbbbbbbbbcc$c",
"n1=>TCbcCCWy==%=X==.Xo9T->e~bcbbbbcc$#bT",
"-==%3)CbCCST&=====X.@b!)QT/])C$##$#$$b~B",
"==*=&/TcCbb/w====%XwSSbcccS][`Ccc$$$b~B;",
"====&Z)CbbC)~.XXooW~Sc$$$ccS'~~S$$$C~W-=",
"=-=%X0)~cb!^^0@@0A~Cccc$$$cS~bCWSSS~We==",
"===X%3)`~~GsrVCS~~Cbccc$c$$SWbbS`''~u===",
"===X%4~)/G66;;^`WCccccc#c$b/SCbbT/WS4=--",
"===XXq))T)G6;=!~Cbc$c$c$$#CJxzzzlrjT7=--",
"==XX@S~SSS`YyM/Cbbcc$c$#$cLps6666-;Gr===",
"==X,S~SSbCS)``WccCb$$c$#$mJap6;66*6u4===",
"=XoS~~SCCCCT`[Wccbbccc$#$~Fap6666*6N9==%",
"=4S~)SSCCCCCS])ccbbcc$##b~kpp6666-6uW0==",
"@S~`WCCCCCCbCW'ccbbc$c$#WYaai666666N)~3X",
"S`]~SCCSCCCbcSWC#$cccc#$)lpg6666-66ySCSC",
"W''SCSSCCSCCcCSSb$$cc$#b)s8g666;;66u$+#b",
"#W/CCSSCCCCbcCCbSS#$c$#W`66a666;666n$+++",
"+bWCCSCCCCCCcbbcW]C##$$)/J6ip;6622;u$+O+",
"bTSCSCCCCCbbcccb~MSC##b`bAV1ii6;-2-B$+O+",
")))CbSCCCCbb$cbSe=oVT~)c+#b~r;66;*m~C###",
")!_`CbCCCSbc$bSe===Xq/W#++#b!A5-<mSSSCS~",
"GsdE(bcCCbbccSt===&X&I$+++O+S)VqC~CCCCb`",
"5;;iiVbcCc$mBw==&&&&qb#+O++++C)~`SbCCCb^",
";;;66-7w$cSm2-===&.%b#+++OO+++C``CCCCbbj",
"i;26---*bSn>;===&&&bc#++++OO+++C~CCCmbZi",
";;6;-==yWC*=-====X3S$+++++OOO++#CSCCcCfi",
"6;;;=%w/`S==;==&&:Cc#+++++OOOO+++cbbbvi6",
"666-%nWbS~9=-===&nC+++++O++O OO++#WCZl22",
"66;=q`C$0Sy=-==&0S++##+++++O +OO++)~Lii2"
};
