/* XPM */
static char *door1685630728[] = {
/* columns rows colors chars-per-pixel */
"32 32 84 1 ",
"  c None",
". c #2A2B2C",
"X c #2B2C2D",
"o c #2C2C2D",
"O c #2D2D2D",
"+ c #2D2E2F",
"@ c #372E27",
"# c #3E3027",
"$ c #39312A",
"% c #2E2F30",
"& c #303031",
"* c #303132",
"= c #313132",
"- c #323333",
"; c #333434",
": c #343536",
"> c #373737",
", c #393A3A",
"< c #393A3B",
"1 c gray23",
"2 c #3C3D3D",
"3 c #55361D",
"4 c #56361E",
"5 c #633512",
"6 c #653511",
"7 c #633816",
"8 c #643815",
"9 c #6C3A15",
"0 c #663E1F",
"q c #6C3E1C",
"w c #733F17",
"e c #723F18",
"r c #433226",
"t c #443226",
"y c #443326",
"u c #4E3521",
"i c #463428",
"p c #463528",
"a c #48372A",
"s c #49372B",
"d c #513824",
"f c #523A26",
"g c #5A3C24",
"h c #5B3D25",
"j c #5D3D24",
"k c #5E3E24",
"l c #5F3F25",
"z c #543B28",
"x c #403630",
"c c #633D20",
"v c #724019",
"b c #7D461B",
"n c #7C461C",
"m c #7F471C",
"M c #45413E",
"N c #514033",
"B c #594434",
"V c #604026",
"C c #604027",
"Z c #60442E",
"A c #434343",
"S c #4B4642",
"D c #4B4948",
"F c #844719",
"G c #894A1A",
"H c #8A4A1A",
"J c #8A4A1B",
"K c #8A4B1B",
"L c #8B4B1B",
"P c #894B1C",
"I c #8A4C1D",
"U c #8C4D1C",
"Y c #8E4E1D",
"T c #8F4F1E",
"R c #8E4F1F",
"E c #90501F",
"W c #91501F",
"Q c #91511F",
"! c #92501E",
"~ c #93511E",
"^ c #92511F",
"/ c #93511F",
"( c #915120",
") c #935220",
/* pixels */
"                                ",
"                                ",
"                                ",
"                                ",
"                                ",
"                                ",
"              >2<<&             ",
"             DzcczS2            ",
"            ABL)/EqM            ",
"            pm(W(QUB<           ",
"            tHEE(QQlX           ",
"            sHEE(Enf-           ",
"            tJEE(Ug@O           ",
"            pJQQ(QUg%           ",
"            p68E((Ec=           ",
"            t57(((Wl.           ",
"            sFIQ(QEc=           ",
"            tJ//(Q(C%           ",
"            pJEE((nfO           ",
"            sJEQ(U4$;           ",
"            tJ/Q)(Ul.           ",
"            #9vwvwwu%           ",
"                                ",
"                                ",
"                                ",
"                                ",
"                                ",
"                                ",
"                                ",
"                                ",
"                                ",
"                                "
};
