/* XPM */
static char *Dragon_Eye1685567553[] = {
/* columns rows colors chars-per-pixel */
"32 32 217 2 ",
"   c #030003",
".  c #070108",
"X  c #0B020D",
"o  c #150E00",
"O  c #1A1700",
"+  c #0E0311",
"@  c #0E0A16",
"#  c #120315",
"$  c #15051A",
"%  c #19041D",
"&  c #120819",
"*  c #19081F",
"=  c #260A04",
"-  c #2F1511",
";  c #252300",
":  c #1E0523",
">  c #1D0B26",
",  c #0E1620",
"<  c #171729",
"1  c #1E1B32",
"2  c #210525",
"3  c #25062A",
"4  c #29072E",
"5  c #240A2C",
"6  c #280B2D",
"7  c #20122F",
"8  c #2D0733",
"9  c #2D0935",
"0  c #2F0C39",
"q  c #310736",
"w  c #300837",
"e  c #34073B",
"r  c #33093A",
"t  c #27193B",
"y  c #1A2638",
"u  c #24223D",
"i  c #2E3C36",
"p  c #591A06",
"a  c #4E161C",
"s  c #761E04",
"d  c #70240F",
"f  c #783604",
"g  c #641B32",
"h  c #584B00",
"j  c #735F00",
"k  c #3B0944",
"l  c #390D44",
"z  c #2E1D45",
"x  c #321442",
"c  c #381847",
"v  c #3B1B52",
"b  c #1D2D41",
"n  c #282B49",
"m  c #27344C",
"M  c #362B5A",
"N  c #3A2858",
"B  c #33355C",
"V  c #3F2F65",
"C  c #3C3666",
"Z  c #430A4C",
"A  c #571748",
"S  c #470B51",
"D  c #490C54",
"F  c #4F0D59",
"G  c #500D5C",
"H  c #451556",
"J  c #54165E",
"K  c #4A214B",
"L  c #42235D",
"P  c #61275D",
"I  c #560E63",
"U  c #590E65",
"Y  c #5D0E6A",
"T  c #4E1761",
"R  c #4D1B62",
"E  c #5A146B",
"W  c #541868",
"Q  c #5E1773",
"!  c #60116E",
"~  c #640F72",
"^  c #641374",
"/  c #621977",
"(  c #611D7A",
")  c #48296A",
"_  c #52216D",
"`  c #44356C",
"'  c #4F2870",
"]  c #532A76",
"[  c #582976",
"{  c #5F257E",
"}  c #5B2A7E",
"|  c #4C3776",
" . c #52377B",
".. c #6F2E67",
"X. c #732F63",
"o. c #692B77",
"O. c #61227D",
"+. c #76327C",
"@. c #2B4967",
"#. c #34436A",
"$. c #3C4B71",
"%. c #365779",
"&. c #366977",
"*. c #7A4446",
"=. c #4D447D",
"-. c #8F2102",
";. c #9A3914",
":. c #A82900",
">. c #BE3507",
",. c #AB3412",
"<. c #89292A",
"1. c #993238",
"2. c #C33500",
"3. c #C83D12",
"4. c #8B4200",
"5. c #A45804",
"6. c #856600",
"7. c #9E7500",
"8. c #8D5337",
"9. c #BC4B30",
"0. c #D94301",
"q. c #C65700",
"w. c #D54715",
"e. c #EA5703",
"r. c #F25900",
"t. c #EC6702",
"y. c #F66300",
"u. c #F76C00",
"i. c #FA6C00",
"p. c #F57200",
"a. c #FB7200",
"s. c #E87010",
"d. c #C84F2C",
"f. c #903246",
"g. c #812D79",
"h. c #82347D",
"j. c #BE564A",
"k. c #A54372",
"l. c #C14B45",
"z. c #998200",
"x. c #B48C00",
"c. c #C89500",
"v. c #FA8400",
"b. c #F98B00",
"n. c #F69200",
"m. c #F39800",
"M. c #EDAE00",
"N. c #F1A300",
"B. c #F1AB00",
"V. c #E8B800",
"C. c #5E2B82",
"Z. c #5C3386",
"A. c #543C84",
"S. c #583885",
"D. c #5B3C8B",
"F. c #663786",
"G. c #78318C",
"H. c #3E5481",
"J. c #3C6B84",
"K. c #3C7A91",
"L. c #494E85",
"P. c #53478B",
"I. c #59418E",
"U. c #594A8C",
"Y. c #465A8A",
"T. c #594591",
"R. c #574C94",
"E. c #584993",
"W. c #4C5B96",
"Q. c #555297",
"!. c #595790",
"~. c #565499",
"^. c #545B9C",
"/. c #665595",
"(. c #43668A",
"). c #45768D",
"_. c #496899",
"`. c #526393",
"'. c #546A96",
"]. c #53639C",
"[. c #526A9E",
"{. c #47789B",
"}. c #51779B",
"|. c #535FA0",
" X c #4E6DA5",
".X c #5264A3",
"XX c #516BA4",
"oX c #506CA8",
"OX c #4877A5",
"+X c #4E75AC",
"@X c #4D7BAD",
"#X c #5075A3",
"$X c #5677A7",
"%X c #4C7DB1",
"&X c #7A69AB",
"*X c #6A73AA",
"=X c #945889",
"-X c #974892",
";X c #8A56A3",
":X c #3C888E",
">X c #458495",
",X c #4E85A3",
"<X c #4D8BA4",
"1X c #4C83AB",
"2X c #4C89A8",
"3X c #5E82AE",
"4X c #4894A6",
"5X c #4A95AE",
"6X c #499DAD",
"7X c #4B84B4",
"8X c #4A8DB2",
"9X c #5587B1",
"0X c #4994B1",
"qX c #499DB1",
"wX c #48A4AE",
"eX c #47AAAD",
"rX c #49A9B0",
/* pixels */
"0X7X7X7X7X+XV J.5X[.T.I./ k 3 + + r 8 + e D U ~ / ~ / ( ( { / { ",
"0X0X7X7X7X7XW.M _.I.( E k + X 8 8 e 3 8 Z F I Y ( ( C.Z.Z.( ( / ",
"K.6X7X7X7X+XQ._ C } S # # # % w r 8 % e Z I U Y / Z.S.D.I.T.{ / ",
"B 4X5X8X+XD.Q Q x 1 % $ 8 w : w r 3 : Z Z U Y ~ C.D.D.E.~.|.E.D.",
"N J.8X+XZ./ ^ D X . 8 w e 3 # q 4 X 4 k Z U ^ C.Z.E.E.~.%X%X^.E.",
"A.M +XD.^ ! k + # 4 3 3 3 % 2 8 5 : 8 k S D I _ A.E.~.].%X7X.XE.",
".XN ` ( Y 3   $ q 4 2 8 S E D._.].].A.H x 6 3 4 M R.+X7X8X7X+XR.",
"%XD.v 4 %   X 3 2 q J ( D.#XwXrXwXqX8XOXE.] 0 + > M W.7X0X0X%X~.",
"|.D.Q 3     % X q ! F.Q.4XrX4X>X<X<X,X1X].D.S.) $ & %.5X5X5X XD.",
"D.Q Y $   3 8 q ! / E.<X>X/.-XF.o.+.+.+.h.g.o.[ N . n @X@X5X^./ ",
"C.~ k . 2 6 6 E ~ / U./.G.+.K a d ;.,.3.w.3.2.<.7 X z I.}.wX^./ ",
"C.D + + # . Z U./ Q F.P A s = = q.a.p.u.u.r.0.k.'.x c >XeXeX[.} ",
"M @   . : : N U.~ A g -.>.2.s O c.v.v.v.a.i.w.-X*X) ` wXwXqXXXD.",
"S + < 8 e 4 ` '.C.g -.2.0.t.x.; h 6.n.n.v.i.9.;X}.Z.L (.2X1X=.P.",
"E & 1 e 8 $ N !.F.a :.2.r.m.V.h   O c.N.b.t.k.&X1XD.R (.6X<XT M ",
"] & b 4 4 + < =.A s 2.r.v.m.B.x.O   j N.v.d.-X3X%XD.| 6X6XOXQ 3 ",
") + y 7 q q % u K p 2.y.n.N.V.V.z.o ; c.s.-X;X8XoX[ x %.@X].A.l ",
"Z 3 , x e % # c K p >.u.v.B.M.M.V.7.O j l.;X3X8XoX .&.).[. .L r ",
"~ e , t 4 2 < [ c i 4.r.i.b.m.n.N.n.5.*.=X$X7X@XU.'.eXeXwX+Xm 3 ",
"/ e < 7 % 5 @.F.P - 8.9.e.i.a.a.a.s.j.;X3X7X@XQ.N &.5X5X0X7X@.* ",
"] & n 9 8 n OXD.O.O d 8.2.0.e.w.l.=X*X8X%X+X~.S.m $.^.OX.X_.n : ",
"t & z q x _.7X^.F f 4.<.f.1.f./.*X9X8X+X~.Z.} `.4XwX}.] H l $ 1 ",
"X k k 3 ` 7X8X^.w f d.+.x N C .XoX.X.XR.} R x Y.6X5X XW : @ y @.",
"Z Y k k P.8X5XS.- 1.X.6 w ] R.E.Z.C.Q H m :X:X`.1X[.D.E : y OX{.",
"~ ~ Y / .X0X<XR a ..t y B K _ W I ] C y J.qX8X%X].S.E e > #. X^.",
"~ ~ O.R.^.2X,XH 8 L L.OX0X{.{.&.m {.qX{.XX1XXXD.D.Y e < b B V Z.",
"^ ^ D.Z.T.#X4XL. . X%X7X7X8XqXeX>X+X8X5XP. .D.C.Q w > %.%X%XH.x ",
"~ ( Z.T.T.^.5X5X+X|.+X7X7X5X0X<X}.^.^.^.} k l k e + C oX%X^.C : ",
"F ( D.T.E.T.~.^.T.Z.oX7X@X#XU.O.E R } { ^ k : 1 m @.z M A.S.8 . ",
"S { D.D.Z.D.D.D.Z.C.D.L.C./ ~ ~ F 3 U ~ k 4 t _.%X%XOXL.v G 4 + ",
"l W } Z.Z.C.C.C.O.~ Z 9 Y E G S e 3 4 e , , v C ~.%X^.| > 8 : S ",
"> 0 H T / ^ ^ ^ ~ Y 4 Z D k e w w 4   b K.OXW.C v Z.' l : w D ~ "
};
