/* XPM */
static char *result[] = {
/* columns rows colors chars-per-pixel */
"40 40 180 2 ",
"   c #B9B9B9",
".  c gray78",
"X  c #C0C0C0",
"o  c #C5C5C5",
"O  c gray74",
"+  c #C6C6C6",
"@  c gray77",
"#  c gray",
"$  c gray72",
"%  c #C8C8C8",
"&  c gray70",
"*  c gray83",
"=  c #CDCDCD",
"-  c LightGray",
";  c #CBCBCB",
":  c #D2D2D2",
">  c #D5D5D5",
",  c gray80",
"<  c #989898",
"1  c gray59",
"2  c #979797",
"3  c gray56",
"4  c #343434",
"5  c #8D8D8D",
"6  c #C1C1C1",
"7  c gray75",
"8  c #CECECE",
"9  c #A0A0A0",
"0  c #838383",
"q  c #252525",
"w  c gray14",
"e  c #232323",
"r  c gray10",
"t  c #1B1B1B",
"y  c #222222",
"u  c #818181",
"i  c gray65",
"p  c gray82",
"a  c gray79",
"s  c #D0D0D0",
"d  c #CACACA",
"f  c #BBBBBB",
"g  c #2C2C2C",
"h  c #161616",
"j  c #181818",
"k  c gray9",
"l  c #3F3F3F",
"z  c #C3C3C3",
"x  c gray76",
"c  c gray48",
"v  c gray11",
"b  c gray55",
"n  c gray52",
"m  c gray19",
"M  c gray25",
"N  c #808080",
"B  c #AFAFAF",
"V  c #A2A2A2",
"C  c gray73",
"Z  c #B2B2B2",
"A  c gray23",
"S  c gray32",
"D  c gray71",
"F  c gray24",
"G  c gray43",
"H  c gray42",
"J  c #3C3C3C",
"K  c gray13",
"L  c #A7A7A7",
"P  c gray36",
"I  c gray63",
"U  c gray22",
"Y  c #151515",
"T  c gray45",
"R  c #939393",
"E  c #191919",
"W  c #8E8E8E",
"Q  c #B4B4B4",
"!  c #B7B7B7",
"~  c gray16",
"^  c #373737",
"/  c #ACACAC",
"(  c #1E1E1E",
")  c gray33",
"_  c gray66",
"`  c #898989",
"'  c #272727",
"]  c #535353",
"[  c #505050",
"{  c gray26",
"}  c #909090",
"|  c #7C7C7C",
" . c #1D1D1D",
".. c gray34",
"X. c gray17",
"o. c #2D2D2D",
"O. c #A5A5A5",
"+. c #797979",
"@. c #AAAAAA",
"#. c #484848",
"$. c gray21",
"%. c #A9A9A9",
"&. c #6F6F6F",
"*. c #4E4E4E",
"=. c #2A2A2A",
"-. c #626262",
";. c gray39",
":. c gray35",
">. c gray30",
",. c gray46",
"<. c #282828",
"1. c #8B8B8B",
"2. c #777777",
"3. c #444444",
"4. c gray18",
"5. c #3A3A3A",
"6. c gray20",
"7. c #848484",
"8. c gray61",
"9. c #7E7E7E",
"0. c gray40",
"q. c #515151",
"w. c #6A6A6A",
"e. c gray64",
"r. c #393939",
"t. c #4B4B4B",
"y. c #BCBCBC",
"u. c #6C6C6C",
"i. c #5D5D5D",
"p. c #7B7B7B",
"a. c gray15",
"s. c #4C4C4C",
"d. c gray67",
"f. c #868686",
"g. c #202020",
"h. c gray62",
"j. c gray50",
"k. c #959595",
"l. c #AEAEAE",
"z. c #888888",
"x. c #9D9D9D",
"c. c #555555",
"v. c #767676",
"b. c #B6B6B6",
"n. c gray49",
"m. c gray69",
"M. c #646464",
"N. c #9F9F9F",
"B. c #3E3E3E",
"V. c #464646",
"C. c #A4A4A4",
"Z. c gray31",
"A. c gray12",
"S. c #494949",
"D. c gray29",
"F. c #434343",
"G. c #2F2F2F",
"H. c #9A9A9A",
"J. c #585858",
"K. c gray68",
"L. c #B1B1B1",
"P. c #747474",
"I. c #656565",
"U. c #313131",
"Y. c gray53",
"T. c #727272",
"R. c gray51",
"E. c #9B9B9B",
"W. c gray44",
"Q. c #676767",
"!. c gray37",
"~. c gray60",
"^. c #353535",
"/. c gray27",
"(. c #5F5F5F",
"). c #929292",
"_. c #565656",
"`. c #323232",
"'. c #686868",
"]. c gray84",
/* pixels */
"  . X o O + @   . o @ # + + $ % o . # & & # . o % $ + + # o + . $ o + # o X +   ",
"+ * = - ; * : + > - : , * * # < 1 2 3 4 4 3 < 1 2 5 + * ; : - > + : * ; : = * + ",
"6 = . , @ = , 7 8 = ; o . 9 0 q w w e r t y q w q w u i @ ; = 8 7 ; = o , . 8 X ",
"o : , p a : s @ - p s d f g h j j j k j j k j j j h k l + p : - z s : d p , - o ",
"O ; @ a x d a O ; d a x z c v l b 5 n m k M 5 b 5 N 4 M 7 a d , O a ; x d @ , O ",
"+ * = : ; * : B @ - : ; - ; V C - z Z A j S O C 8 @ D D d : - * o 7 p ; : = > + ",
"@ : ; p a p : F G p s d : p z * : H J K j q M l L @ : p a s p - z P X a s ; : @ ",
"  o 7 @ O I U Y j T o O z Z R r E j h k k Y h k j r W Q O z o ! ~ h ^ / @ X + $ ",
". > 8 - . l j ( ) 2 - _ ` ' k E E E A ) ] [ { j E k E 4 } ! * |  .j j ..- 8 > + ",
"o - = : b X.j o.- : O.^ j j k ^ +.c @.: : ;   +.c K E j k #.I - c k j $.O.= * o ",
"@ : ; %.U j k &.: O.*.k j =.-.b : * d p p d - p * &.;.y k k #.! x :.e k >.Q : @ ",
"# , @ ,.k k Y ! O.$.k h <.1.! a a , z ; ; z , d a   X 2.t k k 3./ 9 4.h h R d # ",
"+ * i g k E k 5.6.j j ' 7.8.F M 9.8 ; - - ; > . 0.A l q.w.y j E ^ ^  .k j F e.+ ",
"o + u k k r.M k j j =.` t.<.k j y n y.- - ; % u.( h j  .i.+.o.j h K J m j K p.X ",
"$ 5 w h a.I X k k k -./ ^ k Y k k E N @ @ O R E k Y k k s.$ G k Y 5.d.f.g.h r I ",
". < q j 5 > > E j ^ b :.E j k E E E ` * * , h.E E k j E j j.k.=.k M y., &.j E l.",
"  ..( j b . z.j j +.: } g j k E j E z.- - ; x.j E h j j r.L : ] k l f d G j E / ",
"X x.,.c.C O M k {   - % M j k E E v.b.u.[ n.+ P E k j 4 _ - * m.a.w M.a b.< h.X ",
"# ; & i x Q F Y [ d a 6 1 &.r r S   6 M t :., %.` w a.z.x a d , X.j J # a o ; # ",
"+ * = : ; f l k ] - : ; - d N./ 7 * d & d.& * - * e.B 8 ; p - * o.j B.+ : = > + ",
"o * = : ; f l h V.@.@.C.d.d.N./ @./ C.@.d.O./ @./ N.d.d.C.%.@./ <.j B.+ : = * + ",
"# , o d z Q F Y j r r E r r j t r r E r r E r r r j r r E r r r h k J # a o , # ",
". z 8.b., y.M k =.Z.$.k A.S.D.l E E r.[ [ s.M j E 3.[ 3.j j 6.~ k j l . b.8.z . ",
"o 1 w F.d.f l h ] : i U G.# @ H.j j z.- : d 8.j E m.: d.t D.V ] k g | % G  .J.C ",
". < q j 5 8 L E X.k.* :.m X + 8.E E ` > > , h.E E & * K.t 9.* ) k M O , &.j E B ",
"$ b y h N z @ k k &.6 S g L.b.} k k 9.@ @ y.R k k C.@ 9 E P.x s.Y A B f I.h r I ",
"+ x.U.j 4 O.# j j o.+.q.G.# @ H.j E Y.- - ; x.j E L.- d.t T.R.q k A %.5 X.y p.X ",
"+ = 5 j j X.G.k j j y A.G.# @ E.j E z.* - ; x.j E L.- / t w w j h  .g a.j w 2 + ",
"O ; i r.h k k q.:.^ k h o.b.y.k.j k R.; ; z 1 k j %.d O.E k j j t.D.g.h k s.O.# ",
"@ : , c k j h 6 - W.h k y +.6   t.E Y.: : a 8.j E m.. Q.E k k !.  @.m k k ~.: @ ",
"o - = O.^.j k c * 9 #.k j o.G p.#.E z.- - ; x.j E 0.G w j k 3.D z ;.q k #.& * o ",
". > 8 - ..j j ( | * $ } 4 j h j E j F $ * ; x.j j h j j /.2 D > P k j F.$ 8 > . ",
"$ + 7 @ / ^ k Y ( | @ y.I =.k k k k h <.o.X.a.k k Y E U K.@ o (.j k k S @ 7 o $ ",
"@ : , p a X (.k q 1.s a : : Q M l w k j j k j g M B.Z - a s p - s.g.J.+ s ; : @ ",
"+ * = : ; s X J 0.. p ; * - x O f M.A g.E a.l | O B 8 - ; p - * B ..m.d : = * o ",
"# , o d x ; a   % d a x z ).R.9 d a f J k _.. . , ` b ~.6 a d ; O + d x d o ; O ",
"o : , p a : s @ - p p a y.g h `.G &.'.X.j $.&.G &.g.j l + s : - @ s : a p ; - @ ",
"X 8 . , o = ; X 8 , ; o   ^ g.j j j h j j h j j j h K #.x ; , 8 X ; = @ , . = X ",
"+ > = - , * p + ].- : ; , x.j.r E E j E j j E E E r p.C.; : * > + : * ; - = > . ",
"  + 7 o # + o $ . + @ # + + D B K.B L l.l.L B K.B V 6 + # o + . $ o + O o X +   "
};
