/* XPM */
static char *result[] = {
/* columns rows colors chars-per-pixel */
"40 40 216 2 ",
"   c #2A1A1A",
".  c #3B1414",
"X  c #321515",
"o  c #3F0D3F",
"O  c #222222",
"+  c #2C2C2C",
"@  c #2F2323",
"#  c #312121",
"$  c #382825",
"%  c #333333",
"&  c #3B3B3B",
"*  c #4B0000",
"=  c #480707",
"-  c #520000",
";  c #5A0000",
":  c #5D1515",
">  c #640101",
",  c #6B0000",
"<  c #750000",
"1  c #7C0000",
"2  c #6F1616",
"3  c #572626",
"4  c #483838",
"5  c #563B3B",
"6  c #482020",
"7  c #692929",
"8  c #7A2626",
"9  c #762726",
"0  c #683939",
"q  c #763E3E",
"w  c #753636",
"e  c #77322D",
"r  c #735B1E",
"t  c #574232",
"y  c #747011",
"u  c #440044",
"i  c #4B004B",
"p  c #4C0A4C",
"a  c #400E40",
"s  c #481548",
"d  c #5C1844",
"f  c #510051",
"g  c #530C53",
"h  c #570058",
"j  c #5A005A",
"k  c #5A0E5B",
"l  c #551455",
"z  c #561956",
"x  c #5A145B",
"c  c #591C59",
"v  c #671945",
"b  c #492549",
"n  c #442644",
"m  c #483748",
"M  c #532254",
"N  c #552E55",
"B  c #5D245D",
"V  c #5B2A5B",
"C  c #5C345C",
"Z  c #573757",
"A  c #6F2542",
"S  c #5E0161",
"D  c #620064",
"F  c #66006A",
"G  c #6B006C",
"H  c #6D0071",
"J  c #740076",
"K  c #761778",
"L  c #69126D",
"P  c #622662",
"I  c #632B63",
"U  c #682D6A",
"Y  c #682668",
"T  c #623A62",
"R  c #683569",
"E  c #6F2270",
"W  c #763777",
"Q  c #424242",
"!  c #4C4C4C",
"~  c #594359",
"^  c #524652",
"/  c #515151",
"(  c #5E5E5E",
")  c #5B535B",
"_  c #5E4646",
"`  c #674D4D",
"'  c #714B4B",
"]  c #7A4949",
"[  c #665454",
"{  c #7E5353",
"}  c #7D6550",
"|  c #644D64",
" . c #6A476B",
".. c #695669",
"X. c #744474",
"o. c #744B74",
"O. c #784C78",
"+. c #725E72",
"@. c #7A5C7A",
"#. c #725572",
"$. c #744668",
"%. c #646464",
"&. c #6B696B",
"*. c #6D636D",
"=. c #756565",
"-. c #6F6270",
";. c #756475",
":. c #7C737C",
">. c #767575",
",. c #860000",
"<. c #8D0000",
"1. c #930000",
"2. c #9B0000",
"3. c #971313",
"4. c #A70F0F",
"5. c #B30000",
"6. c #A41212",
"7. c #A91313",
"8. c #B71414",
"9. c #942F18",
"0. c #B92213",
"q. c #8B2323",
"w. c #822C2C",
"e. c #8A2A2A",
"r. c #932D2D",
"t. c #962928",
"y. c #8A3333",
"u. c #A22B2B",
"i. c #AA2E2E",
"p. c #B32C2C",
"a. c #A33232",
"s. c #BA3A3A",
"d. c #CA2C2C",
"f. c #9C510F",
"g. c #844E1E",
"h. c #905017",
"j. c #865E15",
"k. c #B45400",
"l. c #BA5700",
"z. c #A85308",
"x. c #B96F17",
"c. c #834729",
"v. c #A15D22",
"b. c #9F632F",
"n. c #8A6932",
"m. c #A66A36",
"M. c #E1791B",
"N. c #834C4C",
"B. c #834444",
"V. c #8B5454",
"C. c #855B5B",
"Z. c #885656",
"A. c #975A5A",
"S. c #974848",
"D. c #A15D5D",
"F. c #AB5A5A",
"G. c #B25A5A",
"H. c #B95A5A",
"J. c #B35353",
"K. c #9A6C43",
"L. c #997657",
"P. c #8D6D50",
"I. c #A5754A",
"U. c #A07C5D",
"Y. c #856767",
"T. c #8A7575",
"R. c #957979",
"E. c #997D7D",
"W. c #927676",
"Q. c #947067",
"!. c #AB6262",
"~. c #B06464",
"^. c #875471",
"/. c #C45A5A",
"(. c #BDB612",
"). c #C38100",
"_. c #B4845A",
"`. c #958679",
"'. c #A78465",
"]. c #7E0081",
"[. c #810083",
"{. c #885D88",
"}. c #826B82",
"|. c #886788",
" X c #8A768B",
".X c #857A85",
"XX c #937D94",
"oX c #9B799C",
"OX c #976499",
"+X c #838383",
"@X c #8B828B",
"#X c #8D8D8D",
"$X c #8C8282",
"%X c #968B8B",
"&X c #978787",
"*X c #928292",
"=X c #968A96",
"-X c #929292",
";X c #9C9C9C",
":X c #9E9497",
">X c #9D938A",
",X c #A38E8E",
"<X c #B69D87",
"1X c #A69A98",
"2X c #A18C96",
"3X c #9F99A0",
"4X c #A89EA8",
"5X c #A4A4A4",
"6X c #ACABAC",
"7X c #AFA9A4",
"8X c #B4B4B4",
"9X c #BBBBBB",
"0X c #B8AEAB",
"qX c #C2A992",
"wX c #C2C2C2",
"eX c #C9C9C9",
/* pixels */
"& Q t Q Q Q Q Q Q Q & 4 Q Q Q Q Q ! Q Q t & Q & Q Q ! Q ! m Q & % & Q ! Q Q 4 % ",
"c.0.7.7.3.6.6.3.Q / 8.7.6.6.6.6.7.7.7.7.6.7.3.Q ! 8.8.8.7.8.6.6.4.4.3.6.6.3.9.t ",
"(.x.H.H.F.G.F.A.>.+X/.F.F.G.G.F.F.G.!.G.F.H.A.>.>.!.G.H.G.H.F.F.G.G.F.A.F.J.x.y ",
"n.r >.>.+X+X+X+X+X+X+X+X+X+X+X+X+X+X+X+X+X+X+X.X+X+X+X+X+X+X+X+X+X+X`.+X>.>.j.r ",
"e q.#Xd.7 _ w 9 9 8 8 8 8 8 8 8 8 8 8 8 8 8 8 8 8 8 8 8 8 8 8 t.d.s.0 3 >.-X; $ ",
"9 t.;X8 6X=.:.7X8X5X8X9X8X8X8X8X8X8X8X8X8X8X8X9X8X8X8X8X8X5XXX8X9X$X&.5XJ.>.= @ ",
"4 [ 9X5 5X5X#X#X@XI  X0XwX9X8X9X8X4X;X=X=X2X<XqX8X8X9X8X3X+.k XX5X;X5X5X' #X  + ",
"t.S.wX5 -X8X5X+X*.p h R XX8X9X9X9X{.C g B A l.M.0X8X5X}.B h s .X;X5XwX-X[ ;X= 2 ",
"2.r.wXe.-X;X-XP %./ p i f D  .*X7X;Xf f f v L.6X XP D h f p (  .B ;X6X+X` 8X- 1.",
"<.u.9Xu.;X#XU F x ^ ^ n u F h k X.8Xf f f Y 8XP S h D i 4 ) Z j F W -X+XN.6X; < ",
"1.r.8Xr.8X;XC i F F l b o o u B @X5Xf f i P 5X:.l i u a n p h F H  .+X#XV.8X- 1 ",
"1 e 8Xy.wX=X%.b k F F S h u i R }.*Xi f f x *X#.T u u f i h D L R &.:.;XV.8X- , ",
". 5 8Xw.eXc N / ! M F F G i i i P -Xf f f B -Xi u i f D h S R -.( n N ;XZ.8XX . ",
"` C.9Xy.eXS f i o m m T S h i i i f f f f f i i i i f D ~ ;.| g u o u 6XA.8XX + ",
"u.p.eXa.wXS h i u u u j H h f i f f f i f f i i i f h J h j i i u u h 1XA.8X- # ",
"q.i.9Xr.5X+.c f u u i i D h f f f N U W W R N f h h j H h i u u u b >.5XA.8X- # ",
"e.i.8Xw.O.C ~ T Z N n s h j D f i C [.H J ].~ h j F S j N b s n n ~ U oX!.wX- # ",
"e.t.5X9 Y f j j f i i i i f D h f C ].H H K ~ h S D h h i u u u i h S OX!.eX- # ",
"7 y.3X7 P f h f h i f f g f i g f N K Z ].E N f l h f g i u i u i h G {.D.9X= @ ",
"/ %.6X7 -.f f f f f ~ z g i N g f Z ;.)  .&.N h l M f p l ^ i i f h D @XA.8XO + ",
"5.p.8Xw.6XT.o.o.[ T i f f T g f f f g T C p f f f c V i u i T | o.O..X5XZ.6X- 2.",
"1.r.8Xw.8X X#.P l f f g V l f g g f f f f f i l z f z V i i f x Y ;. X;X{ ;X; < ",
"<.r.8Xw.8Xf f f i f f V c f V +.V f f f f f f T :.z f c V f f h h h i -X' -X; < ",
"<.r.8Xy.8XT f f f f T l f g @.f f f i f i f f f i o.g f l V f h h h +.;XN.;X- , ",
"* 7 8Xr.8X@Xz f i T l f i g g f f f f f f f f i f x g f f l V h h l ;X6XC.8X- - ",
"& %.eXa.eX9X=Xo.@.B f f P oXj f i f V f i c f f f D |.I f f  .@.o.;X8X8XA.8XO + ",
"w.s.wXa.wX9X8X6X:XQ.P X.;X1X$.f f f z f f g f f i ^.5X:XU P Q.1X6X8X8X9XA.9X= $ ",
"t.p.8Xr.8X8X8X8Xb.k.I._._.b.e g g o.f f f x o.i v 9.m._._.K.k.I.9XwXeXeX~.eX- # ",
"q.i.8Xr.8X8X8X8X1X} f.k.k.g.P.8X6XX.f f f f X.8X8Xn.h.k.k.h.} 5X8X9X9XwX!.9X- # ",
"t.p.6Xw.6X6X8X8Xv.g.m.z.L.P.f.;XR f f f i f f X.6Xf.L.L.k.I.g.I.8X8X8X9XA.9X- @ ",
"8 t.6Xw.8X6X6X6X`.1X_.n.8X-X#.l i f f f f f f f z ;.;X8Xg.<X;X>X8X8X8X8XA.8X*   ",
"5 ` 8X8 6X8X8X8X8X9X1X'.XXC f f g B I f f I B i f g C XXI.7X8X8X8X8X8X5XZ.8X  + ",
"q.S.8XA $X6X9X8X8X8X8X8X5XT.N f T -Xf f f P -XV i C .X5X8X8X8X8X8X8X6XY.C.8X. 2 ",
"1.2 `.8XB.8 { R.,X6X8X8X8X8X8X8X8X}.f f i f }.8X8X8X8X8X8X8X5X,XE.C.8 C.;XR.- > ",
"1.> : >.6X5X,X&X] 8 C.;X8X8X8X8X8X7XC f f  .6X8X8X8X8X8X;XB.9 { &X,X6X5X=.: ; < ",
",.1 , - 3 ] Y.-X8X6XR.N.A Z.%X6X8X8X6X| ;.6X8X8X7X`.V.A V.&X6X8X#XZ.3 - ; ; ,.1.",
",.,.1 1 , > > : q =.&X>X1XW.Z.V.Z.T.,X;X;X,XT.N.V.C.R.>X-X-X&.0 : ; > , 1 , 1 < ",
", > , ; ; > , - - - * % ( #X6X6X%XV.q N.B.q V.;X8X#XY.' 6   + = * ; ; , , , > > ",
"% % % % % % % % + + + + O O O % %.#X;X8X6X;X-X( + O O O O O + + % % % % + + + % ",
"/ / / ! ! / / / ! / ! ! & % % O O O % Q Q + O O O O + % & Q ! / / / / / ! ! / / "
};
