/* XPM */
static char *Textures_16__3___1_1667942743[] = {
/* columns rows colors chars-per-pixel */
"50 50 24 1 ",
"  c #C36E3E",
". c #C36F40",
"X c #C37445",
"o c #C57748",
"O c #C67D4D",
"+ c #C77F50",
"@ c #C7804F",
"# c #C8804F",
"$ c #C68153",
"% c #C98555",
"& c #C58558",
"* c #C6895C",
"= c #CA8C5C",
"- c #C88D60",
"; c #CB9262",
": c #C99669",
"> c #CA996C",
", c #CA9D72",
"< c #CCA275",
"1 c #CCA679",
"2 c #CCA97E",
"3 c #CCAD82",
"4 c #CCB087",
"5 c #CDB188",
/* pixels */
"3333545452211221123344434334443311111111111221<1<<",
"4333333321<<<<<,<<<234344343333,<<<<<<<<<<<<,<<111",
"4321,,>>>>>;;;;;:::>,,334333,,::>;;;;;:;:;;;::,,11",
"431:-&&&%%%%%%%%+$%&-:,3443,:--+%%%%%%%%+%%%+&:,23",
"43,-oXXXO oo O  XXXXo*>3443,*oXXo O .oo.ooX.Xo*,33",
"43,&X..X  o O # XX  .&>3443,*X.... Ooo.oo.X..X&>24",
"43,*oXX+#OO#####+OX.X&,3453,*oXX########++oX..&>13",
"43,-+O+&%=%=%%%%&%oXX&>3443,-+O+#======%&&%OXX+:<1",
"43,-$+$==========&+XX&>3553,-++&==;;;===;=*OXX+:<1",
"43,-#+%=;;=;;=;;=&OXX&>3553,-++&=;;;;;==;==$XX+:<1",
"43,-#+%;;=;;=;;==*OXX&>3553,-++&=;;=;;;;;;*$XX$:<1",
"33,-$#%=;;;;;;;;=*+XX&>3443,-++%=;;=;;;;;;-$XX+:<1",
"31>=$@%;;;;;;;=;;=OXX$:1333<-++%=;;;;;;;;;=#XX&:<1",
"11>*$@%;=;;;;;;;;=#XX$:<333,-+O%%;;;;;;;;;=#XX$:<1",
"1<:*+@%=;;;;;;;;;=#oX$:<233,-+O%==;=;;;;;;=#XX$:<1",
"1<>*+#%;;;;;;;;;;=#oX$;<333,-++$%==;;;;;;;=%XX$-<<",
"1<:=O$%;;;;;;;;;;=%XX+:,333,-+O$===;;;;;;;=#oX$:<1",
"1<:*@@%==;=;==;;;=#XX&:,333,-+O$%==;===;;;%#XX$><1",
"1<:*OO@%=%%%%%&%%%oXX+>1331>=OOO$%%%%%=%%%#O.X+>12",
"1<>*@oOO######@@#Oo X+>133<>*OOoO+#########o X&>15",
"1<>=&O$$#$$$$@$@##ooo*,342<>=$@@#++$++++###ooo*,25",
"21<>;==*====****==***:13321>:;=****%*&-&=;=***:135",
"222<,,,<,,<,>>:>,,,>,11322<<<<,>::::::>>><,,,,<124",
"444233333332111223333333221122221<<<1<,,1223333344",
"44444554434322334444544322224442331313333445544342",
"24444455333333334454544343234444333333334454544444",
"4433333321<<12333333433332433322333333333333333324",
"221<>,>>>::::>,>,>,,,,123432<,,>>,>,>>:,,>,>>,1135",
"21,:*&$&&&O&&&&&&&&&*:,2343<:*&&&&&&&*&&+-+&%=:124",
"1<:&oXXoXXXXXXXXXXX.o&:<233,*oXXXXXXXXXXXXXXXo=,24",
"1<:$X..XXXXXXXXXXX. .$;<233,*o .XXXoXXXXXXX. X%>25",
"1<:&oXoOOOO+O$$OOoX.X$;<233,*oXX+++++++++OOX X%>12",
"1<>*OO#%%=%=%====%OXX#:<333,=+O$%*========##  %;<1",
"1<:*#O%*====;;;==%OXX$;1232,=$O$==;;;;;;;==#o %><1",
"1<:=#+%=;;=;;;;===OXX$>1331>=@%%==;;;;;;;;%#oo%;<1",
"1<:*+#==;;;;;;;;=%OXX%>3321:*@@%;;;;;=;;;;=#oo%;<1",
"1<>=##%;;;;;;;;==*+XX&>342<:=$@%==;;;;;;;;=#  %;<1",
"1<;=@#%;;;;;;=;;;*+XX&>3432>=@@&=;;;=;=;;;=%oo%;<1",
"1<:=@@%=;;;;;;;;;=&XX&>3442>=$O&=;;;;;;;;;=#oo=;<1",
"1<>=O#%;;;=;;;;;;*+oX&>3443<-$O%;;;;;;;;;;=+XX%:<1",
"1<:=##%==;;=;;;;;;#XX$>1343,=$$%=;;;;;==;==#oX%;<1",
"1<:*##%%===;=;;;;=$oX$;1333,-$#%;;;;;;====%+XX%;<1",
"1<>=+O#=%====;=;;=OXX$;1233,=$$%==;======%%OXX%:<1",
"21>=#o#####%%%%%%$oXX$:1343<-Oo@%%=%%#%$%%#O.X$;<1",
"42<=OoOO#O######+OXXX&>2443<-+oO####O$+OO+OX..+:<1",
"42<;%##O########$OoXX->3443<;&+O###%##++++OoXO&><1",
"431>;===%=;=====&**&-:<34431>;=======*******&-:>22",
"4322<<>>>;>;;<;;>:,,,,3333321<,>>:::>;>>:>>>>,,322",
"3333331<<<<<<<<<<<12233433433321<<<<<<<<<<<1222424",
"43443322111111111124544343344432111111111112454444"
};
