/* XPM */
static char *_cb66cd213944c07e90148047a9df78exEhtzwzFJ8cknEGi[] = {
/* columns rows colors chars-per-pixel */
"40 40 239 2 ",
"   c #2A3642",
".  c #39434D",
"X  c #3D4B53",
"o  c #3C4C5A",
"O  c #374756",
"+  c #3A5258",
"@  c #3E5561",
"#  c #3F4F66",
"$  c #424C54",
"%  c #444B5D",
"&  c #4B4E57",
"*  c #43545C",
"=  c #4A545B",
"-  c #475559",
";  c #4B5163",
":  c #425A65",
">  c #4A556C",
",  c #4C5B6C",
"<  c #465667",
"1  c #555A6A",
"2  c #545662",
"3  c #455974",
"4  c #4C5C73",
"5  c #475878",
"6  c #565D74",
"7  c #4E4862",
"8  c #655C71",
"9  c #635F6E",
"0  c #4B616E",
"q  c #47616E",
"w  c #54646D",
"e  c #5A656D",
"r  c #4E6171",
"t  c #4C637C",
"y  c #4A6477",
"u  c #546574",
"i  c #5C6473",
"p  c #5A6A76",
"a  c #53657B",
"s  c #5B657B",
"d  c #556A7C",
"f  c #5B6C7C",
"g  c #526876",
"h  c #5B737B",
"j  c #64676D",
"k  c #636474",
"l  c #646C7D",
"z  c #686875",
"x  c #716574",
"c  c #66737E",
"v  c #75747D",
"b  c #485F81",
"n  c #4D6583",
"m  c #4D6788",
"M  c #546C84",
"N  c #5C6D83",
"B  c #536C8A",
"V  c #5B6C8B",
"C  c #566783",
"Z  c #5D7285",
"A  c #56728D",
"S  c #5B738B",
"D  c #597687",
"F  c #546D92",
"G  c #5A6D91",
"H  c #566B95",
"J  c #5B7392",
"K  c #5D7992",
"L  c #5C759B",
"P  c #577496",
"I  c #646C85",
"U  c #647382",
"Y  c #6A7584",
"T  c #63758C",
"R  c #6A768B",
"E  c #637A8D",
"W  c #6C7B8D",
"Q  c #6A7B83",
"!  c #7E7585",
"~  c #747C84",
"^  c #7B7A84",
"/  c #737B8C",
"(  c #777789",
")  c #637A93",
"_  c #6A7C94",
"`  c #62769F",
"'  c #627A9A",
"]  c #677797",
"[  c #757795",
"{  c #647AA2",
"}  c #857B8B",
"|  c #857D92",
" . c #867995",
".. c #76838A",
"X. c #6C8698",
"o. c #738493",
"O. c #7C8594",
"+. c #758994",
"@. c #7B8D95",
"#. c #74839B",
"$. c #7B8399",
"%. c #7C8D9D",
"&. c #758D99",
"*. c #7C929B",
"=. c #7C8DA3",
"-. c #7488A4",
";. c #7C93A4",
":. c #7594A7",
">. c #7E9BB2",
",. c #6982A0",
"<. c #85888B",
"1. c #838493",
"2. c #8D8293",
"3. c #8E8A95",
"4. c #858B99",
"5. c #868A9B",
"6. c #94869C",
"7. c #938C9C",
"8. c #89949E",
"9. c #95929D",
"0. c #98909F",
"q. c #9AA199",
"w. c #838DA2",
"e. c #838EAB",
"r. c #888FA1",
"t. c #978BA3",
"y. c #8193A4",
"u. c #8993A3",
"i. c #8B99A4",
"p. c #8493AB",
"a. c #8599AC",
"s. c #8B9BAB",
"d. c #8698A6",
"f. c #9D9BA3",
"g. c #9796A8",
"h. c #8E9BB1",
"j. c #8A9AB4",
"k. c #939DB1",
"l. c #A294AA",
"z. c #A59EB0",
"x. c #9AABAC",
"c. c #98A4AC",
"v. c #8EA2B3",
"b. c #8FABB6",
"n. c #8BA8BC",
"m. c #9DA4B1",
"M. c #96A8B8",
"N. c #91AAB5",
"B. c #A4A9B8",
"V. c #ACB4BD",
"C. c #A4B4BA",
"Z. c #B4B6BC",
"A. c #AEA8B3",
"S. c #9BA8C1",
"D. c #96B4C4",
"F. c #9DB5C4",
"G. c #9DBAC5",
"H. c #9DBACC",
"J. c #9CB3CA",
"K. c #97B3CA",
"L. c #A3BCC6",
"P. c #AABBC5",
"I. c #A3B5CA",
"U. c #A2BDCB",
"Y. c #AABCCC",
"T. c #A7B5C7",
"R. c #B9B9C4",
"E. c #A3BDD2",
"W. c #A9BFD7",
"Q. c #B0BCD2",
"!. c #A3ADC6",
"~. c #C3BFCA",
"^. c #9FC1CB",
"/. c #A5C1CC",
"(. c #ABC3CE",
"). c #B7C4C7",
"_. c #A5C2D2",
"`. c #A9C3D3",
"'. c #AAC8D9",
"]. c #B2C5D5",
"[. c #B2CCDC",
"{. c #B7C8D7",
"}. c #B6D0E6",
"|. c #C8CDCE",
" X c #D3D7CE",
".X c #C4CBD5",
"XX c #C8CCD9",
"oX c #CDD4D9",
"OX c #CCD6D9",
"+X c #D4D4D5",
"@X c #D9D6D5",
"#X c #D5D9D3",
"$X c #DBDAD5",
"%X c #D3D4DB",
"&X c #D9D6DB",
"*X c #D4DADC",
"=X c #DDDCDD",
"-X c #D0D0CD",
";X c #E2DDD6",
":X c #E1DDDC",
">X c #DDE2DC",
",X c #DEE0D3",
"<X c #E3E2DD",
"1X c #E5E9DA",
"2X c #C5D3E4",
"3X c #CDDBE4",
"4X c #CAD4E5",
"5X c #D4DBE4",
"6X c #DBDDE2",
"7X c #DBDEEA",
"8X c #D8D7E4",
"9X c #CADFF1",
"0X c #D3DEF0",
"qX c #E2DEE3",
"wX c #E2DEED",
"eX c #DDE1E4",
"rX c #D6E2EC",
"tX c #DCE3EA",
"yX c #D9E6E5",
"uX c #DBE4F2",
"iX c #D9E8F7",
"pX c #CDE2F0",
"aX c #E3E3E4",
"sX c #E9E5E3",
"dX c #E5EAE5",
"fX c #E4E4EA",
"gX c #E9E5EB",
"hX c #E5EAEC",
"jX c #EAEAEB",
"kX c #E8F1EC",
"lX c #E2E6F2",
"zX c #E3ECF4",
"xX c #ECEAF4",
"cX c #E3EDFC",
"vX c #EAE9F9",
"bX c #E5F1F9",
"nX c #F2FFFF",
"mX c #F4F3FA",
"MX c #F1EDF1",
/* pixels */
";X1XsX#XfXhXoXjXgX&XsX@XqXqXqX8X6XgXqX&X6X8X8XgXgXA.z v f.=XhX6X&XeX#XaX#X>X>X>X",
";X;X#XaXtXeX%X*X$X@XsX:XqX:XqXqX6X&XqXgXqXfXwX&XmX! 9.3.} 9.~.fXgX#XjX@X>X<X$X>X",
":X:X&XhXOX5XhXhX=X$XsX:X:X&XqXqX=X=X:X&X:X$X&X=XgX2.7.2.0.} } ~.aX=XdX+XaX>X=X>X",
";XsXsX6X.XzX5XoXfXsX&X:X:XqXgX*X<X$X$X$X=XsXgX6XgXz.v l.t.7.6.! R.jX#XaX=X$XaX$X",
":X>XeXOXtXzX8.~ |.aX&X:X:XaXaX=X>X#XkXkX X XaX+XwX&X|  .6.6.l.} 9.@X$XgX&X$XsX$X",
":X$X6XyXbXP.i e 8.*X6X:X6X=X6XeX>X>X).).kX1X+XjXqXxX~.! l.6. .z.<.l.jX=X&XqX=X=X",
"6X6XeXuX3XW f l ~ 6X6X=XaX=X=XtX3Xx.e ..yXkXOXzXwXXXwXz. .t.l.6.3.^ &X6X$XfX&XqX",
"=XaX5XrX{.u W u / cXtX%XeXeX*XtXN.+ q &.h w i.T.8XwXvXR.! t.t.t.7.! Z.xX$XgX$X6X",
"$XaXeXiX5.d E a W cX5XtX6XOXbX3X:.K A A S Z d u s u.uX7X1 ( z.( g.v 3.jXaX+XgXsX",
"=XaX5XuXW M ) N _ 2XzX5X5XzX)...A F P L K S N X.s.s.i.B.s ( 1.B.x g.&XxX%XmX&X*X",
"<X=XyXrXZ N ) J 4 ].2XiX3XQ e g B P L F A A S ;.I.{.Y.o.i p o.O.1.9.vX%XgX&XfXfX",
":X$XtXrXN S S J M ) nX2Xo...+.Z L L H n n A S v.I.Y.T.L.f u f k.5.k 8XtXqXlX6X*X",
"<X$XfXuXT S A J L M ].&.=.{.L.y.P B J n M S Z v.M.o.h #.d.f 4 R ( $ XXR.tXZ.oXhX",
"<X$X6X5X#.M F J ' t M E [.`.L.L.K n C 3 , q r v.w o.M.< Y.d N I s 1.R.2 V.& *XyX",
":X:X6XrXv.M A P m ,.S S [.b.&.L.=.4 < O O X * *.+ * o o ].e.> > ; 4X8.. e = Z.v ",
";X:XaXzXY.V J J ' m 3 J.;.r '.h a.o o $ - ; $ / p   O s Q.#.s C !.M.i i l j 2 $ ",
"&XjX6XyXiX#.V ) V ` 5 S.f o ..* o.: + + $ & $ / k.k R Q.Q./ % d.iXP A X.;.U e B.",
"$X$X>XOX5XrX[ C ] T a M.$.  X . h h + - $ & 8 k  .T.S.j.R Y Q 2X>.F m K #.%.; B.",
"1X,X>XyXrXnXI.f T U d y.C.- $ - 8.i.c w & 2 k 9 > 6 > C r O C.h.B A ' S T u s 4.",
"1X XdX<.B.OXnXS.Z M g h P.x.x.x...6 k j 8 x 2 k l l N % ;.;.s.d A S J T f Y tXhX",
",Xq.<...$ P.L.pX9XI.T + f @.@.c k 7 8 x x x x 1.1.w.a j.:.t M M K ) M T u m.lX7X",
"|.j - e % > , _ J.'.}.I.d > : < I  . . . .x 2.7./ _ a.&.3 ) S S V N W d k.bX5X5X",
".XB.c c R ] { b m b F ` m ` -.>.6 [  .t.l.! 3.( O.y.D M -.t t ) ) d T f ].tX8X6X",
"u.1 p U j.] G { { H L { H m { -.e.[  .( ! ^ ~ ..u.*.Z S M V M T N f l XXzX5XtXeX",
"uX4X> s e.] V V ` ` ` H H L L b V N W ..8...w 8.L.L.D S S a a C p i..X5XrX6XtXqX",
"lXi.= / I > T ] B J J G G B A K B D ;.^.(.*.+ Q b.L.X.t ) S.!.B.XXrXcXhX5X6X6X6X",
"=XZ.R.tXV.8.O., Q d S X.S 4 t K A ,.^././.*.h b.F._.:.g p.cXcXwX8XeX6X6X6XaXaXaX",
"$X>XdXdXyXkX*XP.Q c h + : v.F.q X.>.'.^.G.b.b.'./._.;.g k.cX7X7X&X6X=X6X6XaX6X$X",
"1X$X X-X>XdX*XkXyX3X{.C.(.pXL., :.^.'.b.U.[./.G._.H.;.0 m.zXoX&XsXsXqX:X=XeX=X=X",
"<X#XsXsX1X#XOXOXrXeX3XbXiX;.r #.^.^.^.^.F.(._._._.'.a.0 c.xX=X<X@X;X&X:X&X:X=X<X",
":X:X:X%X:XaXmXzX5XcXiX2Xs.N ] E.F./._.'.`.I.E.E.H._.;.: x.dX$X,X;X:X<XsX1X:X=X$X",
"&XsX6X&XmXXXB.4.w.$.k.e.a _ E.`././.C./.Y.Y.W.E.E._.;.p R.sX;X<X:X:X$X;X&X:X=XaX",
"6X*XfX5X.X6 % > 5 V 5 5 ) j.'.H._./.H.G.L.L././.G.'.&.w tX=X<X:X:X=X<X=X=X>XqX=X",
"=XeX6X..= > [ 3 5 V -.B A K.H.E.E.H./.(.(././.G./.G.+.@.rXaXsX@X:X=X>X=X:X=X=X=X",
"#X<X*Xv Y r.h.-.] 3 G L m D.}.W./.G.G.H./.C.^.^.G.G.g i.zXeX@X:X<X=X=X=X=XeX=X:X",
"dX=X).e z r.w.j.-.I C _ J ,.E.H._./.H./././.^./.^.b.q /.zX&X@XgX=X6X=X<X:X6X>X=X",
"<X>X=X<.e 5.k.$.w.-.5 4 S X.M.[._.H.E.H._.U.H.H.'.X.D cXrXOXaX:X:X6X>X6X:X=X=XeX",
">X#X=Xc.z k ( h.e.6 R -.g f ;.`.E.E.E.G.H.E._.H.>.A K 9XtXtXsX@X:X=X:X6X:XeX:X6X",
">XsXaXhXOX8.i ( R R 9XcXa.f N W n.H._.U.E._.H.S.M A A ;.4XhX*XqX6XeX:X=X=X6X:X>X",
"$X>X#X=XeXvX.Xl l 2XiXuXiX{.d.q M :.K.H.H.J.:.C A X.A @ m.rXgX:X:X=X=X>X=X>X6X:X"
};
