/* XPM */
static char *result[] = {
/* columns rows colors chars-per-pixel */
"40 40 60 1 ",
"  c black",
". c gray33",
"X c #5B5B5B",
"o c gray11",
"O c #010D00",
"+ c #011D00",
"@ c #1A5317",
"# c #246B21",
"$ c #092D08",
"% c #011800",
"& c #022A00",
"* c #036100",
"= c #049500",
"- c #04A200",
"; c #048D00",
": c #048100",
"> c #047000",
", c #023100",
"< c #010B00",
"1 c #034800",
"2 c #04A600",
"3 c #02DB00",
"4 c #00F000",
"5 c #02D700",
"6 c #02B300",
"7 c #049700",
"8 c #047A00",
"9 c #045F00",
"0 c #023800",
"q c #03B400",
"w c #19EA17",
"e c #77F974",
"r c #A9FC9C",
"t c #BDFCB0",
"y c #BDF55A",
"u c #B7EF8B",
"i c #99E896",
"p c #49DE46",
"a c #01C800",
"s c #046A00",
"d c #011300",
"f c #022F00",
"g c #028700",
"h c #32DD2F",
"j c #40F53E",
"k c #A2FC9E",
"l c #BAFC9E",
"z c #BEFC9A",
"x c #ADFCA2",
"c c #6FFC6C",
"v c #41EB3E",
"b c #12CA10",
"n c #024500",
"m c #011000",
"M c #013100",
"N c #003C00",
"B c #203F1F",
"V c #103F10",
"C c #003700",
"Z c #012900",
/* pixels */
"                   .Xo                  ",
"                 O+@#$%                 ",
"                &*=-;:>,<               ",
"               1234456789<              ",
"              0qwertyuipasd             ",
"              fghjklzxcvbnm             ",
"               dMNBBBBVCZ               ",
"                                        ",
"                                        ",
"                                        ",
"                                        ",
"                                        ",
"                                        ",
"                                        ",
"                                        ",
"                                        ",
"                                        ",
"                                        ",
"                                        ",
"                                        ",
"                                        ",
"                                        ",
"                                        ",
"                                        ",
"                                        ",
"                                        ",
"                                        ",
"                                        ",
"                                        ",
"                                        ",
"                                        ",
"                                        ",
"                                        ",
"                                        ",
"                                        ",
"                                        ",
"                                        ",
"                                        ",
"                                        ",
"                                        "
};
