/* XPM */
static char *result[] = {
/* columns rows colors chars-per-pixel */
"40 40 184 2 ",
"   c #414141",
".  c gray25",
"X  c #434343",
"o  c #4E4E4E",
"O  c #838383",
"+  c gray54",
"@  c gray52",
"#  c #868686",
"$  c gray43",
"%  c #2D2D2D",
"&  c gray38",
"*  c #747474",
"=  c gray49",
"-  c gray50",
";  c #808080",
":  c #7C7C7C",
">  c #626262",
",  c gray19",
"<  c #3E3E3E",
"1  c #3A3A3A",
"2  c #3F3F3F",
"3  c gray26",
"4  c #646464",
"5  c gray39",
"6  c gray44",
"7  c #D8D8D8",
"8  c #CECECE",
"9  c #C8C8C8",
"0  c #D0D0D0",
"q  c gray80",
"w  c gray79",
"e  c #CBCBCB",
"r  c #9B9B9B",
"t  c gray72",
"y  c #A9A9A9",
"u  c gray64",
"i  c gray63",
"p  c #A4A4A4",
"a  c #9D9D9D",
"s  c #2F2F2F",
"d  c #909090",
"f  c #8E8E8E",
"g  c gray53",
"h  c gray46",
"j  c #5B5B5B",
"k  c #5D5D5D",
"l  c gray36",
"z  c #B1B1B1",
"x  c #AEAEAE",
"c  c #AAAAAA",
"v  c #989898",
"b  c #898989",
"n  c #727272",
"m  c gray84",
"M  c #B7B7B7",
"N  c #B6B6B6",
"B  c #B4B4B4",
"V  c gray71",
"C  c #AFAFAF",
"Z  c #A2A2A2",
"A  c #565656",
"S  c #A7A7A7",
"D  c #939393",
"F  c #9F9F9F",
"G  c #676767",
"H  c gray87",
"J  c gray81",
"K  c #D2D2D2",
"L  c #CACACA",
"P  c gray69",
"I  c gray67",
"U  c #9A9A9A",
"Y  c gray22",
"T  c #D7D7D7",
"R  c #A0A0A0",
"E  c gray66",
"W  c gray65",
"Q  c gray58",
"!  c gray31",
"~  c #393939",
"^  c gray75",
"/  c #979797",
"(  c gray60",
")  c gray55",
"_  c #5F5F5F",
"`  c #6F6F6F",
"'  c #DDDDDD",
"]  c gray59",
"[  c #8B8B8B",
"{  c gray57",
"}  c #818181",
"|  c gray30",
" . c gray29",
".. c gray61",
"X. c gray23",
"o. c #343434",
"O. c gray73",
"+. c gray56",
"@. c #929292",
"#. c gray62",
"$. c #494949",
"%. c gray15",
"&. c gray37",
"*. c #C6C6C6",
"=. c gray33",
"-. c gray12",
";. c #464646",
":. c #444444",
">. c #4B4B4B",
",. c #282828",
"<. c #7B7B7B",
"1. c LightGray",
"2. c #959595",
"3. c #717171",
"4. c #373737",
"5. c #535353",
"6. c #8D8D8D",
"7. c gray35",
"8. c #2A2A2A",
"9. c #313131",
"0. c #515151",
"q. c gray28",
"w. c #6A6A6A",
"e. c gray40",
"r. c DimGray",
"t. c #353535",
"y. c gray20",
"u. c gray68",
"i. c #888888",
"p. c #848484",
"a. c gray24",
"s. c gray34",
"d. c gray74",
"f. c #606060",
"g. c gray17",
"h. c #484848",
"j. c #767676",
"k. c gray76",
"l. c gray47",
"z. c gray32",
"x. c #2C2C2C",
"c. c #C5C5C5",
"v. c #272727",
"b. c #B9B9B9",
"n. c gray48",
"m. c #323232",
"M. c #CDCDCD",
"N. c #4C4C4C",
"B. c gray27",
"V. c gray70",
"C. c #B2B2B2",
"Z. c #ACACAC",
"A. c #585858",
"S. c #777777",
"D. c gray16",
"F. c #555555",
"G. c #BBBBBB",
"H. c #505050",
"J. c #232323",
"K. c #6C6C6C",
"L. c gray14",
"P. c #656565",
"I. c gray51",
"U. c #BCBCBC",
"Y. c #7E7E7E",
"T. c #686868",
"R. c gray78",
"E. c gray21",
"W. c gray",
"Q. c #797979",
"!. c #C3C3C3",
"~. c #6D6D6D",
"^. c #C1C1C1",
"/. c #A5A5A5",
"(. c gray77",
"). c gray45",
"_. c gray86",
"`. c #DADADA",
"'. c gainsboro",
"]. c #D5D5D5",
"[. c #3C3C3C",
"{. c #C0C0C0",
"}. c gray42",
"|. c gray18",
/* pixels */
"    . X X . o O + @ O @ # @ @ # $ % & * = - = ; : >   , < < 1 1 1 2 3 . . . X X ",
"4 & 5 & & o 6 7 8 9 0 0 8 q w e O % r t y u i p a ; . s * d f d g h & j k j l l ",
"z x c v b 1 n m M N x B V V C Z A % S S D F i u v G 1 % a H J 8 K L N z x x P P ",
"I S u U * Y * T R y E i a F a d o % k D W D r Q = ! ~ % F ^ a r U i / v r ( i v ",
"C U F ) _ s ` ' ] ] E r [ { F } | %  .; W ..] Q = X.o.% i O.( +.@.@.{ Q #.a [ a ",
"( / [ l $.%.&.*.S S D Q +.@.v : =.-.;.:.>.X.X.Y Y %.,.  <.1.] f @.) f a Q F 2.+.",
"3.$ 5 2 4.%.5.N a U @ [ r 6.D ; 7.8.< . 9.~ . ;.0.q.2 >.G z f b 6.- * ` w.` e.r.",
"1 t.y.8.8.% >.#.u.@.i.f ] ] p.6.l % a.s.<...N d.d.D &.2 f.g r.&.A | q.:.2 X.4.Y ",
"9.9.9.g.g.X.h.j.k.#.i.+./ g / l.z.% x.+.e c.U #.#.l.. % o.~ o.Y o.~ 8.v.%.%.%.%.",
" .< X.X.X.9.$.& b...( U ..+ D n.j m.s @.M.v 2.Q 6.<.1 % . N.$.t.2 3 B.B.:.:.:.. ",
"B V.z C.u j 9.! x #.D 6.[ f D = 4 4.8.D b...U ( a $ 1 % v 8 = N.p.b.b.O.O.O.b.b.",
"Z.W y c # A.y.o : #.d f i.S.j.w.A., D.+.I +.` 6 4 F.~ m.L z A.0.V.*.G.N O.N V.t ",
"a ] U ( l.H., | A h 4 & F.H.2   , -.J.<.K.k . % % % 8.2 K i =.5.O.E ..] ( f i.{ ",
"a / / + n.;.s >.X 4.8.L.-.-.-.g.8.g.s N.A.;.2 X.q.%.m.P.K p F.! c @.a r U D g v ",
"f I.@ #.3.X % 7.U.M Z 6.Y.h.a.T.+ v E k.e q J R.a   X W k.i  .| F W D / / g ; +.",
"( U U g 5 2 % + Z./ u a ..E.| C.K W.E I I z z p l.4.$.G.p U . :.I.Y.l.* Q.; [ f ",
"$ G T.F.< o.g.+ F i i ( g g.$.!.N R d r ] @.F 6.r.o.h.U.i ( 1 a.a.3 3 . B.;.7.k ",
"4.m.% 8.8.8.Y d U d p 2.~.,.;.c.E a D g @ ) D U _ t.h.U...@.~ 3 o.% % % %.%.% m.",
"f.: Q y ( U A - i d / d h o.a.d.N ) { { I.D @ @.G m.$.U.Q y 4. .4 w.4 F.z.z.< . ",
"# k.q W.V y 7.@ v i @ F ; X.2 I ^./ +.+.n.D / [ &.% $.N F Q ~ > N W *.O.t O.~.o ",
"R G.a ( a / G g U ] p ( ; X 8.# M.I v U f p.) 6.s.% o z i @.~ 4 W./ ..U U D 4 q.",
"Z B U ( /.2.k } /.R Q r } B.8.` (.P Q +.f +./ 6.N.8.z.z ..+.~ f.U.r #.2.( F F.:.",
"R N a r R / A.Q.t Q v r n.$.-.F.u.G.) 2.D v ) ).X %.0.Z O 5.X.l C.r r U D a H.. ",
"u G.Z ( ( r F.T.*.v @.2.i.$.-.;.Y.y - 4 o . 1 o.o.% B. .2   h.  0.2 h.h.q.h.3 ~ ",
"F V.f R ( ] A 0.J v ..@.# B.-.X.N.;.< 8.J.8.8.-.s % q.5.h.N.>.h.2 X.o.o.o.o.o.~ ",
"u t a 2.p 6.F.4._./ g ] ; h.-.Y F.&.j j _ > f.P.> K.` : v #.a a a r r a a a T. .",
"..V i ( #.Q.E.Y `.v { +.; | L.8.h P U.U.O.b.t M M ^ 9 K '.'.].m T K T L e C A.X ",
"] B a ....$ y.2 ].E { 2.; | %.-.S.R.].].T 0 q m 0 T K w U.V.c Z.I F B S x @.| 2 ",
"g a F ; G 7., 3 U.) ( v = ! %.-.e.M.u.+.f @.r @.p { F W i # +.( #.d U W ..} $.E.",
"r.i.l._ =.~ 9.2 i i f b $ | %.-.>.M.k.p f @.b { ..2.v R p.+.2.+.U } +.f 2.p.$.E.",
">.[., X.~ o.~   7.o 0.! N.:.%.-.;.t G.f a ( f v [ [ 2.{ ..{ { d g U O ] } h $.o.",
"z.f._ A >.9.< X E.%.8.,.8.,.J.J.. g n r.w.w.Q.+ ( b @ # ) g +.f d D @ + b <.h.o.",
"~.z k.d.M @ Q.> $.4.o.9.o.9.9.o.2 o . 9.o.o.o._ P.~.T.T.T.T.G T.T.G r.T.T.> t.Y ",
"Q.^.I #.c.J J d.M M M B E i { + : ` r.f.N.B.a.g.g.9.9.9.L.8.% J.J.L.L.J.J.%.x.  ",
"Q.c...u i.Z ( W i E Z.z y V.x B {.8 w b.& h. .:.a.X.9.X.o.~ Y Y Y ~ ~ Y Y a.;.! ",
"Q.b.i Z d ( 2.S f { @ + +.6.{ U U U y Y.< Y  .(.(.V U g 5.H.b d d @.f i.n.}.H.z.",
"j.[ e.r.f.r.G }.P.> P.> 5 e.P.T.G e.r.7.  |.. 9 C G.P z j ).b.z I V.y Z.i E > $.",
"A ;.% % % % % % % % % % % % % % % % % % % J.E.Q.Q.I.6 <.k I ..a i F U ..a D B.$.",
"0.:.. |.s o.s y.%.E.9.g.9.%.E.%.9.%.E.%.9.9.m.0.;.o.%.%.g.N.o ;.;.q.B.h.h.;.2 q.",
"3   . < 2 2 2 a.X.X.X.X.X.X.X.X.X.X.X.X.X.X.X.    < X.X.X.2 X.o.o.o.o.o.o.o.o.2 "
};
