/* XPM */
static char *house1685567553[] = {
/* columns rows colors chars-per-pixel */
"32 32 234 2 ",
"   c #312539",
".  c #443639",
"X  c #3D334C",
"o  c #3C3A4A",
"O  c #3E2F50",
"+  c #3F3851",
"@  c #372F46",
"#  c #41344C",
"$  c #423A4E",
"%  c #483847",
"&  c #422D56",
"*  c #443453",
"=  c #493456",
"-  c #463C54",
";  c #4A3B56",
":  c #45355B",
">  c #4A395B",
",  c #4A3659",
"<  c #523F5F",
"1  c #513F4B",
"2  c #56474B",
"3  c #464552",
"4  c #4C4254",
"5  c #4D4B5C",
"6  c #4B4A57",
"7  c #554553",
"8  c #53455D",
"9  c #534C5C",
"0  c #5B4D5D",
"q  c #574B55",
"w  c #4E545B",
"e  c #54525C",
"r  c #535C5F",
"t  c #5B5458",
"y  c #5B514F",
"u  c #634B58",
"i  c #63545D",
"p  c #6D545E",
"a  c #645C5A",
"s  c #685658",
"d  c #79555E",
"f  c #4E4F6E",
"g  c #554463",
"h  c #554D63",
"j  c #5B4D64",
"k  c #544A68",
"l  c #5C4B69",
"z  c #545463",
"x  c #5C5563",
"c  c #565C64",
"v  c #595569",
"b  c #575778",
"n  c #4D5C79",
"m  c #664F62",
"M  c #625562",
"N  c #6B5663",
"B  c #645B65",
"V  c #6B5669",
"C  c #645C6A",
"Z  c #6A5C6D",
"A  c #6B5866",
"S  c #745C64",
"D  c #735C6A",
"F  c #785964",
"G  c #6C5E74",
"H  c #665B79",
"J  c #745F70",
"K  c #596467",
"L  c #5A6569",
"P  c #59677B",
"I  c #587176",
"U  c #6C646C",
"Y  c #67646A",
"T  c #726164",
"R  c #7F6068",
"E  c #76686A",
"W  c #626B74",
"Q  c #6C6B75",
"!  c #6C667D",
"~  c #6A6776",
"^  c #736573",
"/  c #796B74",
"(  c #74657B",
")  c #7D6E7B",
"_  c #766A78",
"`  c #6B7176",
"'  c #6B757A",
"]  c #667678",
"[  c #77777B",
"{  c #6D726C",
"}  c #815B66",
"|  c #826973",
" . c #867679",
".. c #86626C",
"X. c #6C807E",
"o. c #595B89",
"O. c #615B85",
"+. c #625B8D",
"@. c #68588D",
"#. c #6B5E94",
"$. c #705F95",
"%. c #4B6287",
"&. c #5D6383",
"*. c #5D6289",
"=. c #5D6988",
"-. c #5A6D95",
";. c #597599",
":. c #64658C",
">. c #6B648C",
",. c #666986",
"<. c #697889",
"1. c #7A7E8B",
"2. c #757888",
"3. c #6A6493",
"4. c #646B9C",
"5. c #6A6796",
"6. c #667398",
"7. c #726F82",
"8. c #777DA3",
"9. c #8A7482",
"0. c #837784",
"q. c #937C87",
"w. c #6D8485",
"e. c #69838B",
"r. c #758586",
"t. c #74848C",
"y. c #7D8D8E",
"u. c #77878D",
"i. c #7B8B92",
"p. c #778798",
"a. c #7E969C",
"s. c #7F9290",
"d. c #738AA5",
"f. c #7C9DB4",
"g. c #7B9DBD",
"h. c #7898BC",
"j. c #7F92AB",
"k. c #7DA3B6",
"l. c #7CA3BC",
"z. c #77A1BA",
"x. c #759EC4",
"c. c #7A9DC4",
"v. c #7D9DC9",
"b. c #7DA3C3",
"n. c #75A3CC",
"m. c #7CA4CB",
"M. c #7DA9CC",
"N. c #79A5C2",
"B. c #79A6D3",
"V. c #898788",
"C. c #99868A",
"Z. c #838C94",
"A. c #828490",
"S. c #958A92",
"D. c #998995",
"F. c #859395",
"G. c #84949B",
"H. c #8C959B",
"J. c #8C9B9B",
"K. c #939394",
"L. c #9A9798",
"P. c #A3939B",
"I. c #A39697",
"U. c #A08F97",
"Y. c #9EA39F",
"T. c #878CA4",
"R. c #8898A8",
"E. c #969CA7",
"W. c #849BBC",
"Q. c #879CB4",
"!. c #828DBA",
"~. c #AA9AA6",
"^. c #AC9FB0",
"/. c #8EA5A8",
"(. c #93A4AB",
"). c #95A8AE",
"_. c #8BA3B6",
"`. c #82A3BC",
"'. c #8DACBD",
"]. c #86A5B9",
"[. c #91ACB5",
"{. c #94A4B9",
"}. c #97A9B7",
"|. c #94B3BF",
" X c #A4AAAB",
".X c #A7A8A6",
"XX c #B6A5A9",
"oX c #BAADB2",
"OX c #ABBABA",
"+X c #AAB3B6",
"@X c #B8B8B7",
"#X c #AEB2B2",
"$X c #C2B6B6",
"%X c #C5B6BB",
"&X c #BBC3BC",
"*X c #BAC8BE",
"=X c #ADC0BC",
"-X c #C1C6BF",
";X c #859FC4",
":X c #82A4C2",
">X c #8BA5C5",
",X c #84A9C4",
"<X c #81A3CA",
"1X c #80A9CB",
"2X c #8CACC7",
"3X c #94A9C3",
"4X c #8DB2C4",
"5X c #9AB6C7",
"6X c #82A7D1",
"7X c #94B0DA",
"8X c #A7BDC7",
"9X c #B3BDC5",
"0X c #A1A4C3",
"qX c #C3BFC0",
"wX c #ADC4C5",
"eX c #A3C3CC",
"rX c #A3C0C4",
"tX c #BCCACB",
"yX c #B8C6C8",
"uX c #ACC4D2",
"iX c #B5CAD4",
"pX c #B9CAD5",
"aX c #B6D0D5",
"sX c #BFD2CC",
"dX c #C2CAC4",
"fX c #C2CBCA",
"gX c #C9CECC",
"hX c #C4C6C4",
"jX c #C5D2C8",
"kX c #C4CDD1",
"lX c #C3D2D3",
"zX c #C9D4D7",
"xX c #D9C9CC",
"cX c #C4D6E2",
/* pixels */
"B.n.n.n.M.M.b.b.:X`.l.b.b.M.M.n.n.n.n.m.b.:X`._.{.R.}.yX9X+X+X~.",
"B.B.M.b.N.h.k.`.f.l.:X,X<Xb.m.n.n.n.M.M.b.k.`._.{._.wXzXhXyXzXkX",
"n.b.`.W.W.].3X5X'.].`.`.b.b.N.N.N.N.z.z.k.].|.5XaXwXyXlXdXdXdX-X",
"Q.Q._._.}.8XiXaXiX5X_.`.`.1XM.b.N.k.k.k.].|.eXaXzXaXyXjXjXjXjX-X",
"R.(.+XOXyXyXlXlXlXwX[._.`.l.b.:Xk.k.].4X5XeXeXeXrXrXwXyX=X=X*XyX",
"K.#XfXgXdXhXdXfXtXiXuX|.'.`.`.g.4Xk.`.'.4X4X'._.|.[.|.[././././.",
" X@XgXgXdX-XhX&X&XjXlXiXuXuX5X:X,Xb.g.h.N.g.b.g.l.l.f.f.2X3X]._.",
"lXlXhXyX&X-X&X#XY. X+X+XiXcXuXQ.:X<X<X<XM.m.m.m.n.1X<Xb.:Xg.g.:X",
"iXpXpXiXzXfXgX(.{ X.Y..XzXtXtX}.W.7Xh.c.m.<Xn.M.m.B.B.m.6X<Xv.;X",
"R.j.{.{.{.+X^.K.[ C..XV.Y.L.K.Z.Q.d.>X,X2Xb.n.M.n.M.B.x.6Xc.v.7X",
"%.%.d.3XQ. X2.Y  .I.-Xa a y y { W P P d.f.:Xz.M.b.M.M.x.M.;.;.x.",
"-.%.5.!.{.T.L Y V.I.-XE a a I.$X^.yX' <._.5Xk.l.z.h.,Xb.<X%.-.;X",
"4.-.o.8.0X,.4 x V.C.XXE s ..$XI.K..XE.w /.R.].f.2X:X>X>X;X-.6.3X",
"o.4.o.5.T.*   1 I.I.I.T a I.$Xy . y %XV.7.(.R.d.Q.f.W.>X!.*.&.8.",
"4.5.@.H l & % u |  .| s  .-X$Xd 2 T %X#X5 2.b n 6.-.6.!.4.4.o.3.",
"+.o.3.>.l G m N R T T s C.-XXXC.q.C.P.P.C ! T.d.p.<.*.8.o.3.#.$.",
">.O.H H V F F d d ..} u  .9.E q. . .} E E 6 H.R./.i.<.P &.>.3.@.",
">.>.O.V N p d F } F F J XXoXXX$XXX$X%X$XS.e ' F.u.G.e.P b o.@.$.",
"o.>.H l Z V S R F F d F | 7 0 E XXs u s M 5 c 2.I a.a.<.P :.O.$.",
"O.:.b k ( _ s N F F u m / 2 7 N U.. % A C 9 e I r.G.R.p.,.:.3.+.",
":.,.f f 7.7.i q 7 | J m J % 8 9.~.7 % x C z 1.G./.a.a.a.&.o.5.o.",
"*.&.b P 1.A.` B 7.0.Z m D.q.9.D.~.~.~.^.1.9 Z.).i.w.d.d.P n :.*.",
"&.:.<.1.Z.F.F.V.W e h 4 V V N E / ) / ^ G x u.2.<.w.e.e.<.=.*.*.",
"&.<.G.R.y.y.F.J.W @ 9 x J 9.q.9.| 9./ e 9 x 1.1.a./.e.I e.<.=.:.",
"<.Z.G.i.r.r.y.y.] P e Y P.m p p s U D.t G Q W Z.s.w.w.u././.=.P ",
"P 1.T.i.' ] r.F.L c 9 U L.A p p 2 Y S.i U Q Y [ J.s.X.X.e.t.1.2.",
"g c L L r r L L c z 9 U D.D D T 2 Y D.x Z Z 9 e K { K X.Z.Z.E.Q.",
"h 6 3 5 r K r 6 v z 5 v 0.M N S y Y  .8 0 0 7 ; w r r ] Z.i.1.! ",
"! ! 7._ ` Q 7.7.>.! H H 2.^ ^ _ ^ U ) G ( >.J ( 2.Q ' ] 1.1.~ C ",
"8 8 j j 5 4 8 k k f g g m 9 7 7 0 4 8 8 l m < m 9 3 5 3 5 z - k ",
"g > * ; ; * * * : : > : : , # % $ # * ; = = * * * $ $ o + + @ : ",
"H l < 8 g , & : O : : & O , # % # # * = & = , = * ; @ + - @ > - "
};
