/* XPM */
static char *_0c768be030047e48c590b600d528888NCvolcJIZFn6WLra[] = {
/* columns rows colors chars-per-pixel */
"40 40 250 2 ",
"   c #090B09",
".  c #130E08",
"X  c #0C1E1A",
"o  c #051A16",
"O  c #131B1B",
"+  c #1A1818",
"@  c #12130C",
"#  c #251B13",
"$  c #300D10",
"%  c #02241B",
"&  c #0D231D",
"*  c #04281A",
"=  c #12211D",
"-  c #18261E",
";  c #02341D",
":  c #113212",
">  c #2C271D",
",  c #0B1E23",
"<  c #161B23",
"1  c #291C2B",
"2  c #0C2422",
"3  c #0B2B23",
"4  c #042924",
"5  c #142422",
"6  c #132A24",
"7  c #1B2926",
"8  c #19262A",
"9  c #063526",
"0  c #192C32",
"q  c #183834",
"w  c #163429",
"e  c #242728",
"r  c #373B39",
"t  c #2E3530",
"y  c #4E331A",
"u  c #7A3B1B",
"i  c #4F3833",
"p  c #2A4619",
"a  c #194737",
"s  c #0F4731",
"d  c #284A24",
"f  c #274539",
"g  c #354634",
"h  c #30472B",
"j  c #19460D",
"k  c #49453B",
"l  c #554933",
"z  c #72492C",
"x  c #45693A",
"c  c #66481F",
"v  c #391C4F",
"b  c #33364C",
"n  c #48364D",
"m  c #4E3367",
"M  c #1E5744",
"N  c #185048",
"B  c #2C544B",
"V  c #385946",
"C  c #315251",
"Z  c #386658",
"A  c #346F52",
"S  c #394C70",
"D  c #3A6B61",
"F  c #3A756B",
"G  c #464A47",
"H  c #464A58",
"J  c #565858",
"K  c #4C564A",
"L  c #705550",
"P  c #4E6C50",
"I  c #786D5D",
"U  c #52556C",
"Y  c #6B5875",
"T  c #506D6E",
"R  c #6E716E",
"E  c #923A0F",
"W  c #A93D10",
"Q  c #8E3A28",
"!  c #9C481A",
"~  c #904714",
"^  c #A7481A",
"/  c #B74B1A",
"(  c #BD551C",
")  c #AC400C",
"_  c #86482A",
"`  c #984928",
"'  c #975229",
"]  c #8A5A38",
"[  c #8F4F33",
"{  c #A84C26",
"}  c #A85529",
"|  c #B95829",
" . c #A75833",
".. c #BB5B37",
"X. c #B24E2F",
"o. c #9C673F",
"O. c #BC662B",
"+. c #B9643A",
"@. c #B77036",
"#. c #AB6430",
"$. c #C3541C",
"%. c #C55C25",
"&. c #C55C38",
"*. c #C74E24",
"=. c #C66536",
"-. c #D26536",
";. c #CF7339",
":. c #965743",
">. c #AB5C49",
",. c #976748",
"<. c #9B6653",
"1. c #937654",
"2. c #BB6A49",
"3. c #A67549",
"4. c #B97746",
"5. c #AA7858",
"6. c #B77856",
"7. c #A6684D",
"8. c #927771",
"9. c #BC7E66",
"0. c #A97869",
"q. c #C56C47",
"w. c #C67647",
"e. c #C77856",
"r. c #D4754E",
"t. c #C07B6B",
"y. c #3A846A",
"u. c #3E8259",
"i. c #50885B",
"p. c #49876B",
"a. c #578977",
"s. c #589477",
"d. c #508F70",
"f. c #708E73",
"g. c #5EA279",
"h. c #74A274",
"j. c #74915D",
"k. c #958658",
"l. c #A6855C",
"z. c #BC8653",
"x. c #9B966D",
"c. c #889875",
"v. c #969775",
"b. c #8F8672",
"n. c #A98567",
"m. c #B98665",
"M. c #A48777",
"N. c #B48977",
"B. c #A79476",
"V. c #AC9671",
"C. c #8DAA7C",
"Z. c #ABA675",
"A. c #CD8558",
"S. c #C98C6E",
"D. c #8DC57D",
"F. c #95C77D",
"G. c #4F578F",
"H. c #685788",
"J. c #6A5598",
"K. c #57708A",
"L. c #666687",
"P. c #707093",
"I. c #6A49A8",
"U. c #795CB7",
"Y. c #6E57AE",
"T. c #7667A7",
"R. c #7968B4",
"E. c #6E6DB2",
"W. c #7872C1",
"Q. c #8468B8",
"!. c #8072AF",
"~. c #816D86",
"^. c #856BC7",
"/. c #8B73D2",
"(. c #579885",
"). c #518F86",
"_. c #658B82",
"`. c #6A988F",
"'. c #56A68B",
"]. c #7BA587",
"[. c #6BA996",
"{. c #7AAC96",
"}. c #67B597",
"|. c #78B899",
" X c #70AD8A",
".X c #7193B5",
"XX c #5CBDA6",
"oX c #69BAA8",
"OX c #76BAA6",
"+X c #6DBCB5",
"@X c #75B9BC",
"#X c #75A9B0",
"$X c #5CC5AD",
"%X c #66C6A9",
"&X c #7AC5A8",
"*X c #6BC8B7",
"=X c #79C5B5",
"-X c #73D1B4",
";X c #64C49F",
":X c #7EA2C2",
">X c #7ECCC5",
",X c #9A8684",
"<X c #879A85",
"1X c #898C94",
"2X c #999696",
"3X c #8A8D8A",
"4X c #B0998C",
"5X c #96A885",
"6X c #99AB91",
"7X c #87B898",
"8X c #97B999",
"9X c #89AF8E",
"0X c #A7A788",
"qX c #AEAD96",
"wX c #9B9EA0",
"eX c #96A4A5",
"rX c #86B8A9",
"tX c #8FB3AA",
"yX c #A5A8A6",
"uX c #B6B6B8",
"iX c #B3AEA8",
"pX c #C99889",
"aX c #CBAE94",
"sX c #D1B9AE",
"dX c #9BC786",
"fX c #95C997",
"gX c #8DC68C",
"hX c #86C6A9",
"jX c #98C5A7",
"kX c #86C7B5",
"lX c #94C9B6",
"zX c #8FD5B4",
"xX c #A4CAA6",
"cX c #C6C1B8",
"vX c #D3C6AF",
"bX c #E9C8B6",
"nX c #82B4C9",
"mX c #89CBC4",
"MX c #86D6C7",
"NX c #BCC1C4",
"BX c #D8D8D8",
"VX c #CCCBC6",
"CX c #EED6C9",
"ZX c #F6E6D9",
"AX c #EAE2CE",
"SX c #DDDFE0",
"DX c #E5E6E3",
"FX c #F7F3E8",
"GX c #F7F9F8",
"HX c #EEF1EC",
/* pixels */
"4 , 8 8 O e @ e , 2 4 T `.p.i.i.P i.u.y.d.y.p.f.R _.9XC 9 4 4 2 & 6 X & 5 & = 8 ",
"0 , , 7 O 7 2 o 4 Z `.T A A g.i.i.j.g.p.u.d.Z B B C T `._.4 4 3 2 6 = 5 5 O O 5 ",
"0 , , 5 = * % 9 F kXs.9 d d ].fXgXgXgXgXfXfXP p q f ; M kX(.q 9 2 6 5 5 5 5 - 5 ",
", , 8 X : ; * y.&XoXkXA s p x gXF.dXD.D.gXx : P K f s.|.=X=X).% % o 5 5 & 5 5 5 ",
"& & - - & 9 A &X-X%X|.d.h j j c.F.dXD.D.D.j > c.h.P A [.oX=XMXB 9 o 6 = & 7 5 5 ",
"& - X e o 9 hX-X}.=XB V P p p x F.F.D.gXh.j x x P V B '.=X%X+X+Xa o 6 8 = 7 O = ",
": & O e = 3 [.@X=X[.Z f w p p p D.gXgXgXx p P P P P {.=XoX>X*XmXB o 2 6 & 8 O 5 ",
"* & 7 O 0 X a kXkXrXZ g K g t g fX7XgXxXd.P x P K a.{.=X*X*X@X@XZ o * 6 & 5 o - ",
"9 % 2 6 o 0 D oX@XrXT q C b t b tXtX`.tX_.T J J T T >X+XXX>X$X@XB ; 3 % & & = X ",
"w o 4 , N ).=X+X&XoX[.Z q 0 H C L.P.P.P.L.Y U Y q K.+X>X*XXX>X'.% o % % * 6 6 X ",
"o q % 9 [.mX*X-X$X*X>X'.K.T L.J.T.T.T.!.T.T.H.J.U `.+X>X$X$X$XF F d.D q % % 6 & ",
"5 o 4 ).&X*X;X%X$X*XXX@X#X.XE.Q.Q.Y.U.Q.Q.Q.J.J.E..X>X+X$X$XXX'.OXlXkX`.Z 3 & & ",
"7 o B kX&XoX%X=X%X%X+X>X.XG.W.^.U.^.^.^.W.I.Q.Y.G..X@X@X$X-X;XzX&XOXkXlXrXf o 3 ",
"+ e _.OX=X&X|.|.|.kXoX@X>XE.W.I.U.^.Y.U.Y.I.U.I.Y..X:XmXg.d.gX|.hXOXOXOXlXT 9 % ",
"+ @ 9XlX X|.8Xa.V  XlX@X.XG.Y.W.W.W.E.Y./.^./.U.J.K.#XrXa V 6Xh.[.=XOXOXkXrXa o ",
"+ - f.rXh.<X1.8.l h {.rXK.K.E.E.E.E..XW.W.E.T.J.G.U J g k 0Xx.1.6X7X].9X7XrX* 4 ",
"+ t 9Xc.1.3.2.{ k.c t g k K T U U U T U K.U H n i i y u m.S.] o.V.l.n.4X5X8Xs ; ",
"X P 8XB.o.! -.-.} ' z i i i t k t < b 0 0 g G t y z ,.A.2.' ' ' o.A.z.1.4X8X Xs ",
"M 7XC.n.z.} ;.;.O.} >.Q 0.L i i G f.R R 1XT J I M.m.3.6. .! q.+.~ #.' [ B.<XhXu.",
"'.jXj.,.@./ ) E #.} 2.pXpXL $ $ L GXDXGXHXK @ # 8.V.,._ ' ! } { #.} #.e.V.0X7X|.",
"g.C.1.2.=.-.*.%.|  .7.bX1.$ $ $ i BXBXDX2X. # # # 8.aX>.' } E ) O.@.A.S.m.qXh.{.",
"h.c.0.q.| $.) / W ~ 1.vX>   e 1   yXFXFXI . > @ # L bXpX_ ` ) %.( O.;.w.3.b.<X].",
"s.C.x.m.w.-.$.( ! u 4XAXg O 1 .   yXHXDXI @ + > + . iXaX_ ~ ) ( %.*.*.&.7.1.0X7X",
"s.fXZ.l.w.%./ ) } u vXvX7 O < 1 1 VXDXFXb.  # - # e sXsX_ ' %.=.%.*.&.q.6.B.8X{.",
"g.{.h.1.' ) ) ^ { _ aXAXf.+ < 1 1XeXwX2XcXR     e uXFX4XQ Q | E ~ #.@.4.n.5X7X}.",
"(.fX5Xn.' #.| =.2._ 4XqXDX2Xi 2XBX1XSXsXVXDXR U NXBX4XL :.[ E %.@.;.A.z.Z.8XhX}.",
"'.tXpXt.......=.&.>.N.L iXBXSXNXHXGXGXSXBXDXSXVXBX~.I 4X:.E &.&.@.w.q.e.B.6XkX|.",
"s.9XM.9.6.q.| =...` :.pX8.k t yXuXuX1XC J J K Y L L 0.<.u ` { ^ | =.+.6.B.6XOXF ",
"`.tXZ.V.e.=.| ..X...Q >.ZXM.qXI b b uXwXwXwX2XsXB.sX0._ [ X...X.| =.2.m.4X8Xs.; ",
"d.lX8Xx.3.4.| | %.X.X.Q 7.CXFXvXAXsXDXHXGXSXGXZXZXm.[ ` ` { ! { / %.e.m.x.6Xd.* ",
"N }.|.h.k.A.;.;.| &. .` Q N.aXZXZXZXGXDXDXSXVXbX9.o.~ ! { X...^ ^ | e.3.k.7Xp.; ",
"s `.}.D.C.Z.;.=.r... .{ ` Q z 1.sXbXBXcXiXuX1.L _ E } O./ &.r.r.=.| 6.l.5XxXp.* ",
"4 A -X XfXZ.3.;.;.=.r.E { W ~ ~ u S.cXqXiX,Xz ` | W $.;.=.! q.r.r.6.5.5X8X|.s.% ",
"  B kXhX7Xv.3.z.@.w.&.{ &.{ O.! [ S.ZXHXiXb.,.E &.*.%.;.A.2.q.2.9.9.x.f.hXzXp.o ",
"0 2 D {.8Xv.k.5.S.e.S.>.2.2. .~ [ pXHXHXGX2XB.] e.r.@.4.m.n.l.n.V.qX8X].&X&XM % ",
"< , o _.tXh.c.Z.0Xk.N.<.7.9.3.] N.~.<X6X1X1XqXN.<.S.l.V.N.qX0XC.C.h.7X|.hX(.* % ",
"< 0 4 F tXlX7XfX8X].b.,X8.1.k.l L n U b Y H c.R ~.~.8.8.3XeXjX].9X|.&X&Xs.s o 6 ",
"< O , 4 D a.a s.&XT C G i n P J i m P.~.`.H g J n L n H b T rX=X&X&X}.y.s o 6 5 ",
"8 O 8 , 2 o ; oXoXN G.P.~.4Xv.<XU v H.!.H.m 6X1XY H.J.J.G.S ).oX%X).9 * * & e @ ",
"+ 8 < 8 2 4 Z =XmXF S P.Y Y f.P H.m v m b 1 P.L.H.Q.Q.J.Y.S ).-XMXy.* % w X O e "
};
