/* XPM */
static char *result[] = {
/* columns rows colors chars-per-pixel */
"40 40 106 2 ",
"   c #2E2A27",
".  c #2F2B28",
"X  c #312D2A",
"o  c #35312D",
"O  c #3C372C",
"+  c #3E382C",
"@  c #373330",
"#  c #393532",
"$  c #3C3936",
"%  c #3F3C39",
"&  c #552827",
"*  c #4F372B",
"=  c #433B2D",
"-  c #54362A",
";  c #413D3A",
":  c #792423",
">  c #623635",
",  c #4C432D",
"<  c #564A2F",
"1  c #5B4F2F",
"2  c #44413E",
"3  c #5C4F30",
"4  c #5C5030",
"5  c #66572F",
"6  c #67582F",
"7  c #665731",
"8  c #675830",
"9  c #695A31",
"0  c #736332",
"q  c #796732",
"w  c #7D6934",
"e  c #474441",
"r  c #4A4644",
"t  c #4C4947",
"y  c #4F4B49",
"u  c #514E4B",
"i  c #54514E",
"p  c #565452",
"a  c #595654",
"s  c #5B5956",
"d  c #5E5B59",
"f  c #625F5C",
"g  c #63615E",
"h  c #666361",
"j  c #696765",
"k  c #6A6866",
"l  c #6E6C6A",
"z  c #716E6C",
"x  c #73706E",
"c  c #767472",
"v  c #797775",
"b  c #7B7977",
"n  c #7D7C7A",
"m  c #9B1F1E",
"M  c #BF1B1B",
"N  c #9A201E",
"B  c #912121",
"V  c #C9191A",
"C  c #816C32",
"Z  c #867135",
"A  c #8A7435",
"S  c #957D37",
"D  c #987F36",
"F  c #967E38",
"G  c #817F7D",
"H  c #9A8137",
"J  c #9C8439",
"K  c #A08537",
"L  c #A28638",
"P  c #AA8D39",
"I  c #AE913A",
"U  c #B2933A",
"Y  c #BC9B3C",
"T  c #C6A43D",
"R  c #C9A63E",
"E  c #CCA93E",
"W  c #83807F",
"Q  c #CCAA40",
"!  c #858482",
"~  c #888785",
"^  c #898887",
"/  c #8C8B8A",
"(  c #918F8E",
")  c #92908F",
"_  c #959493",
"`  c #989695",
"'  c #9A9897",
"]  c #9E9C9B",
"[  c #A09F9D",
"{  c #A1A09E",
"}  c #A4A3A2",
"|  c #A8A7A7",
" . c #A8A8A7",
".. c #ACABAA",
"X. c #B0AFAF",
"o. c #B1B1AF",
"O. c #B4B3B2",
"+. c #B8B8B7",
"@. c #BDBCBC",
"#. c #C1C0BF",
"$. c #C4C4C4",
"%. c #C8C7C8",
"&. c #C7C8C8",
"*. c #CDCDCD",
"=. c #CFCFD0",
"-. c #D2D2D2",
/* pixels */
". X   ^ $...i . X . . . . . . . .   . .   . . . . . . . . . . . X X O.%.^ X X   ",
"X X r -.*.-.' X X X X X . X X X X X . . X . X X X X X . X X X . X ' -.&.-.r X X ",
"X X r -.*.-.+.X X X X X X X X X = Z F F F F A = X X X X X X X X X O.-.*.-.r X . ",
"@ _ ..-.*.-.} X X X X X X . , D T R R R T R R T F , X . X . X . X } -.*.=.| n # ",
"` -.*.-.*.-.s . X X X X X w Y T R T T E T T R T T Y C . X X X X X a -.*.-.*.=.' ",
"*.-.-.-.*.-.+.e X X X X 9 Y F Q R R R R R R E E R R R 9 X X X X e +.-.*.-.=.-.=.",
"-.-.=.-.-.-.=.O.X X X 3 Q 0 P S R E E E E E E E E R q T 1 o o o O.=.-.=.-.-.-.-.",
"k -.*./ } =.&.*.} e = Y U 5 U 8 w I T T T T T T A T S L Y = . ` *.*.-.| ..*.=.j ",
"X X X X # ..*.-.*.' w Q L Y w U U T R R R R R R H P T C Q C ( *.-.*...# ; l f X ",
"X X X X X 2 @.-.-.z < 8 8 8 8 9 9 9 9 8 8 8 8 8 8 8 9 9 7 7 u *.-.@.e X X X X X ",
"X X X X X X i $.@.> N N N N m N m m m m m m m m N N N N m m & +.$.u X X X X X X ",
"X X X X X X . h O.: V V V V V V V V V V V V V V V V V V V V B G g X X . X X X X ",
"X X X X . X X X f B M M M M M M M M M M M M M M M M M M V M m # X X X . X . X X ",
"X X X o + = O = + - - - - - - - - - - - - - - - - - - - - - * O = O O = O X X X ",
"X X X 7 Y Y Y Y Y Y Y Y Y Y Y Y Y Y Y Y Y Y Y Y Y Y Y Y Y Y Y Y Y Y Y Y J X X X ",
". X . = 5 6 5 8 5 6 8 6 8 8 8 8 8 8 8 8 8 8 7 8 8 8 8 8 8 8 8 8 7 7 7 7 3 . X X ",
"X X X X X X X X X W [ { ] [ ` n ) [ ] { [ ] [ ) n ` [ [ ] [ ` # X X X . X X X X ",
"X X X X X X X X . ) *.*.*.O.t X 2 ` &.*.*.*.} 2 . t { *.*.*.} . X X X X X X X X ",
"X X X X X X X X X g *.*.$.r X X X # O.*.=.+.; X . X ; #.*.*.z . X X X X X X X X ",
"X X X X X X X X X # &.-...X X X X X s -.-.) o X X X o z -.-.i . X X X X X X X X ",
"X X X X X X X X X X ' -.| X X X o . i *.=.) X X X X X j =.X.. X X X X X X X X X ",
"X X X X X X X X X X s =...o X X X X b -.-.' X X X X X ) -.z X X X X X X X X X X ",
"X X X X X X X X X X X ~ *.b X X X ; O.-.-.%.2 . X X 2 $.O.X X X X X X X X X X X ",
"X X X X   X . X X X X $ @.&.l t t } *.O.O.*.o.f t u o.#.t X X . X . X X X X . X ",
"X X . X . X X X . X X . r ..*.*.*.*.O.O o +.*.*.*.*.| 2 X X . X . X . . X . X . ",
"X X . X . X . X X . . X . $ ! &.*.*.%.b n %.*.*.*.W ; X X X . X X . X . X . X . ",
"X X . X . X . X X X X . X # v d ! ] $.%.*.$.' ! f g y X X X X X . X X . X X X X ",
"X X X X X X X X . X X X c l *.#.h b ) c n ! b ~ #.#.v v X . X X X X X X X X X X ",
"X X X X X X X X X X @ ~ } a ] &.G $.=.+.) *.o...*.O.g #.k . X X X X X X X X X X ",
"X X X X . X X X X X / *.} _ / c f &.*.$.' *.o.c / G l | $.a X . X X X X X X X X ",
"X X X X X X X X . h *.=._ +.*.O.p n / ^ z / ! u [ *.O.| *.+.; . X X X X X X X X ",
"X X X X X s X X p $.=.=.h a +.-._ O.-.$.' -.*.G &.@.z | -.-.} # X X X X X X X . ",
"X X . . ` *.o.z #.*.*.*.g { k n i X.*.$._ *.*.a c y ! ^ *.*.*.@.! @.$.` X . X . ",
". . . k &.*.&.*.&.&.&.{ o O.&.} x f ~ G j ~ p h } &.X.o } &.&.&.*.$.*.$.r . X . ",
". X . z =.-.-.-.=.-.W X X ' -.-.-.-.#.n b ] -.-.-.-.' . % +.-.=.-.-.-.=.l X X X ",
"X X . y %.-.=.-.-.#.o o X x -.-.-.-.-.-.-.-.-.-.-.-.x X X y -.-.-.-.-.$.u X o X ",
"X X X X f o.#.=.*.-.; X X $ @.=.=.*.-.*.-.*.-.*.=.@.$ X . u =.=.-.$.O.d X X X X ",
". o X X X X #.-.-.-.h X X o s *.-.-.-.-.-.-.-.-.=.s X X X h -.=.-.~ X X X X X X ",
". X X o X X ) -.*.-.$ X X X X j @.=.=.*.*.-.=.@.j X X X X h -.=.-.! X X X X X X ",
"X X . X X X 2 #.*.~ X X X X X X # W _ ( _ ) ) t . . X X X # } *...2 X X X X X X "
};
