/* XPM */
static char *monster1685567553[] = {
/* columns rows colors chars-per-pixel */
"32 32 219 2 ",
"   c #130C06",
".  c #041205",
"X  c #121A03",
"o  c #1B1D03",
"O  c #121408",
"+  c #1A1B15",
"@  c #231B02",
"#  c #221A0C",
"$  c #24170F",
"%  c #221412",
"&  c #271C1B",
"*  c #281819",
"=  c #241C11",
"-  c #1B230D",
";  c #1C2808",
":  c #1F2018",
">  c #182315",
",  c #22250C",
"<  c #2C220D",
"1  c #292707",
"2  c #22320C",
"3  c #283608",
"4  c #39380B",
"5  c #242414",
"6  c #24261C",
"7  c #2C2619",
"8  c #2C2919",
"9  c #2E2E12",
"0  c #322B1B",
"q  c #342A14",
"w  c #2C351D",
"e  c #293716",
"r  c #3D3D1C",
"t  c #363919",
"y  c #1E2221",
"u  c #302020",
"i  c #392B24",
"p  c #2D3525",
"a  c #323926",
"s  c #3D322B",
"d  c #363C2C",
"f  c #3A3B2B",
"g  c #373528",
"h  c #302D36",
"j  c #293231",
"k  c #39373B",
"l  c #262B27",
"z  c #493F1B",
"x  c #453922",
"c  c #4C3E22",
"v  c #43392D",
"b  c #4D3C2A",
"n  c #423127",
"m  c #513D25",
"M  c #433434",
"N  c #473A36",
"B  c #523537",
"V  c #305102",
"C  c #2E4018",
"Z  c #3A4719",
"A  c #3B5A16",
"S  c #3C4323",
"D  c #3E4C26",
"F  c #3C452E",
"G  c #3A4626",
"H  c #4B4212",
"J  c #40421E",
"K  c #4B4C1B",
"L  c #42561C",
"P  c #52531E",
"I  c #654B1C",
"U  c #4B4525",
"Y  c #46442B",
"T  c #4B422F",
"R  c #494B25",
"E  c #52452E",
"W  c #594B28",
"Q  c #435324",
"!  c #57512D",
"~  c #4D4234",
"^  c #4C4D3E",
"/  c #454836",
"(  c #554B3C",
")  c #564637",
"_  c #465533",
"`  c #555235",
"'  c #5D5633",
"]  c #51523B",
"[  c #5D513B",
"{  c #5D5F3F",
"}  c #585C34",
"|  c #684D28",
" . c #665D39",
".. c #635C32",
"X. c #486324",
"o. c #4F7125",
"O. c #57782A",
"+. c #4C6234",
"@. c #596B3A",
"#. c #527533",
"$. c #5C7B33",
"%. c #5B7339",
"&. c #5D7A3A",
"*. c #6F6E2E",
"=. c #6B6934",
"-. c #6D643D",
";. c #666337",
":. c #776B39",
">. c #7E7033",
",. c #667939",
"<. c #463B43",
"1. c #573F45",
"2. c #444041",
"3. c #5A4D43",
"4. c #594647",
"5. c #585847",
"6. c #5D4650",
"7. c #5D5855",
"8. c #675A48",
"9. c #635453",
"0. c #6C5E55",
"q. c #596F4B",
"w. c #5D7142",
"e. c #6F6447",
"r. c #736B44",
"t. c #677944",
"y. c #7F7C4E",
"u. c #767748",
"i. c #666B53",
"p. c #756A58",
"a. c #637551",
"s. c #6B7A53",
"d. c #7A7657",
"f. c #7C7562",
"g. c #847C4E",
"h. c #807643",
"j. c #877B5A",
"k. c #84776B",
"l. c #877A72",
"z. c #628824",
"x. c #69872F",
"c. c #6E932C",
"v. c #658838",
"b. c #7CA23B",
"n. c #648043",
"m. c #799549",
"M. c #6E8653",
"N. c #758854",
"B. c #7C8967",
"V. c #798174",
"C. c #84813C",
"Z. c #85834A",
"A. c #8C8849",
"S. c #90874E",
"D. c #9C944D",
"F. c #999847",
"G. c #8C8456",
"H. c #8E8B5E",
"J. c #878E58",
"K. c #91845C",
"L. c #948955",
"P. c #9D9554",
"I. c #9E9D54",
"U. c #9D945A",
"Y. c #9D9B5B",
"T. c #949259",
"R. c #84935A",
"E. c #A49D4D",
"W. c #A99D4D",
"Q. c #A29A46",
"!. c #A39553",
"~. c #A59D55",
"^. c #A99B55",
"/. c #A2965A",
"(. c #AA975B",
"). c #A59C5B",
"_. c #A99B5B",
"`. c #9EA24E",
"'. c #8DAB53",
"]. c #9FA054",
"[. c #9FA15B",
"{. c #A5A14F",
"}. c #A4A154",
"|. c #A9A254",
" X c #A5A15B",
".X c #AAA25B",
"XX c #938D65",
"oX c #998E64",
"OX c #938566",
"+X c #9B9462",
"@X c #93916C",
"#X c #9D926D",
"$X c #9A9964",
"%X c #8F8377",
"&X c #938C70",
"*X c #9E9B75",
"=X c #88846B",
"-X c #A49662",
";X c #A59B63",
":X c #AA9C62",
">X c #A39D6C",
",X c #A5936B",
"<X c #A18F7B",
"1X c #A89F73",
"2X c #9EA164",
"3X c #93B365",
"4X c #97AF71",
"5X c #A2A263",
"6X c #ADA361",
"7X c #A6A16A",
"8X c #ABA36B",
"9X c #ABA964",
"0X c #B1A464",
"qX c #B5AB66",
"wX c #B3A36C",
"eX c #ABA372",
"rX c #A8A676",
"tX c #B5A37B",
"yX c #B6A68A",
/* pixels */
";X).^.E.}.].).)._..X X_._.(._.!.).6X!.6X;X/.6X!.}.).;X;X~.~.~.~.",
")._.^.~.].[.Y.).!.E.}..X!.:X!.).)./.~.!. X).P. X~.).).).~.~.~.~.",
"_.~.~.~.Y.[.;X)..X^.E..X0XP.).).L.7X^.|.|.E.~.~.|.~.~.~.~.~.~.~.",
"~.~.~.~.).).).~.Q.|.D.!.S.eX>X=.-.g.eXC.F.|.}.~.~.~.~.~.^.).).~.",
").).).}. X).~.~.W.E.qXh.j.f.4.g ^ 8 d.XX*.P._.).)._.~.~.).).~.~.",
").).].).).).~.~.W.~.;XoXi./ + 5.d 5 - 5.Z.5XU.).;X).^.^.~.^.}.~.",
").Y.].I.^._.~.~.}.D.8XoXa , w 2 ; w p O R =.D..X/._._.^.).~.~.~.",
").}.].~.^._.~.~.~.:X-XoX} a.Q 3 &.M._ i.@.K Z._._._._.^._.~.~.~.",
").[.].].^.^.~.).).-X1X&X; +.N.m.v.#._ F X Y eX:X^._._.).(.)._.).",
").~.].~.W.^.~.).).eX&X@ ; +.m.v.o.X.%.2 + & ` ,X_.^._._.)._.).).",
").Y.].E.^.^.^.).;X,Xx 0 a a.X.O.#.#.M._ : k   e.:X^.!._.).).~.).",
").).~.}.E.~.~.).7Xr.< 8 w s.L V v.A n.w l h & < ;X_.^.^.).).~.).",
"~.).~.~.~.~.).).;X4 9 1 Z @.x.z.z.o.v.C > g 7 o P.~.}.~.^.).).).",
"~.~.^.~. X).).).U.@  .f X t.'.c.b.v.v.2 X / ] @ L.~..X^.!.)..X~.",
"~.^.^._.).Y.).)._.g.r - , S 4X3Xb.3Xq.. p d r =.U.).).^._..X~.E.",
"~.~.^.~.I.}.~.~.8XZ.} _ ^ 5 C Q A Z > j V.5.K u.;X)._.^.~.^.E.~.",
"_.~.|.F.`.`.|.).7XP R.%.f 5 * $ + % O h i.B.s.R Y.^.^.^._.^.E.~.",
"!.).}.).9X~.~.).T.4 Z D O 2.6.1.1.9.<.6 o D D 2 T._.^.!.^.~.}.~.",
"(.:XeXu.G.;X_.:XK.' ] p + <.6.B 8.3.9./ ] ] Y < XX[.I. X_.(.:X/.",
"wXS.e.&Xd.#XtX,XyX` ; a k k 4.B ~ [ k   ^ 9 @ ` *X5XU.).0X:X:X;X",
"j.j.<X=Xk.i b ) U r u.,.w f N b m b v < 3 a.N.S ! | | I >./.).Y.",
"OX .` d.5.5 T U r 4 ,.X.2 f r b m z ` a 3 L %.4 E I | I >._.).2X",
" XZ.R Y Y @X$XY.2XR.Z _ S _ U ..G.W ~ T g.K P g.>X+XU.P.~.^.Y.).",
"{..XrX;.H.5X X}.$X2XrXB.v t z ,X>X! g q H.8X;X7X$X;X X~.W.~.(.:X",
"~.~._..X X}.W.E.!.1X+Xd.3.i < j.j.[ v # @.7XY.Y.).).^.^.W.W._.).",
"^.^.^.^.^.~.W.W.:XoXeXk.$ & e.yX<Xb + M >X2X[.).)._.(.^.W.W.).Y.",
"(.(.-X-X).E.E.~./.1X .z s 0 3.l.B i M n +XY. XY._.:X(._.~.~.).).",
"_._.;X>X~.~.{.~.-Xg.OXk.0.s i l.l.k.s q H 8XU.)._._.(.).~.~._.).",
";X).). X}.}.{.].+X.. .[ 9.M o e.[  .9.@ H qX/.:X~.~._.~.)._.).;X",
").~.}.}.}.}.].].>XG.-. .p.p.u.;.e. .e.-.U.!._.:X~.~.~.^.^.).).).",
"~.~.~.~.~.~.~.I.;X).qXqX8X1X7X8XeX8XwX:X|.|.^.^.~.~.^._.).).^.~.",
"W.^.^._.).~.).)._._.Q.Q.~.!. XI.Y.;X).).{.Q. X^.^.^._._.).~.~.E."
};
