/* XPM */
static char *result[] = {
/* columns rows colors chars-per-pixel */
"40 40 212 2 ",
"   c #2B2B18",
".  c #24241C",
"X  c #303010",
"o  c #3A3916",
"O  c #393907",
"+  c #242424",
"@  c #2C2C2C",
"#  c #39392A",
"$  c #333333",
"%  c #3B3B3B",
"&  c #3C3C35",
"*  c #504D0E",
"=  c #585604",
"-  c #434211",
";  c #4B4A16",
":  c #55531B",
">  c #625E1A",
",  c #696600",
"<  c #787400",
"1  c #7C7B02",
"2  c #747100",
"3  c #6B6918",
"4  c #706D13",
"5  c #716E1D",
"6  c #7C7816",
"7  c #75711D",
"8  c #7E7C1C",
"9  c #787619",
"0  c #494728",
"q  c #47462C",
"w  c #535123",
"e  c #54532A",
"r  c #5D5B2B",
"t  c #45453A",
"y  c #49483A",
"u  c #54543E",
"i  c #58573C",
"p  c #605F36",
"a  c #6E6E20",
"s  c #67662A",
"d  c #7A7926",
"f  c #6C6B34",
"g  c #69673B",
"h  c #706E3B",
"j  c #737134",
"k  c #75743B",
"l  c #7B7A3C",
"z  c #7D7B35",
"x  c #444444",
"c  c #4B4B4B",
"v  c #484841",
"b  c #5A5943",
"n  c #535353",
"m  c #5C5C5C",
"M  c #5A5A56",
"N  c #6D6C41",
"B  c #656449",
"V  c #757544",
"C  c #7B7947",
"Z  c #626255",
"A  c #666658",
"S  c #706F54",
"D  c #7A7957",
"F  c #72725C",
"G  c #7A795C",
"H  c #737351",
"J  c #636363",
"K  c #6C6C6C",
"L  c #7D7C64",
"P  c #71716A",
"I  c #78786A",
"U  c #737373",
"Y  c #7C7C7C",
"T  c #7E7E75",
"R  c #807E32",
"E  c #807E4D",
"W  c #807F6B",
"Q  c #807F75",
"!  c #848200",
"~  c #898500",
"^  c #8C8A01",
"/  c #928F00",
"(  c #969400",
")  c #999600",
"_  c #9D9A00",
"`  c #9B970F",
"'  c #868419",
"]  c #999619",
"[  c #A29E01",
"{  c #A29E12",
"}  c #A5A200",
"|  c #A8A400",
" . c #AEA800",
".. c #A9A60A",
"X. c #B3AD04",
"o. c #BBB400",
"O. c #BBB505",
"+. c #ABA518",
"@. c #B2AC18",
"#. c #BCB517",
"$. c #87872D",
"%. c #888725",
"&. c #908E21",
"*. c #999726",
"=. c #8C8932",
"-. c #888636",
";. c #949336",
":. c #9D993A",
">. c #9A963A",
",. c #A19D2C",
"<. c #A19F3A",
"1. c #AAA523",
"2. c #ADA92B",
"3. c #A7A524",
"4. c #B7B326",
"5. c #A4A33F",
"6. c #AEAA35",
"7. c #B7B237",
"8. c #C3BC00",
"9. c #C3BA13",
"0. c #C3BC2A",
"q. c #CFC600",
"w. c #C7C008",
"e. c #D5CC03",
"r. c #D1C717",
"t. c #C8C337",
"y. c #CAC123",
"u. c #8B8B4C",
"i. c #87864A",
"p. c #908D43",
"a. c #91914B",
"s. c #989549",
"d. c #858454",
"f. c #81815E",
"g. c #8B8A5B",
"h. c #8A885A",
"j. c #9D9A51",
"k. c #94935C",
"l. c #A09D40",
"z. c #A19E55",
"x. c #AAA64B",
"c. c #B2AE49",
"v. c #B9B44C",
"b. c #BBB642",
"n. c #A8A55B",
"m. c #A7A453",
"M. c #B6B250",
"N. c #B7B458",
"B. c #B0AC5B",
"V. c #8A8A64",
"C. c #8C8C6A",
"Z. c #838367",
"A. c #908F66",
"S. c #999664",
"D. c #92916A",
"F. c #979668",
"G. c #878779",
"H. c #8D8C7D",
"J. c #8A8A76",
"K. c #908E73",
"L. c #9A9A74",
"P. c #93937C",
"I. c #989778",
"U. c #A19F68",
"Y. c #A09F7E",
"T. c #A09E73",
"R. c #ADAA62",
"E. c #A8A565",
"W. c #B2AF66",
"Q. c #B6B263",
"!. c #BAB76A",
"~. c #A5A373",
"^. c #A9A776",
"/. c #ACAB7A",
"(. c #A7A579",
"). c #B2AF79",
"_. c #B4B17C",
"`. c #B8B677",
"'. c #C4BE48",
"]. c #C3BF63",
"[. c #C0BC70",
"{. c #D2CE7D",
"}. c #CBC776",
"|. c #848484",
" X c #8D8C82",
".X c #8B8B8B",
"XX c #949485",
"oX c #959489",
"OX c #9C9B85",
"+X c #939393",
"@X c #9B9B9B",
"#X c #9B9A90",
"$X c #A09F92",
"%X c #A4A48B",
"&X c #ADAC8D",
"*X c #A4A383",
"=X c #B1AF84",
"-X c #B6B486",
";X c #A2A295",
":X c #A8A798",
">X c #B7B698",
",X c #A3A3A3",
"<X c #ACACAC",
"1X c #B2B2B2",
"2X c #BABABA",
"3X c #C1BF8E",
"4X c #C0BE9E",
"5X c #CFCEB1",
"6X c #C2C2C2",
"7X c #CBCBCB",
"8X c #D3D3D3",
"9X c #D9D9D9",
/* pixels */
"x % % x x % n E 6 6 E |.|.|.k 4 A @ Z Y |.|.E 6 b m x @ % % % % % % x x x % x x ",
"J J J J J c U 5Xo.O.n.`.t.7X>Xo.d.@ ,X6X/.W.2.[ d J x @ k ` R G G.C g n B B m m ",
",XT.,X+X.X% U 9X| _ i.4.2.1X,X*.p @ ,X,X.XU.L 1 b J % @  .q.< G.6Xq.e.m @.1..X<X",
"<X,.l Y U % U 7X( 2 Y +X,X*.G.d.u @ m 4.5.oX.Xr K c & @ | ~ U Q.e.f.) M d 4 Z oX",
"1XG.+X|.J $ K 8XV.G @X,X,X%.,X.Xn @ n J.L.#X+X.XY % $ $ ! g |.j.6.G < M U U G H ",
"+X+XU J x + J 9X,X.Xx.x..X+X+X+XM + c n c x % $ $ @ @ % |.@XD.P.|.+XJ |.+XoX@XY ",
"U K J x % + J 9X+X.X7.,.|.+X+X.XM @ % % $ % v c n y & % |.@XC T n.K U U U K U K ",
"% % $ + + @ m 2X1XG.1.-.|.+X|.V.m @ % m g.Q.6X6X8X[.: % U |.K Z f x x x x % % % ",
"@ @ $ @ $ $ n |.6X@X+X+X@X.X+XA n @ $ .Xe.:.+X_.;X-.w @ $ $ $ $ $ $ $ @ + + @ + ",
"c % % % $ % c m 1X@XR.>..X+X+Xs M $ $ .XX.Z.n.r.P.s w x x c c $ x x x x x x x x ",
"=XW.2Xx.J.M $ c <X=.V.d.|.|.+XU J $ @ #.k..Xx.] .XB x % 8._ n c |.c.c.=X;X^.c.>X",
"#.1.7.( B n $ c Y W Y Q Y K U J M $ + h.|.K.u.b J n % $ _ j x n R.w.j.#.D.N.} C.",
"*.U.| < i n @ n n Y J n n n x x $ + + Y K M x @ @ @ + x ;.f.% n (.j.+X] J.M.( f.",
"@XI.' m Y v $ c x $ + + . + . @ @ @ @ x n 0 o ; t @ $ K <X<X% c @X;X#X+X+X@X' I ",
"n.>.Y |.U x @ m +.` k .X.Xc % j ..+.:.7X9Xt.O.o.] : x ,X7X1Xc c .X:X#X@XQ.+X+X,X",
"a.a.+X.XJ % @ 9 } %.U K U $ c !.E.D.%X%X@XD.a.$.! - c _.@X<X4 r ,.|.B.8.-.Z.|.|.",
"A A J M % $ @ 7 ' K V.d g @ c 6X}.(.1.I.4.I.S.I.h o c j.|.<X; q ; x > = * y n n ",
"% $ @ @ + @ % V.k @XV.d f @ x 6X!.M.' @Xm.XXL.g.K X e _.,X6X# % $ @ + + + + @ $ ",
"m U V.+X+X+Xn |.@X,Xu.Y K O % 6X!.x.a +X+X,Xm.%.m X : }.2X&X% & 0 e e e q % % x ",
".Xc.[ Y ,X<Xm |.<X,XG.|.U O % @X7.( F @X@X.Xx.8 M X : `.5X..% v $.! [ } [ ' U c ",
"=.` H +X3.-.n |.<X@XI.H.Y O @ Y /.s.s.P..X|.>.8 n @ e >X=X< % m ,XA.^ k 3 g J c ",
"G I.oX X+.j n Y ,X@X^.oXP O @ P 7XQ.^ Z.+XXX:.d v . f <XI., X J 2XT.1 G.T |.n x ",
"+X<X@XI.^ j c U 2X+X .D.Y O + M <XE.N Y @Xk.$.K x @ n @XL = o m <XL.R |..X+Xc % ",
",X1XOXg.a Y n K 6X@X+X.XY - . x Y ,XY K J M m J % @ c v & * % c c t q x c x x % ",
"@X2XOXP.:.u.n n 7X+X,XY |.u   % c c % $ $ @ & % $ $ x c c c x x x % $ $ $ $ $ $ ",
"D.@.j.F.^ j c $ 9X@XV..X|.b   $ b a 3 5 5 f J U Y .X.X+X+Xj...) a.*X>.U.p.C.K c ",
"=.]  XoXz N % % 9X+XV .XU b   @ a o.o.o.o.| k.1X<X>X%X1X>XX.*.3.`.b.`.v.X.*.M x ",
"=.&..X@X+XU $ % 8X,X|..XY b   @ 3 o.| | | _ $.<X<XN.3.,XOXj./.#.+..X<X-.] D c % ",
"g Z.+X.X|.n $ x 2X.X@X.XU c + @ c @XI.~ ~ 1 5 |.2X,X.X,X~.;Xj.Y .X_.;X+Xs.K c $ ",
"J |.U m n % + x @X,X+X.XK c + @ c 7X4XV S F |.K.&X<X@XQ./.XX+X.X@XX.*X@XZ.U x $ ",
"c x t % x $ % x M c c c c x + @ c 2X1X+X@X2.) @X.X,X@X).:.L.=X,X(.S.,X+XE.d.c $ ",
"n M r w % $ % x $ @ @ + @ @ + + x |.P K K a 4 .X|.XX(.@.$..X@X+X@X.X+XF..XY x $ ",
"K M.e.w.6.d I J c % $ $ $ $ $ $ x c % $ $ $ % m K C D r K J J K U J Y J J J $ $ ",
"U '.9.oX@X,X>X0.0.8.o.| | | l Y Y P K m n v % @ @ $ + @ @ @ @ + + + + + + + $ x ",
"Y 2X:X1X<X<X1X1X1X*XD.A.A.^ ! +X2X{.'.1Xm c c x % & % % $ $ $ $ $ $ $ $ % % x c ",
"U 2X2X,X0.! %X2X2X2X3X`.,X,X,X@X,X-Xg.U % % c ) ) R |..Xn j X. .%.] I g.L K n n ",
"U oXU J a r K U U U U U U |..XK K U J n x @ t i.R j ,X1Xm L S.A.A.Q.@X@.D.<XJ c ",
"M x $ @ @ @ @ @ @ @ @ @ @ @ @ @ @ @ @ @ @ + % F , F K Y m K .X%X0.2.,X' I +Xx v ",
"n x % $ $ $ $ @ $ @ @ @ $ @ @ $ @ @ @ @ @ @ $ t O $ + + @ x c : 0 x : 0 v x % c ",
"% x % % % x % % % % % % $ % $ % $ % % % % % % % % % % % % % $ $ $ $ $ $ $ $ $ % "
};
