/* XPM */
static char *de0d99b4c9f441f2dac2a7328ece66f8q9e7C15KCae1UA7t[] = {
/* columns rows colors chars-per-pixel */
"80 80 153 2 ",
"   c #060606",
".  c #0C0C0C",
"X  c #140D0E",
"o  c #131313",
"O  c #191616",
"+  c #1C1718",
"@  c #1B1B1B",
"#  c #211B0F",
"$  c #221F16",
"%  c #221919",
"&  c #2F181A",
"*  c #2B2414",
"=  c #23201A",
"-  c #29251D",
";  c #312813",
":  c #332B19",
">  c #232323",
",  c #2C2C2C",
"<  c #333333",
"1  c #3C3C3C",
"2  c #4D3E1C",
"3  c #542326",
"4  c #5A2529",
"5  c #5F2B2E",
"6  c #403B31",
"7  c #6C272B",
"8  c #622C2F",
"9  c #6D2A2E",
"0  c #6E2D31",
"q  c #772E32",
"w  c #4F401F",
"e  c #4F4020",
"r  c #514324",
"t  c #5B4A26",
"y  c #55492F",
"u  c #5E4D2A",
"i  c #5F502D",
"p  c #5E5236",
"a  c #604F2B",
"s  c #60502C",
"d  c #745D2B",
"f  c #685A3C",
"g  c #7F652E",
"h  c #786334",
"j  c #444444",
"k  c #4B4B4B",
"l  c #535353",
"z  c #585652",
"x  c #5C5C5C",
"c  c #78705D",
"v  c #636363",
"b  c #6B6B6B",
"n  c #736E62",
"m  c #757575",
"M  c #7C7C7C",
"N  c #8E2A2F",
"B  c #8E2D33",
"V  c #902F35",
"C  c #8F3137",
"Z  c #8E3238",
"A  c #903137",
"S  c #9B363C",
"D  c #A1343B",
"F  c #B6363E",
"G  c #B5383F",
"H  c #83672C",
"J  c #85692E",
"K  c #866B32",
"L  c #886D32",
"P  c #9B7B36",
"I  c #997B39",
"U  c #B53B42",
"Y  c #B93A41",
"T  c #917943",
"R  c #AC8737",
"E  c #A1813E",
"W  c #B38C37",
"Q  c #B08B3B",
"!  c #BA923C",
"~  c #CB9D3B",
"^  c #D2A23A",
"/  c #E5B03F",
"(  c #EAB43E",
")  c #F7BC3E",
"_  c #BE9640",
"`  c #89867F",
"'  c #DDAD44",
"]  c #E2AF42",
"[  c #E5B244",
"{  c #E9B543",
"}  c #EEB945",
"|  c #E5B349",
" . c #EBB748",
".. c #EDB949",
"X. c #F3BC44",
"o. c #F8BF43",
"O. c #F2BD48",
"+. c #FCC143",
"@. c #848484",
"#. c #8C8C8C",
"$. c #939393",
"%. c #999691",
"&. c #9C9C9C",
"*. c #A4A29E",
"=. c #A3A3A3",
"-. c #A9A7A3",
";. c #A8A8A5",
":. c #ABABAB",
">. c #B4B4B4",
",. c #BDBDBD",
"<. c #BABABA",
"1. c #C3C3C3",
"2. c gray78",
"3. c gray77",
"4. c #C4C4C4",
"5. c #C8C7C6",
"6. c #C9C9C9",
"7. c #CBCBCB",
"8. c #D2D2D2",
"9. c #D7D7D7",
"0. c #D4D4D4",
"q. c #D8D8D8",
"w. c gray85",
"e. c #DBDBDB",
"r. c #DFDFDF",
"t. c #DDDDDD",
"y. c #DCDCDC",
"u. c #E3E3E3",
"i. c #E1E1E1",
"p. c #E4E4E4",
"a. c gray90",
"s. c #E6E6E6",
"d. c #E7E7E7",
"f. c #E4E4E4",
"g. c #E9E9E9",
"h. c gray91",
"j. c #EAEAEA",
"k. c #EDEDED",
"l. c #EBEBEB",
"z. c gray94",
"x. c #F1F1F1",
"c. c #F3F3F3",
"v. c #F4F4F4",
"b. c gray96",
"n. c #F7F7F7",
"m. c #F3F3F3",
"M. c gray98",
"N. c #FBFBFB",
"B. c #F8F8F8",
"V. c #FEFEFE",
"C. c white",
"Z. c #FDFDFD",
"A. c #FFFFFF",
/* pixels */
"C.C.C.C.C.C.C.C.C.C.C.C.C.C.C.C.C.C.C.C.C.C.C.C.C.C.C.C.C.C.C.C.C.C.C.C.C.C.C.C.C.C.C.C.C.C.C.C.C.C.C.C.C.C.C.C.C.C.C.C.C.C.C.C.C.C.C.C.C.C.C.C.C.C.C.C.C.C.C.C.",
"C.C.C.C.C.C.C.C.C.C.C.C.C.C.C.C.C.C.C.C.C.C.C.C.C.C.C.C.C.C.C.C.C.C.C.C.C.C.C.C.C.C.C.C.C.C.C.C.C.C.C.C.C.C.C.C.C.C.C.C.C.C.C.C.C.C.C.C.C.C.C.C.C.C.C.C.C.C.C.C.",
"C.C.C.C.C.C.C.C.C.C.C.C.C.C.C.C.C.C.C.C.C.C.C.C.C.C.C.C.C.C.C.C.C.C.C.C.C.C.C.C.C.C.C.C.C.C.C.C.C.C.C.C.C.C.C.C.C.C.C.C.C.C.C.C.C.C.C.C.C.C.C.C.C.C.C.C.C.C.C.C.",
"C.C.C.C.C.C.C.C.C.C.C.C.C.C.C.C.C.C.C.C.C.C.C.C.C.C.C.C.C.C.C.C.C.C.C.C.C.C.C.C.C.C.C.C.C.C.C.C.C.C.C.C.C.C.C.C.C.C.C.C.C.C.C.C.C.C.C.C.C.C.C.C.C.C.C.C.C.C.C.C.",
"C.C.C.C.C.C.C.C.C.C.C.C.C.C.C.C.C.C.C.C.C.C.C.C.C.C.C.C.C.C.C.C.C.C.C.C.C.C.C.C.C.C.C.C.C.C.C.C.C.C.C.C.C.C.C.C.C.C.C.C.C.C.C.C.C.C.C.C.C.C.C.C.C.C.C.C.C.C.C.C.",
"C.C.C.C.C.C.C.C.C.p.7.7.7.c.C.C.C.C.C.C.C.C.C.C.C.C.C.C.C.C.C.C.C.C.C.C.C.C.C.C.C.C.C.C.C.C.C.C.C.C.C.C.C.C.C.C.C.C.C.C.C.C.C.C.l.4.2.2.k.C.C.C.C.C.C.C.C.C.C.C.",
"C.C.C.C.C.C.C.C.C.$.@ @ > 7.C.C.C.C.C.C.C.C.C.C.C.C.C.C.C.C.C.C.C.C.C.C.C.C.C.C.C.C.C.C.C.C.C.C.C.C.C.C.C.C.C.C.C.C.C.C.C.C.C.C.>.O @ O 1.C.C.C.C.C.C.C.C.C.C.C.",
"C.C.C.C.C.C.C.n.<.@.k k k =.<.N.C.C.C.C.C.C.C.C.C.C.C.C.C.C.C.C.g.>.<.<.<.<.<.<.>.<.<.<.<.c.C.C.C.C.C.C.C.C.C.C.C.C.C.C.C.C.C.<.$.k k k &.2.n.C.C.C.C.C.C.C.C.C.",
"C.C.C.C.C.C.C.p.  m n.n.k.1   n.C.C.C.C.C.C.C.C.C.C.C.C.C.C.C.C.>.. O . o . o o   o . . @ 8.C.C.C.C.C.C.C.C.C.C.C.C.C.C.C.C.N.  l Z.c.B.j < 9.C.C.C.C.C.C.C.C.C.",
"C.C.C.C.C.C.C.p.O m p.g.r.1 o v.C.C.C.C.C.C.C.C.C.C.C.C.v.@.b m c P I P I P I I P P P P I n b m &.C.C.C.C.C.C.C.C.C.C.C.C.C.N.@ x d.p.d.k 1 e.C.C.C.C.C.C.C.C.C.",
"C.C.C.C.C.C.C.p.  m c.v.d.1   n.C.C.C.C.C.C.C.C.C.C.C.C.l.<   . w X.} X.X.X.} { ) } X.X./ ;   . l C.C.C.C.C.C.C.C.C.C.C.C.C.N.  l n.z.c.j < 9.C.C.C.C.C.C.C.C.C.",
"C.C.C.C.@.l l x >.7.p.$.l &.>.N.C.C.C.C.C.C.C.C.C.:.l l z E W Q ! { | { | | | | { | { { | ! W Q T l l l 7.C.C.C.C.C.C.C.C.C.C.>.$.k #.d.<.=.x l l ;.C.C.C.C.C.C.",
"C.C.c.e.v , < 1 k.g.g.@.< <.q.Z.C.C.C.C.C.C.C.N.e.` * : : ~ ) { { } { { { { { [ ( { { { { { { { R * * * ;.i.N.C.C.C.C.C.C.C.C.e.&., M l.l.7.j < > @.e.z.C.C.C.C.",
"C.C.:.> ;.r.q.y.n.k.c.d.9.j > v.C.C.C.C.C.C.C.p.> h ' ' ' } X.....X. .X...O. . .+...X.X...X.O.O.[ [ ^ ' y j 9.C.C.C.C.C.C.C.N.> v f.i.c.z.x.r.y.p.M > ;.C.C.C.C.",
"C.C.;.  ;.d.p.i.0.e.p.g.r.k > 9.p.C.C.C.C.N.p.5.# h [ [ [ [ ( [ { { [ { [ { [ [ { [ [ { [ { / [ { / } ( t 6 ,.p.C.C.C.C.N.p.r.> v d.p.p.9.9.f.f.l.M . &.C.C.C.C.",
"C.C.;.. >.n.c.f.. m n.n.n.n.C.o l C.C.C.C.e.1 * +...+.O.+.+.+.O.X.+.O.+.O.X.O.O.+.O.+.X.o.o.+.X.O.+.o.+.X.^ : < C.C.C.C.g.< . N.c.C.c.N.j < 9.c.C.M . &.C.C.C.C.",
"C.C.7.m @.@.@.@.m M @.,.p.d.g.m M $.>.C.:.M , = H K J K J J J K K H K K K K K K H K J K K J J K L H K J K d > , #.1.Z.,.#.M m p.u.p.,.@.M m @.@.@.M m 7.C.C.C.C.",
"C.C.C.C.l . o > C.#.. @.g.z.c.g.:.  v C.l . o .   o . o . .   . o   o   o . o o   o . . . .   . o   .   . . o o   M N.b @ 7.z.z.k.k.$.  1.9., .   #.N.C.C.C.C.C.",
"C.C.C.C.>.#.$.$.C.7.#.M m 0.l.i.7.#.@.m < % 8 0 9 0 0 0 0 9 7 9 0 9 0 7 0 8 0 0 7 0 9 9 9 9 9 9 0 7 0 7 0 0 0 8 o j M @.$.q.d.g.1.b M #.i.g.&.$.#.2.C.C.C.C.C.C.",
"C.C.C.C.C.C.C.C.C.C.C.@.> ,.p.g.g.c.&.. O & S U F U U U U G F U U F U F U U U U F U G G Y G G G U F Y F U U U S X O . $.l.k.z.u.=.@ m C.C.C.C.C.C.C.C.C.C.C.C.C.",
"C.C.C.C.C.C.C.C.C.C.C.d.2.l < d.l.c.=.o q D U U Y U Y U Y Y Y U U Y U Y U U U U G U Y U U Y U U U Y Y Y U Y U U S 4 o $.z.z.z.< b 8.u.C.C.C.C.C.C.C.C.C.C.C.C.C.",
"C.C.C.C.C.C.C.n.2.2.2.2.,., . <.<.<.@.  9 B Z C B A B Z C V N A Z B A B Z Z Z Z N C N A C B B C B B B B Z B Z Z N 3 . m <.<.<.. j 7.7.2.5.8.m.C.C.C.C.C.C.C.C.C.",
"C.C.C.C.C.C.C.i.@ @ @ @ @ @ o = @ @ @ O @ @ @ @ O @ @ @ @ @ o @ @ @ @ @ @ @ @ = O @ @ O @ O @ @ @ @ @ O @ @ @ @ O @ @ @ @ O O @ @ O @ @ @ 1 9.C.C.C.C.C.C.C.C.C.",
"C.C.C.C.C.n.2.;.2 e e e e e 2 r r 2 r 2 r r r r 2 r r r e w 2 r r 2 r 2 r e r e 2 r w e w w w e r 2 e 2 e e r r w e e e e w w w r 2 r 2 r p *.1.C.C.C.C.C.C.C.C.",
"C.C.C.C.C.r.j $ +.} ) X.X.X.+.X.} +.} +.X.X.} X.+.} X.X.X.X.+.X.X.o.} +.X.X.X.} o.} ) ) X.X.) X.) o.X.o.X.X.} } +.} +.} X.X.+.X.X.o.X.X.X.^ * < C.C.C.C.C.C.C.C.",
"C.C.C.C.C.c.>.&.t a u u u u u i s t a t a a s u t s u a u u u u u t u u u u i u t i u u u u u u u t u u u u i u t i t u t u t u i u u t a f %.>.C.C.C.C.C.C.C.C.",
"C.C.C.C.C.C.C.i.  X . .   .   o o   o   o   o .   o . o . .   . o   o   . . o o   o .   . .   o .   .   . . . o   o   o . .   . .   o   . , q.C.C.C.C.C.C.C.C.C.",
"C.C.C.C.C.C.C.n.>.<.<.<.<.<.>.<.@.o k >.>.>.>.>.>.:.>.>.>.>.<.>.>.>.>.>.>.>.:.>.>.>.>.>.>.>.>.>.>.<.>.>.>.>.>.>.>.>.>.z = &.>.<.<.>.<.<.<.1.m.C.C.C.C.C.C.C.C.C.",
"C.C.C.C.C.C.C.C.C.C.C.C.C.C.C.C.<.  x k.p.g.p.g.k.g.d.9.2.7.7.7.0.g.d.l.l.g.d.p.k.d.l.l.u.8.7.7.7.7.e.k.d.l.d.d.k.d.l.b = 9.Z.C.C.C.C.C.C.C.C.C.C.C.C.C.C.C.C.C.",
"C.C.C.C.C.C.C.C.C.C.C.C.C.C.C.C.>.o v n.k.c.k.z.n.k.z.` , > > , v n.l.n.k.c.k.l.n.l.m.z.p.k > , > > m n.l.x.l.l.n.g.v.b > 9.C.C.C.C.C.C.C.C.C.C.C.C.C.C.C.C.C.C.",
"C.C.C.C.C.C.C.C.C.C.C.C.C.C.C.C.<.. x f.r.i.i.i.f.q.7.v o o . o k 2.8.r.i.i.r.r.i.i.i.q.,.< o o @ . v 7.t.i.i.t.f.i.i.b @ q.C.C.C.C.C.C.C.C.C.C.C.C.C.C.C.C.C.C.",
"C.C.C.C.C.C.C.C.C.C.C.C.C.C.C.C.>.. v C.c.n.m.n.C.#.o o o . . o o . b Z.b.B.c.c.C.c.N.b o o . . o . . . <.n.v.v.C.c.n.m > 0.C.C.C.C.C.C.C.C.C.C.C.C.C.C.C.C.C.C.",
"C.C.C.C.C.C.C.C.C.C.C.C.C.C.C.C.<.o v d.i.a.a.w.M l o @ @ o o @ @ o j M 6.f.f.r.d.>.M j o o o @ @ o o o v #.9.u.a.p.p.b > q.Z.Z.C.C.C.C.C.C.C.C.C.C.C.C.C.C.C.C.",
"C.C.C.C.C.C.C.C.C.C.C.C.C.C.C.C.>.  x v.k.k.k.9.  o . o . .   . o   o   >.z.l.l.x.@.. . . .   . o   .   . < 7.l.v.z.x.b @ 9.C.Z.C.C.C.C.C.C.C.C.C.C.C.C.C.C.C.C.",
"C.C.C.C.C.C.C.C.C.C.C.C.C.C.C.C.>.. x z.d.k.d.9.. o o o o o . o O . @ o >.z.g.d.x.@.. o o o . o o . o o o < 6.l.x.l.k.b > 0.C.C.C.C.C.C.C.C.C.C.C.C.C.C.C.C.C.C.",
"C.C.C.C.C.C.C.C.C.C.C.C.C.C.C.C.<.@ v a.a.j.d.9.. @ o O o . . o o . o . >.l.l.d.x.M o o o o o o o . o . o < 6.d.x.f.u.b , q.C.C.C.C.C.C.C.C.C.C.C.C.C.C.C.C.C.C.",
"C.C.C.C.C.C.C.C.C.C.C.C.C.C.C.C.z.8.&.< <.z.k.9.. o o o o o . O O . O . >.z.l.g.v.@.o o o . o o O o o . o < 7.k.n.$.< #.0.n.C.C.C.C.C.C.C.C.C.C.C.C.C.C.C.C.C.C.",
"C.C.C.C.C.C.C.C.C.C.C.C.C.C.C.C.Z.Z.=.. :.a.u.9.j < o o . o . o O . , j <.d.f.f.p.&.j > o o . o o . o o 1 x 7.u.d.M o $.C.C.C.C.C.C.C.C.C.C.C.C.C.C.C.C.C.C.C.C.",
"C.C.C.C.C.C.C.C.C.C.C.C.C.C.C.C.C.C.=.o >.z.k.z.n.#.@ @ O O o @ @ o b c.l.x.l.l.B.k.v.m @ o O O @ o @ o >.x.k.l.n.@.@ &.C.C.C.C.C.C.C.C.C.C.C.C.C.C.C.C.C.C.C.C.",
"C.C.C.C.C.C.C.C.C.C.C.C.C.C.C.C.C.C.1.l #.=.9.u.d.=.x < o o . o , l #.d.f.f.f.r.p.f.p.$.l @ o o o . , l 1.u.u.9.&.@.l >.C.C.C.C.C.C.C.C.C.C.C.C.C.C.C.C.C.C.C.C.",
"C.C.C.C.C.C.C.C.C.C.C.C.C.C.C.C.C.C.C.C.l < 2.v.Z.k.n.m o . . o l M.k.M.z.v.z.z.N.k.b.v.d.< o o . . b N.c.n.c.7.. M N.C.C.C.C.C.C.C.C.C.C.C.C.C.C.C.C.C.C.C.C.C.",
"C.C.C.C.C.C.C.C.C.C.C.C.C.C.C.C.C.C.C.C.l < 4.d.k.l.g.1.;.;.;.=.>.k.g.k.@.x x x x =.l.k.a.>.=.=.=.;.1.k.g.l.g.7.o @.N.C.C.C.C.C.C.C.C.C.C.C.C.C.C.C.C.C.C.C.C.C.",
"C.C.C.C.C.C.C.C.C.C.C.C.C.C.C.C.C.C.C.C.l , 2.x.n.k.c.k.z.c.B.x.k.v.k.v.k . o o   M m.x.k.m.v.k.z.v.c.v.k.c.g.7.. M Z.C.C.C.C.C.C.C.C.C.C.C.C.C.C.C.C.C.C.C.C.C.",
"C.C.C.C.C.C.C.C.C.C.C.C.C.C.C.C.C.C.C.C.7.;.x x x.d.g.d.g.l.z.d.d.k.:.k > o @ @ o < k =.l.l.k.l.d.z.l.k.g.8.v x <.q.Z.C.C.C.C.C.C.C.C.C.C.C.C.C.C.C.C.C.C.C.C.C.",
"C.C.C.C.C.C.C.C.C.C.C.C.C.C.C.C.C.C.C.C.C.r.l j 7.9.d.d.d.l.k.d.d.k.=., @ o o o   > < &.a.l.l.d.d.l.l.l.7.>.j l C.C.C.C.C.C.C.C.C.C.C.C.C.C.C.C.C.C.C.C.C.C.C.C.",
"C.C.C.C.C.C.C.C.C.C.C.C.C.C.C.C.C.C.C.C.C.Z.l.8.> M x.l.c.c.n.c.k.b.s.s.j o O O . m a.d.m.k.m.k.l.B.x.v.x 1 2.l.C.C.C.C.C.C.C.C.C.C.C.C.C.C.C.C.C.C.C.C.C.C.C.C.",
"C.C.C.C.C.C.C.C.C.C.C.C.C.C.C.C.C.C.C.C.C.C.C.f., m 1.4.4.i.d.i.i.f.i.s.v < < < , #.f.a.f.a.f.i.y.2.2.2.x k e.C.C.C.C.C.C.C.C.C.C.C.C.C.C.C.C.C.C.C.C.C.C.C.C.C.",
"C.C.C.C.C.C.C.C.C.C.C.C.C.C.C.C.C.C.C.C.C.C.C.C.C.#.. o @ 8.C.n.c.Z.c.N.c.n.c.c.Z.m.n.n.n.n.N.n.:.    . <.C.C.C.C.C.C.C.C.C.C.C.C.C.C.C.C.C.C.C.C.C.C.C.C.C.C.C.",
"C.C.C.C.C.C.C.C.C.C.C.C.C.C.C.C.C.C.C.C.C.C.C.C.C.1.M j @ b M m &.s.i.s.f.s.i.i.g.p.p.p.r.#.M M x o 1 M e.C.C.C.C.C.C.C.C.C.C.C.C.C.C.C.C.C.C.C.C.C.C.C.C.C.C.C.",
"C.C.C.C.C.C.C.C.C.C.C.C.C.C.C.C.C.C.C.C.C.C.C.C.C.C.C.m . .   . k k.l.k.l.k.l.d.c.k.k.k.r.<   . .   b C.C.C.C.C.C.C.C.C.C.C.C.C.C.C.C.C.C.C.C.C.C.C.C.C.C.C.C.C.",
"C.C.C.C.C.C.C.C.C.C.C.C.C.C.C.C.C.C.C.C.C.C.C.C.C.<.m j @ M $.@ < v b b b b b b v b b b v > o $.b o 1 b 9.C.C.C.C.C.C.C.C.C.C.C.C.C.C.C.C.C.C.C.C.C.C.C.C.C.C.C.",
"C.C.C.C.C.C.C.C.C.C.C.C.C.C.C.C.C.C.C.C.C.C.C.Z.d.@.o o @ ,.i.o @ @ > @ > @ O O @ > @ > @ o . y.&.  o . :.k.N.C.C.C.C.C.C.C.C.C.C.C.C.C.C.C.C.C.C.C.C.C.C.C.C.C.",
"C.C.C.C.C.C.C.C.C.C.C.C.C.C.C.C.C.C.C.C.C.C.C.f.< > o O o , , o k 0.7.0.8.>.< , 9.7.0.7.7.< . < , . o . , l y.C.C.C.C.C.C.C.C.C.C.C.C.C.C.C.C.C.C.C.C.C.C.C.C.C.",
"C.C.C.C.C.C.C.C.C.C.C.C.C.C.C.C.C.C.C.C.C.v.7.:.  O o o o 1 j o l g.s.l.g.7.1 , k.d.g.k.r.< . k 1   o . o > =.7.C.C.C.C.C.C.C.C.C.C.C.C.C.C.C.C.C.C.C.C.C.C.C.C.",
"C.C.C.C.C.C.C.C.C.C.C.C.C.C.C.C.C.C.C.C.C.e.1 o o o o o @ 8.Z.o l Z.z.M.z.9.1 < Z.z.B.c.l.< . c.:.. . . o o o < C.C.C.C.C.C.C.C.C.C.C.C.C.C.C.C.C.C.C.C.C.C.C.C.",
"C.C.C.C.C.C.C.C.C.C.C.C.C.C.C.C.C.C.C.C.2.&.v l . < x < @ 4.d.o 1 &.=.&.=.@.< > &.;.&.=.$., o i.=.. < l , @ k v :.8.C.C.C.C.C.C.C.C.C.C.C.C.C.C.C.C.C.C.C.C.C.C.",
"C.C.C.C.C.C.C.C.C.C.C.C.C.C.C.C.C.C.C.Z.l , 2.e.  m m.m @ 7.B.o o . o . . . o o   o     o . . c.:.  b n.k < 8.7.  @.C.C.C.C.C.C.C.C.C.C.C.C.C.C.C.C.C.C.C.C.C.C.",
"C.C.C.C.C.C.C.C.C.C.C.C.C.C.C.C.C.C.1.x #.>.q.8.O m a.1.=.v l @ j :.;.:.:.$.< , :.:.:.:.;., @ l m :.1.g.k < 7.e.:.@.x >.C.C.C.C.C.C.C.C.C.C.C.C.C.C.C.C.C.C.C.C.",
"C.C.C.C.C.C.C.C.C.C.C.Z.N.N.N.C.Z.Z.&.. >.k.l.q.. m k.k.a.<   o k c.g.c.k.8.1 , c.g.c.c.i.< . . l c.k.c.k , 7.k.c.@.  &.N.C.C.N.N.N.C.C.C.C.C.C.C.C.C.C.C.C.C.C.",
"C.C.C.C.C.C.C.C.C.C.C.&.k k j n.2.j m 1.t.l.d.9.. , j =.g.2.,.O l c.g.c.g.7.1 , c.g.k.g.i.1 o <.7.c.:.j > < 7.g.c.8.,.m l i.C.j k j $.C.C.C.C.C.C.C.C.C.C.C.C.C.",
"C.C.C.C.C.C.C.C.C.k.9.M < < , 7.&.< m x.d.d.7.>., > . #.g.k.k.< x 4.4.4.4.:.< > 2.2.1.7.<.k < g.g.g.$.  , k :.7.z.g.g.@.1 <.8., < < m 8.n.C.C.C.C.C.C.C.C.C.C.C.",
"C.C.C.C.C.C.C.C.C.$.@ @.i.p.g.> x d.f.n.k.q.j < k.@.o #.m.m.N.f.:.@ > @ > @ O O @ > @ @ , 1.p.c.k.n.$.. :.7.1 1 n.l.n.p.9.1 @ p.i.p.$.@ 2.C.C.C.C.C.C.C.C.C.C.C.",
"C.C.C.C.C.C.C.C.C.$.o @.i.p.g.< v f.i.a.7.>.l j Z.=.< @.4.i.g.i.>., < < < < < < , < , < 1 1.i.i.e.7.#., 2.e.k k 2.9.i.i.9.k < p.p.p.#.o 1.C.C.C.C.C.C.C.C.C.C.C.",
"C.C.C.C.C.C.C.C.C.#.. #.N.n.C.v.v.Z.x.Z.l , 7.Z.Z.Z.N.m @ 8.Z.b.c.N.z.M.c.B.c.v.C.c.N.n.n.n.N.n.:.  b C.C.C.C.8.. M N.c.N.n.N.N.c.C.$.  ,.C.C.C.C.C.C.C.C.C.C.C.",
"C.C.C.C.C.C.C.C.C.2.@.@.m m m i.f.p.,.m @.$.d.C.C.C.C.m > 4.d.f.i.p.f.p.p.p.i.i.g.p.p.d.f.p.d.f.=.o b C.C.C.C.g.@.M m <.i.p.p.m m m M @.i.C.C.C.C.C.C.C.C.C.C.C.",
"C.C.C.C.C.C.C.C.C.C.C.m   .   g.k.x.&.  >.C.C.C.C.C.C.m O 7.n.k.k.x.l.c.k.x.k.l.v.k.k.c.k.c.c.l.=.  b C.C.C.C.C.C.@.  $.k.c.z.  o   b C.C.C.C.C.C.C.C.C.C.C.C.C.",
"C.C.C.C.C.C.C.C.C.C.C.7.=.&.&.v #.l.7.&.m M r.C.C.C.C.7.&.b v v #.l.p.l.p.g.p.p.k.p.g.g.i.m v v m &.4.C.C.C.C.p.b @.&.2.r.m v &.=.&.1.C.C.C.C.C.C.C.C.C.C.C.C.C.",
"C.C.C.C.C.C.C.C.C.C.C.C.C.C.C.O l x.d.v.k < 7.C.C.C.C.C.x.j @ @ l r.e.r.d.k.g.d.x.i.r.r.8.j @ @ v C.C.C.C.C.C.9.. m k.g.y.< . C.C.C.C.C.C.C.C.C.C.C.C.C.C.C.C.C.",
"C.C.C.C.C.C.C.C.C.C.C.C.C.C.C.@ l c.l.n.l < 7.C.C.C.C.C.Z.t.0.9.=.< < < ,.k.l.l.n.$.< < 1 >.9.9.i.C.C.C.C.C.C.8.. M n.k.r.< . N.C.C.C.C.C.C.C.C.C.C.C.C.C.C.C.C.",
"C.C.C.C.C.C.C.C.C.C.C.C.C.C.C.k b :.:.:.b v q.C.C.C.C.C.C.C.C.C.2.j l j $.>.:.:.:.M k k l r.C.C.C.C.C.C.C.C.C.r.j M :.:.;.x k C.C.C.C.C.C.C.C.C.C.C.C.C.C.C.C.C.",
"C.C.C.C.C.C.C.C.C.C.C.C.C.C.C.N.:.o O . >.Z.Z.C.C.C.C.C.C.C.C.C.C.N.Z.n.k o o O . M N.N.N.C.C.C.C.C.C.C.C.C.C.C.C.@.. o > 8.N.C.C.C.C.C.C.C.C.C.C.C.C.C.C.C.C.C.",
"C.C.C.C.C.C.C.C.C.C.C.C.C.C.C.C.7.x v x 7.C.C.C.C.C.C.C.C.C.C.C.C.C.C.C.@.v v v x :.Z.C.C.C.C.C.C.C.C.C.C.C.C.C.C.:.v v b i.C.C.C.C.C.C.C.C.C.C.C.C.C.C.C.C.C.C.",
"C.C.C.C.C.C.C.C.C.C.C.C.C.C.C.C.C.C.C.C.C.C.C.C.C.C.C.C.C.C.C.C.C.C.C.C.C.C.C.C.C.C.C.C.C.C.C.C.C.C.C.C.C.C.C.C.C.C.C.C.C.C.C.C.C.C.C.C.C.C.C.C.C.C.C.C.C.C.C.C.",
"C.C.C.C.C.C.C.C.C.C.C.C.C.C.C.C.C.C.C.C.C.C.C.C.C.C.C.C.C.C.C.C.C.C.C.C.C.C.C.C.C.C.C.C.C.C.C.C.C.C.C.C.C.C.C.C.C.C.C.C.C.C.C.C.C.C.C.C.C.C.C.C.C.C.C.C.C.C.C.C.",
"C.C.C.C.C.C.C.C.C.C.C.C.C.C.C.C.C.C.C.C.C.C.C.C.C.C.C.C.C.C.C.C.C.C.C.C.C.C.C.C.C.C.C.C.C.C.C.C.C.C.C.C.C.C.C.C.C.C.C.C.C.C.C.C.C.C.C.C.C.C.C.C.C.C.C.C.C.C.C.C.",
"C.C.C.C.C.C.C.C.C.C.C.C.C.C.C.C.C.C.C.C.C.C.C.C.C.C.C.C.C.C.C.C.C.C.C.C.C.C.C.C.C.C.C.C.C.C.C.C.C.C.C.C.C.C.C.C.C.C.C.C.C.C.C.C.C.C.C.C.C.C.C.C.C.C.C.C.C.C.C.C.",
"C.C.C.C.C.C.C.C.C.C.C.C.C.C.C.C.C.C.C.C.C.C.C.C.C.C.C.C.C.C.C.C.C.C.C.C.C.C.C.C.C.C.C.C.C.C.C.C.C.C.C.C.C.C.C.C.C.C.C.C.C.C.C.C.C.C.C.C.C.C.C.C.C.C.C.C.C.C.C.C.",
"C.C.C.C.C.C.C.C.C.C.C.C.C.C.C.C.C.C.C.C.C.C.C.C.C.C.C.C.C.C.C.C.C.C.C.C.C.C.C.C.C.C.C.C.C.C.C.C.C.C.C.C.C.C.C.C.C.C.C.C.C.C.C.C.C.C.C.C.C.C.C.C.C.C.C.C.C.C.C.C.",
"C.C.C.C.C.C.C.C.C.C.C.C.C.C.C.C.C.C.C.C.C.C.C.C.C.C.C.C.C.C.C.C.C.C.C.C.C.C.C.C.C.C.C.C.C.C.C.C.C.C.C.C.C.C.C.C.C.C.C.C.C.C.C.C.C.C.C.C.C.C.C.C.C.C.C.C.C.C.C.C.",
"C.C.C.C.C.C.C.C.C.C.C.C.C.C.C.C.C.C.C.C.C.C.C.C.C.C.C.C.C.C.C.C.C.C.C.C.C.C.C.C.C.C.C.C.C.C.C.C.C.C.C.C.C.C.C.C.C.C.C.C.C.C.C.C.C.C.C.C.C.C.C.C.C.C.C.C.C.C.C.C."
};
