/* XPM */
static char *cdf1f1f5f83149b9e690e5f1eed369173J38396x5JXPAccf[] = {
/* columns rows colors chars-per-pixel */
"40 40 73 1 ",
"  c #0F0F0F",
". c gray7",
"X c #181816",
"o c #1C1C1C",
"O c #211F1F",
"+ c #281C1D",
"@ c #382F1B",
"# c #3B311C",
"$ c #252525",
"% c #2B2B2B",
"& c #3C3321",
"* c #333333",
"= c #3C3C3C",
"- c #40351F",
"; c #70282C",
": c #48402E",
"> c #624F26",
", c #625027",
"< c #6E5827",
"1 c #63512A",
"2 c #444444",
"3 c #4B4B4B",
"4 c #535353",
"5 c #5B5B5B",
"6 c #75674A",
"7 c #776F5D",
"8 c #636363",
"9 c #6B6B6B",
"0 c #716F6A",
"q c #74726E",
"w c #737373",
"e c #787672",
"r c #7F7B74",
"t c #7C7C7C",
"y c #872E34",
"u c #8E3439",
"i c #97363C",
"p c #9C333A",
"a c #A0333A",
"s c #98772F",
"d c #977733",
"f c #9A7A34",
"g c #957738",
"h c #81755C",
"j c #857C68",
"k c #AA8535",
"l c #AE8836",
"z c #A48238",
"x c #B78E37",
"c c #C5993C",
"v c #C99D3D",
"b c #8B8578",
"n c #E7B547",
"m c #ECB745",
"M c #EEB945",
"N c #E9B648",
"B c #F1BA44",
"V c #838383",
"C c #8B8B8B",
"Z c #939393",
"A c #9C9C9C",
"S c #A4A4A4",
"D c #ABABAB",
"F c #B3B3B3",
"G c #BBBBBB",
"H c #C3C3C3",
"J c #CCCCCC",
"K c #D4D4D4",
"L c #DCDCDC",
"P c #E4E4E4",
"I c #ECECEC",
"U c #F2F2F2",
"Y c #FFFFFF",
/* pixels */
"YYYYYYYYYYYYYYYYYYYYYYYYYYYYYYYYYYYYYYYY",
"YYYYYYYYYYYYYYYYYYYYYYYYYYYYYYYYYYYYYYYY",
"YYYYULIYYYYYYYYYYYYYYYYYYYYYYYYYPPYYYYYY",
"YYYYD=VIYYYYYYYYPKKKKKIYYYYYYYYP5*JYYYYY",
"YYYU3IVAYYYYYYJD6>,,,,jDPYYYYYY9FI=IYYYY",
"YYSZZJtHYYYYPAh<vmmNmmk<bAUYYYYDVKVZFYYY",
"YZZAIKVGYYYU7scMmmmNmmBmlsrUYYYSZLPACSYY",
"Y2KPVUJtKYU0xmBBBBBmBBBBBBzqYYDCLUePD8YY",
"YK33AeIK8J4o#######-@####@#XeGVLI8D28LYY",
"YYKKUSZPJ5+upippppiipppppppuO9LP9DUKPYYY",
"YYYYLLwVK=ypapapaapppapppaap;4J8ALPYYYYY",
"YYYJ##&&&@&&@&&@######@@@@@#&&##@@:JYYYY",
"YYUefffffffffgfffffffffffffdddffffgeYYYY",
"YYYUwwww%5w9www0wqwwwwwww0www42wwwVUYYYY",
"YYYYYYYY4GIIIH89JIIIIIS98KIIISCYYYYYYYYY",
"YYYYYYYY3GIIJ2..2JIIIG*  3LIISCYYYYYYYYY",
"YYYYYYYY3FIL*.   %LPF% .  2LIAZYYYYYYYYY",
"YYYYYYYY5FIP......KIF...  $LIAZYYYYYYYYY",
"YYYYYYYYU3KL$... %KPF$..  =LF8UYYYYYYYYY",
"YYYYYYYYY9FPG*..*HIPPF$..*LPAtYYYYYYYYYY",
"YYYYYYYYYY2LUH99JISZFUD99JIL4YYYYYYYYYYY",
"YYYYYYYYYYVZIIIIISOX*DIIIUPZAYYYYYYYYYYY",
"YYYYYYYYYYUSVIIIUFo.=FUIIIwSYYYYYYYYYYYY",
"YYYYYYYYYYYYZ5DUUIDDGUUIt5DUYYYYYYYYYYYY",
"YYYYYYYYYYYYUC$*GIPPIIC*XAUYYYYYYYYYYYYY",
"YYYYYYYYYYYYG%95*=====$t=%LYYYYYYYYYYYYY",
"YYYYYYYYYYYJo.%$SPJ*PLw%o %KYYYYYYYYYYYY",
"YYYYYYYYYYH2o*V9ZHF%HH8Z3*o2LYYYYYYYYYYY",
"YYYYYYYYYGtK3Ht3498$99=8eJ=JeHYYYYYYYYYY",
"YYYYYLZJDtLL*SF=DIL*IIt3KS*LJtJGZPYYYYYY",
"YYYYKwAtCLPwt5IHw55o88VJI2CwIKtVAwIYYYYY",
"YYYYG5IJLU9DPCDUGDDSSDJIVZIDVIJKI2IYYYYY",
"YYYYUA*AI8GYYDVIIIIIIIII2JYYSwIt*DYYYYYY",
"YYYYYULwGK5IYUV=FPPPILV=DUYP5KVZLUYYYYYY",
"YYYYYYYCAJ5IYYUI9=FJS=AIYYYI5JwDYYYYYYYY",
"YYYYYYYYw=PYYYYYYY52wYYYYYYYH2SYYYYYYYYY",
"YYYYYYYYYYYYYYYYYYYYYYYYYYYYYYYYYYYYYYYY",
"YYYYYYYYYYYYYYYYYYYYYYYYYYYYYYYYYYYYYYYY",
"YYYYYYYYYYYYYYYYYYYYYYYYYYYYYYYYYYYYYYYY",
"YYYYYYYYYYYYYYYYYYYYYYYYYYYYYYYYYYYYYYYY"
};
