/* XPM */
static char *result[] = {
/* columns rows colors chars-per-pixel */
"40 40 198 2 ",
"   c black",
".  c #2A2A2A",
"X  c #5B5B5B",
"o  c gray43",
"O  c #929292",
"+  c gray73",
"@  c #B4B4B4",
"#  c #A5A5A5",
"$  c #A0A0A0",
"%  c #9A9A9A",
"&  c gray58",
"*  c #888888",
"=  c #7C7C7C",
"-  c #727272",
";  c #4E4E4E",
":  c gray17",
">  c #272727",
",  c #202020",
"<  c #1E1E1E",
"1  c #8E8E8E",
"2  c #D2D2D2",
"3  c #E1E1E1",
"4  c gray91",
"5  c #DFDFDF",
"6  c LightGray",
"7  c gray80",
"8  c gray",
"9  c gray70",
"0  c #A7A7A7",
"q  c gray56",
"w  c gray63",
"e  c gray49",
"r  c #686868",
"t  c #535353",
"y  c gray28",
"u  c #3A3A3A",
"i  c gray13",
"p  c #060606",
"a  c gray68",
"s  c #F4F4F4",
"d  c gray99",
"f  c gray98",
"g  c gray93",
"h  c #DADADA",
"j  c #CBCBCB",
"k  c #BCBCBC",
"l  c #B1B1B1",
"z  c gray53",
"x  c #747474",
"c  c gray39",
"v  c gray33",
"b  c gray25",
"n  c #373737",
"m  c #252525",
"M  c gray85",
"N  c #E7E7E7",
"B  c gray94",
"V  c #E2E2E2",
"C  c gray83",
"Z  c gray75",
"A  c #C5C5C5",
"S  c gray67",
"D  c #9D9D9D",
"F  c #797979",
"G  c #676767",
"H  c gray35",
"J  c gray27",
"K  c gray22",
"L  c #222222",
"P  c #2C2C2C",
"I  c #0B0B0B",
"U  c #F3F3F3",
"Y  c #F9F9F9",
"T  c #ECECEC",
"R  c gray95",
"E  c gray84",
"W  c #C3C3C3",
"Q  c #4B4B4B",
"!  c #393939",
"~  c gray16",
"^  c gray11",
"/  c gray1",
"(  c gray9",
")  c #959595",
"_  c #D8D8D8",
"`  c gray96",
"'  c #AEAEAE",
"]  c #6A6A6A",
"[  c #515151",
"{  c gray26",
"}  c #323232",
"|  c #040404",
" . c #AAAAAA",
".. c #E4E4E4",
"X. c gray74",
"o. c gray40",
"O. c gray34",
"+. c gray3",
"@. c #A2A2A2",
"#. c gray59",
"$. c #818181",
"%. c gray15",
"&. c #9B9B9B",
"*. c gray51",
"=. c gray31",
"-. c #444444",
";. c #232323",
":. c #494949",
">. c gray61",
",. c #C1C1C1",
"<. c gray79",
"1. c gray72",
"2. c gray64",
"3. c #808080",
"4. c #6D6D6D",
"5. c gray36",
"6. c #3C3C3C",
"7. c gray45",
"8. c #DDDDDD",
"9. c #A9A9A9",
"0. c #565656",
"q. c gray30",
"w. c #353535",
"e. c gray78",
"r. c gray50",
"t. c gray29",
"y. c #CACACA",
"u. c gray87",
"i. c #7B7B7B",
"p. c #6F6F6F",
"a. c gray14",
"s. c #CECECE",
"d. c #646464",
"f. c #5A5A5A",
"g. c #181818",
"h. c #9F9F9F",
"j. c #EAEAEA",
"k. c #D7D7D7",
"l. c gray23",
"z. c gray21",
"x. c #A4A4A4",
"c. c #EFEFEF",
"v. c gray76",
"b. c #505050",
"n. c #343434",
"m. c gray81",
"M. c #C8C8C8",
"N. c gray60",
"B. c #606060",
"V. c #4C4C4C",
"C. c #8D8D8D",
"Z. c gray90",
"A. c #AFAFAF",
"S. c #5F5F5F",
"D. c #F8F8F8",
"F. c #6C6C6C",
"G. c #2F2F2F",
"H. c gainsboro",
"J. c #3E3E3E",
"K. c #EEEEEE",
"L. c gray92",
"P. c gray69",
"I. c DimGray",
"U. c gray48",
"Y. c gray82",
"T. c #B7B7B7",
"R. c #767676",
"E. c #656565",
"W. c #3F3F3F",
"Q. c gray18",
"!. c gray77",
"~. c gray65",
"^. c gray42",
"/. c #F6F6F6",
"(. c #7E7E7E",
"). c #909090",
"_. c gray20",
"`. c #E9E9E9",
"'. c #B9B9B9",
"]. c gray66",
"[. c #2D2D2D",
"{. c #979797",
"}. c #434343",
"|. c gray86",
" X c gray24",
".X c gray37",
"XX c gray44",
"oX c #777777",
"OX c #B6B6B6",
"+X c #838383",
"@X c #585858",
"#X c gray32",
"$X c #151515",
"%X c #989898",
"&X c #939393",
"*X c #717171",
"=X c #191919",
"-X c gray5",
/* pixels */
"                        . X o O + @ # $ % & * = - ; : > ,                       ",
"                    < 1 2 3 4 5 5 6 7 8 9 0 q w e r t y u i p                   ",
"                    a s d f s s g h j k l # O z x c v b n m i p                 ",
"                    M N s d B V C 7 Z A S D * F G H J K > L P I                 ",
"                    = C s U Y T R N E W @ # O F G Q ! ~ , ~ ^ /                 ",
"                      ( ) _ ` d T E k ' O e ] [ { } : , i |                     ",
"                        (  ...d T E X.S O e o.O.{ } m m +.                      ",
"                          @.N d T E X.S #.$.] [ { } m %.                        ",
"                          @.g d T E X.&.D *.] =.-.} ;.%.                        ",
"                          @.g d T E X.S O e ] v :.} ;.%.                        ",
"                          >.,.<.1.2.q 3.4.5.:.6.: , , ;.                        ",
"                          7.5 8.3 6 + 9.) $.o 0.q.w.> <                         ",
"                          e.s d B E W S 1 r.] [ t.} %.~                         ",
"                          @.g d T y.u.S O i.p.[ { } a.%.                        ",
"                          @.g d T C s.S O e d.f.{ } g.%.                        ",
"                          h.j.d N k.X.S O e ] [ l.z.;.%.                        ",
"                          x.c.d j.6 v.S 1 *.] b.b n.;.%.                        ",
"                          @.g d T m.M.S O r.] ; -.} m %.                        ",
"                          ] X.6 Z a N.z - B.V.6.P ^ g.g.                        ",
"                          C.M Z.3 M.,.A.>.* x S.Q n.;.%.                        ",
"                          @.g d T 8.X.S O e 4.[ { n.< %.                        ",
"                          @.g D.T m.s.S O e F.=.J } i %.                        ",
"                          @.g B T m.k ' 1 r.] b.J G.m ;.                        ",
"                          @.g d N H.X.S O = F.[ J.w.;.%.                        ",
"                          @.g B K.h X.S O r.F.b.J } m %.                        ",
"                          @.g d L.h 8 P.O = I.O.{ } m %.                        ",
"                          U.8.g u.Y.T.N.q R.E.:.W.Q.;.a.                        ",
"                          - !.j X.~.q ^.x 5.:.u ~ , , g.                        ",
"                          # B /.D.g 2 8 &.q (.o.t J.~ :                         ",
"                          @.g d 4 V 1.W ).3.] [ { _.a.%.                        ",
"                          @.g d T E X.S 1 *.o.v -.} ;.%.                        ",
"                          @.g d T E 1.9 O = r v J } ;.%.                        ",
"                          @.N d `.u.'.P.O e ] b.:.} ;.%.                        ",
"                        ( A...d 4 V X.].#.e ] q.-.} %.m +.                      ",
"                      L 9 `.D.d T E X.].#.e ] [ { } [., ;.i                     ",
"                    {.h s d /.T T 3 6 v.@ ~.O F G V.u P , ~ P ! }.; t f.v }     ",
"                    |.`./.d U N k.7 ,.T.S D q F G 5.Q  X. ;.P w.! J.y q.0..XK   ",
"                    a s d f s s g h j k l # O z x XX.Xq.n m G.n u J.:.q.O..X%.  ",
"                      oX2 u.4 M E 7 M.OXk x.{.* +X] @X-.l.K y :.=.b.O.#Xn       ",
"                        $X[.n 7.l ' %X#.&X).+XR.*XB.:.-.[ .X Xg.=X=X=X-X        "
};
