/* XPM */
static char *result[] = {
/* columns rows colors chars-per-pixel */
"40 40 184 2 ",
"   c #3A2D15",
".  c #3A211F",
"X  c #3B2A18",
"o  c #3E3017",
"O  c #3C1C25",
"+  c #3F063B",
"@  c #3E0B35",
"#  c #3D2222",
"$  c #3F3524",
"%  c #3F382D",
"&  c #3D3933",
"*  c #423217",
"=  c #443319",
"-  c #4A361A",
";  c #4D391A",
":  c #50361F",
">  c #523C1C",
",  c #593F1E",
"<  c #451E2C",
"1  c #420D37",
"2  c #440A3C",
"3  c #490D3E",
"4  c #451534",
"5  c #491537",
"6  c #451831",
"7  c #4B1B34",
"8  c #451138",
"9  c #4B113B",
"0  c #4D1839",
"q  c #511E36",
"w  c #50163F",
"e  c #521B3C",
"r  c #581E3C",
"t  c #442525",
"y  c #452922",
"u  c #4A2C24",
"i  c #462429",
"p  c #4B252C",
"a  c #4E2B2A",
"s  c #50272F",
"d  c #532C2C",
"f  c #582D2E",
"g  c #4E3222",
"h  c #463C2F",
"j  c #533424",
"k  c #583625",
"l  c #543821",
"z  c #5D3B25",
"x  c #57312C",
"c  c #5B322C",
"v  c #5F392A",
"b  c #4C2031",
"n  c #532432",
"m  c #562A32",
"M  c #5B2E32",
"N  c #562038",
"B  c #5C243C",
"V  c #413D36",
"C  c #5E3031",
"Z  c #623E27",
"A  c #64362F",
"S  c #653A2D",
"D  c #6A3E2D",
"F  c #612E37",
"G  c #61243E",
"H  c #622A3C",
"J  c #653434",
"K  c #6A3536",
"L  c #6E3C33",
"P  c #663039",
"I  c #6C343A",
"U  c #713B36",
"Y  c #72363D",
"T  c #753A3C",
"R  c #793C3D",
"E  c #5C401F",
"W  c #5E4120",
"Q  c #4A463E",
"!  c #634322",
"~  c #694723",
"^  c #6D4825",
"/  c #664028",
"(  c #6D412C",
")  c #724B27",
"_  c #744C28",
"`  c #7B4F2B",
"'  c #734131",
"]  c #784236",
"[  c #794038",
"{  c #430043",
"}  c #4D0C44",
"|  c #4C004C",
" . c #510D46",
".. c #52044E",
"X. c #540B4B",
"o. c #590E4D",
"O. c #4F1241",
"+. c #541244",
"@. c #591745",
"#. c #561843",
"$. c #5B1C43",
"%. c #5C144B",
"&. c #5E1949",
"*. c #530053",
"=. c #590754",
"-. c #5C0B53",
";. c #570058",
":. c #5B005B",
">. c #5F0B59",
",. c #5F1252",
"<. c #611F46",
"1. c #64174D",
"2. c #641D4B",
"3. c #691D4F",
"4. c #610E55",
"5. c #63075F",
"6. c #640C5B",
"7. c #6A0F5E",
"8. c #641354",
"9. c #681557",
"0. c #6C1B53",
"q. c #67115A",
"w. c #6C135C",
"e. c #71175C",
"r. c #751C5B",
"t. c #7D1F5E",
"y. c #5E2042",
"u. c #632344",
"i. c #692745",
"p. c #6D2A45",
"a. c #652048",
"s. c #6B214C",
"d. c #742B4A",
"f. c #763542",
"g. c #783642",
"h. c #7D3944",
"j. c #6E2050",
"k. c #732154",
"l. c #782454",
"z. c #7A205A",
"x. c #5F0060",
"c. c #620063",
"v. c #6C0C63",
"b. c #67006A",
"n. c #6B006C",
"m. c #730F66",
"M. c #70066D",
"N. c #740B6B",
"B. c #790E6D",
"V. c #6E1061",
"C. c #731264",
"Z. c #7A1567",
"A. c #7C1B62",
"S. c #771068",
"D. c #7D126C",
"F. c #7E1868",
"G. c #6E0072",
"H. c #720074",
"J. c #790477",
"K. c #7B0974",
"L. c #750078",
"P. c #7A007C",
"I. c #7F0878",
"U. c #4F4B45",
"Y. c #514D47",
"T. c #56514A",
"R. c #5A564E",
"E. c #862B5B",
"W. c #841B6A",
"Q. c #810D77",
"!. c #810978",
"~. c #871374",
"^. c #891376",
"/. c #8A1874",
"(. c #8B107D",
"). c #842460",
"_. c #7E0080",
"`. c #830083",
"'. c #870088",
"]. c #8B008B",
"[. c #930093",
"{. c #9C009C",
"}. c #A200A2",
"|. c #AE00AE",
/* pixels */
"V.H.| { { G.L.c.| { + { b.I.s.i.>.{ { { { { ;.P.`.G.c.| { { + { + | | b.v.u.G G ",
"S C.L.;.*.n.b.b.:.{ | :.].T J P B :.| { | *.c.`.`.L.H.:.{ { { { | :.c.I.f.~ ! S ",
"P M P.x.;.;.c.:.| | *.x.`.k.v.H.s.c.X.q 8.c.:.L.P.c.@.B e n 7 7 O.*.b.l.~ ! n ,.",
"e.H `.G.c.L.P.!._.L.b.:.x.P.P.L.r o.! ! ! S.c.o.x E ~ ^ ~ W , > : } c.L.K - v.S.",
"`.j.L.G.P.Y A.D b.G.G.L.c.:.c.c.0 u.! r n 7.+.> ^ _ ) ) ; ; p e n = X.H.I g S.-.",
"G.a.c.P.Y ) ! , b.:.x.x.:.c.c.G.$.y.c P.&.8.m ! _ ` _ ~ y i q m.2.,.} :.C - V.O.",
":.#.G.].h.~ , ; b.c.u.C C N x.c.#.q 6.H.@.0 ; c R ) ~ , u -.v.e.k 1.y :.#.- b...",
";.e L.[.t.l g s c.c.~ D J I n.*.*.6 c.:.X.2 d s T ~ z $.> r L.F ; > * b.+.- *.| ",
";.+.`.z.~ J e 0 ..c ! q.P.J H.| { | ;.:.:.*.n m Y k 4.P.w.- ! : b V.= L.b...| { ",
";.:.P.~ 2.].].&.{ f ~ 4.H.C c.| b a :.L.H.*.7 >.T 2.@.M U ^ : 8.J.x.a ,.b.| | | ",
";.x.H.I ].P.c.4 { A 0.o.c.i *.S _ _ W +.c...6 n.3.3., ^ ~ W , s H.b.8.= 0 | | ..",
";.:.n.p.].b.b.4 | V.K.n.:...M.' f.f.I x X...6 G.5.B ~ W : : - s G.x.L.N 9 | | :.",
"c.c.x.H.n.b.H.4.:.H.P.c.*.:.r.(.{.].z.k - +.5 G.c.d ! -  .@.r s c.b.H.$.} *.c.n.",
"d.B.b.b.:.c.c.H.:.*.*.*.b.z.) ~.A.E d g y y b 6.;.N 0.= b.:. .X.c.*.x.b ,.K._ ^ ",
"W Z 8.;.b.P.P.c.{ m d =.P.^ k.d.W n G.-.y ; ! d ;.v.V.q :.*.M.n.:.| | ; K ' ) ^ ",
"N j p L.L.`.L.*.9 u.a o.L.^ p.K ; 0 K.u = = > > B 6.M.6.P.P.G.n.| | :.^ ] ~.L.0.",
"c.%.- b.H.G.,.j A -.#.e P.U 3.%.2.9.0.- = N q.l l u q.H.G.G.*.*.{ *.N.) E.^.6.x.",
"H.V., x.b.*.b &.C x.6.X.n.D.S.`.W.).; q m M ].M M - p :.:.*.q e ..n.T ^ ~ ^ ( >.",
"b.S.! L.;.*.;.c.d S.-.| *.`.[.{.'.K.: o.].@.x.M m ; p *. .c S 6.n.].f.A.}./.Y z.",
"P.w., L.P.x.b.'.Q.N.B y +.].].Y I j x `.H.e c.6.M ; p c. .f P.!.H.].f.{.'.'.(.W ",
"b.V.; L.G.:.[.|.d.W P %.n.`.I z a ; 9.].G.n.P.`.C ; b c.| u H.L.c.`.Y [.H.b.u.; ",
"c.S.E H.J.n.[.^.W - y.q.G.!.P 7 X.b m H.*.G.`.n.m u N x.| u :.x.:.H.I P.G.:.u ; ",
"c.v.; G.b.b.`._.; - &.o.b.P.a ;.b.0 p *.*.b.`.c.x 0 x.;.*.u *.*.*.:.c G.n.:. ., ",
";.6.%.*.*.x.J._.a g 0 9 *.b.M | *.6 t | x.:.b.c.b.#.L.G.L.n ..;.:.;.d | c.b.9.^ ",
";.b.:.*.*.*.:.H.o.o.} | | *.t *.c.n.t | *.:.H.L.b.0 >.P._.n x.J._.P.-...{ | 9 W ",
";.c.C.0.b.n.:.G.`.`._.b.:.*.t | | *.# { *.G.P.c.x. .=.c.c.l W S j._.G.n.*.{ 8 - ",
";.7.I F 6.n.n.P.t.Y M v.G.:.t | | | t | c.c.c.*.:.| *.x.J.J ! x n L.L.P.n.*.3 o ",
"*.e.<.m.7.n.!.l.~ ! : +.:.*.t  .q n f n.:.:.b.x.*.| ..x.].I P b 9 b.`.G.G.x.} O ",
"*.,.$.6.v.P.S.s.i.;.g -.b.| u ! ~ W g.{.N.-.P._.H.:.x.K.f.H 8.3 ..v.`.n.c.L.>.@ ",
"| o.$.`.H.`.n.c.x.c.I.q.P...c ` ) ~ Y [.k.z 9.L.L.c.6.( Y m c. .u W T L.L.G.b.X.",
"| } 0 c.:.n.b.=.x.n.v.8.n.-.D ! ! W ^ d.[.k.C L.L.H.I ~ ! ! a.i.~ ^ E c.G.G._.b ",
"{ 1 6 | *.:.c.:.c.*.6 o.c.1.( E E > E E S.Z.> ;.x.0.L v +. .v.C.W y.- b.P.G.J.0 ",
"{ + + { | *.:.:.c.*.6 < d ! z E , , - - E P E 5 ..N j.$...N s.y.P M.g _.e.N c.O.",
"{ 1 8 *.c.H.B.D.D.H.+.; ! - X = ; - *.:.n.m > > * 0 q.2.v.l g - j.b.a 9.c E u 5 ",
"{ | | G.[.F./ , E K b.d : 2 # 6 u = G.`.J.b = o - 6  .0 _.a 6 y -.c.i b.>.; i ..",
"| | *.H.[.s.q.H.N.k c.N 3.*.c.6 :.0 :.P.P.p # O.o ;.*.6 x.p 7 g X.b.i x.=.d g X.",
"| | X.C.d.N u.v.L.m M.w n.b.5.7 o.6 b.n.:.1 4 o.  *.*.6 x.} y.y.a ..t x.&.( ! H ",
"} | y.~ ! C.H.L.#.u &.7 :.b.w * = = $.0 0 < i X.  *.:.>.P.b.$.N b y y 0 S ) B y.",
"o a p.x.L.u.>.q ; > > ; ; * * i.J ~ ! , > ; ; = o v.v.v.N.a = E E E W ! ^ ; v.p ",
"U.% = b p * o * = - - h Y.R.V * - : - - - = = = * = o V U.U.$ = - - - - = * & R."
};
