/* XPM */
static char *_0f584185bb24676d058d6c7ce7f89c6lR8kdAdB8O8aWfRc[] = {
/* columns rows colors chars-per-pixel */
"40 40 144 2 ",
"   c #3E0C0C",
".  c #2D1C1C",
"X  c #351414",
"o  c #3C1414",
"O  c #331E1E",
"+  c #272727",
"@  c #2C2C2C",
"#  c #332222",
"$  c #3B2525",
"%  c #322E2E",
"&  c #3A2828",
"*  c #343434",
"=  c #3B3B3B",
"-  c #440000",
";  c #4D0000",
":  c #450C0C",
">  c #4C0B0B",
",  c #540000",
"<  c #5B0000",
"1  c #550B0B",
"2  c #5B0B0B",
"3  c #421616",
"4  c #481616",
"5  c #471818",
"6  c #4C1B1B",
"7  c #5F1D1D",
"8  c #640000",
"9  c #6C0000",
"0  c #740000",
"q  c #7C0000",
"w  c #790E0E",
"e  c #6E1010",
"r  c #751414",
"t  c #7E1313",
"y  c #731E1E",
"u  c #7C1D1D",
"i  c #422A2A",
"p  c #492E2E",
"a  c #502F2F",
"s  c #5C2C2C",
"d  c #463232",
"f  c #4D3434",
"g  c #4E3F3F",
"h  c #5F3333",
"j  c #523D3D",
"k  c #622020",
"l  c #642F2F",
"z  c #6B2D2D",
"x  c #722424",
"c  c #7D2222",
"v  c #653434",
"b  c #6B3535",
"n  c #663838",
"m  c #6B3A3A",
"M  c #723B3B",
"N  c #434343",
"B  c #4D4343",
"V  c #4C4C4C",
"C  c #564242",
"Z  c #5C4343",
"A  c #525252",
"S  c #674A4A",
"D  c #754040",
"F  c #7C4747",
"G  c #840000",
"H  c #8B0000",
"J  c #8D0F0F",
"K  c #930000",
"L  c #9B0000",
"P  c #900E0E",
"I  c #9E0F0F",
"U  c #831414",
"Y  c #8E1111",
"T  c #841C1C",
"R  c #891E1E",
"E  c #931313",
"W  c #9C1313",
"Q  c #971818",
"!  c #A40000",
"~  c #AA0000",
"^  c #A70F0F",
"/  c #B30000",
"(  c #BC0000",
")  c #A31212",
"_  c #A11313",
"`  c #A51111",
"'  c #A71111",
"]  c #A51212",
"[  c #A51414",
"{  c #A11313",
"}  c #A81212",
"|  c #A91212",
" . c #A81313",
".. c #AB1212",
"X. c #AC1212",
"o. c #A91414",
"O. c #AA1515",
"+. c #AA1313",
"@. c #B31313",
"#. c #B11515",
"$. c #B71515",
"%. c #B31616",
"&. c #BB1010",
"*. c #B81313",
"=. c #B91515",
"-. c #BA1515",
";. c #B81010",
":. c #B71818",
">. c #862222",
",. c #822424",
"<. c #842424",
"1. c #842626",
"2. c #852727",
"3. c #832525",
"4. c #8A2020",
"5. c #882424",
"6. c #8D2424",
"7. c #8E2424",
"8. c #8E2525",
"9. c #8C2323",
"0. c #812929",
"q. c #872929",
"w. c #842E2E",
"e. c #882A2A",
"r. c #8A2C2C",
"t. c #8D2F2F",
"y. c #8C2E2E",
"u. c #932323",
"i. c #922525",
"p. c #902626",
"a. c #942424",
"s. c #912727",
"d. c #992323",
"f. c #9A2424",
"g. c #992323",
"h. c #8E3030",
"j. c #903232",
"k. c #A02A2A",
"l. c #C10000",
"z. c #C40000",
"x. c #CE0000",
"c. c #CB0000",
"v. c #D30000",
"b. c #C61515",
/* pixels */
"= N N = N N N = N N = = N N N N N V N N N = N = N N N V N N g = = = = N N N N = ",
"0.=.} X.) o.' E N V &.} ' ' } [ o.o.o.} ) } E N V -.=.=.%.@.' ) ^ ^ ) W W W E a ",
"a.( ! ~ L L L 0 * A x.L L L ! K L ~ K ! K ! 0 * N ( ~ K ~ L K K ~ ~ ! H L L G $ ",
"7.L L q L H G , * A / ~ K K L H H H G K G G 8 * V L H q H K G K K L K H H H 9 # ",
",.L L G L G q ; * V l.L H K L H G K 0 K G G < * N ! K q K H q H K L K G K H 8 # ",
"x G 0 ; < , < ; % V G 9 < 9 8 9 < 8 < < , < ; @ N G 9 8 9 9 8 8 < 8 9 , 8 8 < # ",
"g i $ & & $ # . * N p i & i # O $ & # . $ & & = V d i i p d i i & $ O $ & & & % ",
"u.T u ,.c c u u u y V Z f.9.R T 7.5.>.T 1.,.,.,.,.1.e.q.h.h.y.e.c N N f.a.p.p.9.",
"L K ! G G K H H K , g m / ! H K K L L K K G K K K K K K K ~ ! ~ 9 = N v.L L L ! ",
"H L K q G H G G G ; * v ~ K K K q G G G H H q G H G q K G q L G < * V ! K ! G H ",
"K H H G H H H H G ; * m / H G H q q G 9 K G 0 K H 9 H q G q H H , @ N ! L G ! G ",
"q 9 8 0 q 0 9 0 9 ; = m ! 0 9 G 0 0 0 8 G 0 0 q 0 9 0 9 q 9 q 0 , + V L q 8 0 0 ",
"X o   X o X o X X X N j k 6 5 4 4 6 6 6 4 5 o     3 3 o o   o o X * V 7 o 3 o X ",
"S b l m l b v v s s v m v v s s s f V m b m b s s v v m s s v n m n s n h n n B ",
"k.( ( L L ~ ! ! K l.! ! ! ( G ( H i V b.~ / / L / ~ / ! G L H L K ~ K L K K K $ ",
"9.! L H 0 G K H H ! 0 H G H 0 K q X A :.! K H 0 q L G H K 0 H G K G G ! K G 8 # ",
"1.K K 8 9 q H G G H 0 H G L 0 H 9 X A :.K H H q H H G q H 0 G q H G G H G G 8 # ",
"5.H q 8 0 0 0 q 0 G q G 9 G q q q X N %.K H G 0 G q q q 0 0 0 q 9 9 L q 9 G 8 # ",
"z t 1 1 1 1 2 1 1 1 > : : : : :   O N c 1 1 1 1 1 1 1 1 1 1 > > : > > > : 2 : # ",
"A V V N = = * = A A V V N N = = * = N V N N N N N * * * N V N = * g N N N N N = ",
"/ / / ( / ( r N b l.~ / ( L ! ~ ! ~ L ~ ! ~ ! ! q V D c.~ ! ( ~ / ~ ~ ! ~ ! ~ ~ ",
"K K L ! ! H : = b H K H L H G L G G q K H G K q < N D ( q q L G K K K H H K H G ",
"H K K ! H G : = b K K H L 0 G H G H 8 H G G K H , N F / K q H L K H K H K L G q ",
"H G H K H G > N b q K 0 L q G K H q < H G H H G , N M / q L K K H K L G K H K q ",
"; < < < < ;   = h 0 0 9 9 9 8 8 8 < < 8 8 8 9 < - = n K 8 9 0 0 9 0 0 9 9 8 8 , ",
"= = * * = * * = V = @ * * = N N * @ * = = = * * * N V N * = V A N = @ = = = = * ",
"w.o.W I I W P J E J J E E E Y E E P Y t N n @.I I W W { E E Y Q E E Y E E E Y f ",
"p.! G H K H K H H H q G G K 0 H K K q < = M ( K H q 0 q K K 0 G G K H H H G G # ",
"9.L H 0 q G H K G K G H 0 H 9 q q G q ; * v / H 0 K q G q G q G 0 K K H G q H # ",
"p.! q H K G G H K K 9 G 9 H G q G G q , @ b ( 9 K 0 0 G K G q q G K q K H q 9 # ",
"c H 0 9 9 q q 0 9 0 8 < < 8 < 9 9 9 8 ; * m K q 0 0 9 q 8 9 9 8 9 0 0 9 9 8 8 # ",
"j i $ i i i & d f & # $ $ & # O # & # $ = B a i i & $ $ i d i $ & $ . . # $ & * ",
"7.7.7.1.1.,.1.y.h.,.c C V g.R T 9.7.7.c ,.1.,.,.,.,.,.,.0.Z V w.8.7.T e r c ,.q.",
"K q L q 0 H L H 0 q 9 & V z.! L G 0 K K H G L H H G q H 9 & V [ G G 9 H H H q 0 ",
"K 0 K q q G q q q G 8 & N ( G H q 0 H H q H H 0 0 0 q q 9 # V E G 0 K K q G 0 0 ",
"G G q G 0 H H 9 q H < & N ( q G G q H G q G G 0 9 H 9 q < # V W G q G G G 0 G L ",
"G H q H 0 q q 0 0 q 8 & V ( G H G q q G q 0 H 0 H q q q 9 # N E q 9 9 H G 9 q 0 ",
"9 8 9 < < 8 9 8 < 8 ; & V ! , 8 8 8 8 9 9 8 8 < 0 8 8 8 < . V U , < < 9 9 9 8 8 ",
"* * * % * * * * * * * = V V = = * * * * * * * * @ @ + @ @ + N N * * * * @ @ @ * ",
"A A V V A A A A A A A A A A A A A A A A A V A A V V V V A V A A V A A A V V V A "
};
