/* XPM */
static char *result[] = {
/* columns rows colors chars-per-pixel */
"40 40 83 1 ",
"  c #3D373D",
". c #3F383F",
"X c #40393F",
"o c #3F3940",
"O c #413C43",
"+ c #464046",
"@ c #464149",
"# c #49454C",
"$ c #4E494E",
"% c #4D4A53",
"& c #524D53",
"* c #514E59",
"= c #565156",
"- c #53525C",
"; c #5A555A",
": c #565661",
"> c #595762",
", c #5A5A66",
"< c #5D5D69",
"1 c #635F64",
"2 c #656266",
"3 c #61616E",
"4 c #696569",
"5 c #6E6A6E",
"6 c #646573",
"7 c #666976",
"8 c #6E6C73",
"9 c #676A79",
"0 c #6A6D7B",
"q c #726E72",
"w c #6D707F",
"e c #757175",
"r c #72737C",
"t c #7A777B",
"y c #7D7A7D",
"u c #6E7281",
"i c #727585",
"p c #7A7A83",
"a c #767B8D",
"s c #797E8F",
"d c #797E90",
"f c #827F83",
"g c #7D8395",
"h c #7F8699",
"j c #858285",
"k c #84848E",
"l c #89868A",
"z c #8D898D",
"x c #808597",
"c c #878A93",
"v c #80879B",
"b c #838A9D",
"n c #918F92",
"m c #959295",
"M c #999699",
"N c #9D9B9D",
"B c #868EA1",
"V c #888FA3",
"C c #8790A4",
"Z c #8991A5",
"A c #8C95A9",
"S c #9F9EA1",
"D c #9097AC",
"F c #9098AD",
"G c #A09EA0",
"H c #A3A2A4",
"J c #A6A6AA",
"K c #A9A7A9",
"L c #ADACAD",
"P c #B1AFB0",
"I c #B4B3B5",
"U c #B8B7B7",
"Y c #B8B7B8",
"T c #BCBBBC",
"R c #C0BFC0",
"E c #C4C3C4",
"W c #C7C6C8",
"Q c #C8C7C8",
"! c #CDCDCD",
"~ c #D0CFD0",
"^ c #D3D3D3",
"/ c #D8D7D8",
"( c #D8D8D8",
/* pixels */
".      O......o  *uuu<   ooo      oo oo ",
"   X     O,uuu3%*dCCCh*%uu0:o    +-$    ",
"        .&ZZAZAbhZACAAhbAAAV#  o,aB<    ",
"#O O X OX-FAAFAAADDAAAAAAAAA$oO:VV6O  oo",
"uuOo     -ZZZZACZZZZZZCCZCCB@oaVh*.#sb% ",
"uBu#     @sZCZZCZZZCZAZZCAbuO3Ba%o%aZa@ ",
"9CZx%O O. #,<9AZAAAAAAZh<<%O:Bd#O,hC3@@%",
"*BAAB,X  .o. -AAAAAZAAAd  oo3A0o6BZ7.Oab",
"oiVAZb<O     *ZVddaaaahg    1VVBZb: @iC0",
"o<VAZZbuoo   %itpSJJJNt8O   *hAZCwO@uB0@",
"o@dFAZAA0%o &jUQ^(^^^(^En1OO<BAVZgugC0O ",
"oo<AVVAAAh$#Y^^^^^^^^(^^^E4#BCvAZZAC7+o.",
"  O<VVZAVbwUmNSI^^^^^^^^^^~H07@<sa6%    ",
"   OibAAVpLYITQS~^^^^(^^^^^~yO.o#@O     ",
"   OO*gAgJ/LWGUH^(^^^(^^^^^^E5..  .   ..",
"      *ukR^ENTNY^^^^^^^^^^~~~Ho         ",
"   X    G^(^NM!~~^^^^^^^^^^~^!2         ",
"o  X  XXE^(^!TKR~(^^^^^^^(^^^^j . .     ",
"       X!^(^^^!IHI~^^^^^^^^^^^z         ",
"        !~^^~RPLPPQ^~^ILPT^^~^z         ",
"   o    Q^^!2+. ot~~~m.  +m~^^z         ",
"   o   X!(^n. .  #I^I=   X&K^^z.     .. ",
"        L^!q      z^j      z^!2         ",
"   o    z!!e      z^j     .z^T$         ",
"   X ...$H^J... X+I^I;    ;T~j          ",
"X oXo ...4~!e$+O#j~!~N$+O#N^H&X       . ",
"   X  ...>lE~RIIU~G4Q^RIIT~Tr#          ",
"      . 3hpgQ^^^^^H4Q^^~^^IcCwX         ",
"  .o  o3CZw+=n!^^^^~~^^^Yl+<CZw+. .     ",
". .  O7CBi@  =mGIE~!!!LMj$ XwbCwo.      ",
"    $iZZ;..  2~TqMM5NNyUY;  O<CCw#    . ",
"  .$gCC6     ;L!M^!n~^HRz=   X0CCwO     ",
" O7CCg#      mIleNn5mGyMEf    X,CCr@  . ",
" :CAg-       lQJLUN5HUnEEe     .0BCwX   ",
" @u0@ ..     yngPT!N~Ejjm5      .<CC-.. ",
"  +O  .      MEUGmnfmnNI~f      ..ww.   ",
"   o   .     f^^^^^^^^~^Q5              ",
"       .     =R^^^^^^^^^M$              ",
"   o   .  X  X1K^^(^^(!N+.        ..    ",
"   O   .       $jP~^^Qz$                "
};
