/* XPM */
static char *space1667941774[] = {
/* columns rows colors chars-per-pixel */
"50 50 194 2 ",
"   c #FECF4E",
".  c #FED150",
"X  c #FED754",
"o  c #FEDF5B",
"O  c #FEE660",
"+  c #FEE760",
"@  c #FFE45D",
"#  c #FFE15C",
"$  c #FFE361",
"%  c #FFE76B",
"&  c #FFEA72",
"*  c #FFE76F",
"=  c #FFDD63",
"-  c #FED556",
";  c #FED452",
":  c #FEDA56",
">  c #FEE35E",
",  c #FEE761",
"<  c #FEE55F",
"1  c #FFE25C",
"2  c #FFE15E",
"3  c #FFE566",
"4  c #FFE96F",
"5  c #FFE972",
"6  c #FFE26A",
"7  c #FED95C",
"8  c #FED352",
"9  c #FED653",
"0  c #FEDF5A",
"q  c #FFE465",
"w  c #FFE86E",
"e  c #FFEB75",
"r  c #FFEC78",
"t  c #FED654",
"y  c #FEDE5A",
"u  c #FEE45E",
"i  c #FFE35D",
"p  c #FFE261",
"a  c #FFE66A",
"s  c #FFE970",
"d  c #FFE66D",
"f  c #FFDD62",
"g  c #FED956",
"h  c #FEE15C",
"j  c #FFE15D",
"k  c #FFE870",
"l  c #FFE268",
"z  c #FED85B",
"x  c #FEDD59",
"c  c #FFE464",
"v  c #FFE76D",
"b  c #FFEA73",
"n  c #FED04F",
"m  c #FEE05B",
"M  c #FFE05B",
"N  c #FFE05C",
"B  c #FFE260",
"V  c #FFE368",
"C  c #FFDB5E",
"Z  c #FED454",
"A  c #FED251",
"S  c #FEDC58",
"D  c #FEE15B",
"F  c #FFE463",
"G  c #FFE669",
"H  c #FFE66B",
"J  c #FFE064",
"K  c #FED759",
"L  c #FED451",
"P  c #FFE362",
"I  c #FFE668",
"U  c #FED250",
"Y  c #FFDD58",
"T  c #FFE25E",
"R  c #FFE061",
"E  c #FFDA5A",
"W  c #FED353",
"Q  c #FED14F",
"!  c #FED955",
"~  c #FEDC57",
"^  c #FFDE5A",
"/  c #FFE360",
"(  c #FFE363",
")  c #FFDD5E",
"_  c #FED656",
"`  c #FFE25F",
"'  c #FFDA57",
"]  c #FFDE5B",
"[  c #FFD956",
"{  c #FED453",
"}  c #FED855",
"|  c #FFDC58",
" . c #FFDF5B",
".. c #FFDC59",
"X. c #FED554",
"o. c #FED658",
"O. c #FED858",
"+. c #FFDA58",
"@. c #FFDB58",
"#. c #FFDE59",
"$. c #FFDF5A",
"%. c #FFDB57",
"&. c #FED455",
"*. c #FED657",
"=. c #FED758",
"-. c #FED958",
";. c #FFE15B",
":. c #FFDD59",
">. c #FED553",
",. c #FFD955",
"<. c #FFDB5B",
"1. c #FFDD60",
"2. c #FFDF64",
"3. c #FFDD61",
"4. c #FEDA5B",
"5. c #FED856",
"6. c #FEDE59",
"7. c #FEE35D",
"8. c #FFDC5D",
"9. c #FFDE63",
"0. c #FFDC5F",
"q. c #FFDE58",
"w. c #FFE161",
"e. c #FFE569",
"r. c #FFE269",
"t. c #FEDA5E",
"y. c #FFE25D",
"u. c #FFE05D",
"i. c #FFE365",
"p. c #FFE66C",
"a. c #FFE56C",
"s. c #FEE45F",
"d. c #FFE05A",
"f. c #FFE769",
"g. c #FFE86D",
"h. c #FEDA5D",
"j. c #FED351",
"k. c #FEE25D",
"l. c #FFE86C",
"z. c #FEE25C",
"x. c #FFE76A",
"c. c #FFE564",
"v. c #FFE062",
"b. c #FED859",
"n. c #FEDB57",
"m. c #FFE462",
"M. c #FFDD5B",
"N. c #FED756",
"B. c #FFDA56",
"V. c #FED552",
"C. c #FFD957",
"Z. c #FED757",
"A. c #FFD755",
"S. c #FFD958",
"D. c #FFDB5C",
"F. c #FFDC60",
"G. c #FFDA5C",
"H. c #FFD959",
"J. c #FFDC57",
"K. c #FFDF5E",
"L. c #FFE265",
"P. c #FFE56B",
"I. c #FFE369",
"U. c #FFE469",
"Y. c #FFE46B",
"T. c #FFE065",
"R. c #FED95B",
"E. c #FFE76C",
"W. c #FFE76E",
"Q. c #FFE166",
"!. c #FED85A",
"~. c #FECE4E",
"^. c #FFE35F",
"/. c #FFE565",
"(. c #FFE667",
"). c #FFE568",
"_. c #FFDF61",
"`. c #FFE15F",
"'. c #FFDC5B",
"]. c #FED655",
"[. c #FED252",
"{. c #FED857",
"}. c #FFE066",
"|. c #FFDE5E",
" X c #FFE165",
".X c #FFE86F",
"XX c #FFE461",
"oX c #FED755",
"OX c #FED95A",
"+X c #FFDA59",
"@X c #FFE167",
"#X c #FFDE62",
"$X c #FECF4F",
"%X c white",
/* pixels */
"  . X o O + @ # $ % & * = - ; : > , < 1 2 3 4 5 6 7 8 9 0 O + @ # $ % & * = - ; : > , < 1 2 q w e r ",
"  . t y u < i # p a s d f - 8 g h < u 1 j q w k l z 8 9 x u < i # p a s d f - 8 g h < u 1 j c v b e ",
"  n ; : 0 m M N B 3 % V C Z A 9 S m D M j F G H J K A L g 0 m M N B 3 % V C Z A 9 S m D M j P I v w ",
"  n U ; X : Y M T P c R E W Q U 9 ! ~ ^ # / F ( ) _ . . ; X : Y M T P c R E W Q U 9 ! ~ ^ # ` P c q ",
"n Q . . 8 t ' ^ N j j ] [ 8 . . A { } |  .# j N ..t U n . 8 t ' ^ N j j ] [ 8 . . A { } |  .# j j 2 ",
"; ; X.- o.O.+.@.#.M # $.%.X { &.*.=.-.+.| $.;.;.:.! >.Z - o.O.+.@.#.M # $.%.X { &.*.=.-.+.| ^ M 1 1 ",
",.' <.1.2.3.4.5.: 6.7.7.$.%.+.8.9.9.0.-.} ~ D 7.h :.' <.1.2.3.4.5.: 6.7.7.$.%.+.8.9.9.0.-.} ~ D u < ",
"q. .w.e.d r.t.X.9 S > < y.M u.i.p.a.9.=.{ ! m s.u ;. .w.e.d r.t.X.9 S > < y.M u.i.p.a.9.=.{ ! m < , ",
"d.# P f.g.V h.W j.! o k.1 # ` 3 l.p.9.*.A >.S h z.;.# P x.g.V h.W j.! o k.1 # ` 3 l.p.9.*.A 9 S h > ",
";.# / c.3 v.b.A Q L } n.#.M T m.3 i.8.&.. U 9 : S $.# / c.3 v.b.A Q L } n.#.M T m.3 i.8.&.. U 9 g : ",
"M M # T 2 M.N.A n . j.9 B.#.N T ` u.+.{ . n U ; } |  .j T 2 M.N.A n . j.9 B.#.N T ` u.+.{ . Q A 8 ; ",
":.:.$.M ;.#.g V.8 W &._ C.| #.M # M %.X 8 8 Z - Z.+.:.$.;.;.#.g V.8 W &._ C.| #.M # M %.X 8 W Z - - ",
"A.,.| M y.# Y [ S.D.F.F.G.C.B.#.1 y.$.%.[ E 0.3.C H.[ J.d.i # Y [ S.D.F.F.G.C.B.#.1 y.$.%.[ E C f = ",
"U ; } 0 u u ;.^ K.L.P.I.F._ 9 n.k.< 7.$.] w.U.Y.T.R.X.} 0 u u ;.^ K.L.P.I.F._ 9 n.k.< 7.$.] R V d * ",
"  . >.S k.7.1 # B I w P.F.&.j.} o > 7.# j c E.W.Q.!.8 V.S k.7.1 # B I w P.F.&.j.} o > 7.# j c % s & ",
"~.n A X n.x $.# ^./.I L.D.W . L ! S 6.M j m.(.)._.*.. U 9 n.x $.# ^./.I L.D.W . L ! S 6.M j P 3 a % ",
"  n Q A ; } J.$.j ^.B K.S.8 n Q j.9 : #.N T / `.'.].. n U ; } J.$.j ^.B K.S.8 n Q j.9 : #.N T B p $ ",
"U A A [.Z ].' :.$.# # ^ [ V.A A W X.5.@.^ M # M | X j.A [.Z ].' :.$.# # ^ [ V.A A W X.5.@.^ M N # # ",
"9 X {.R.t.h.E ' J.$.1 ;.Y g N.b.h.t.4.+.' :.;.1 $.n.} Z.R.t.h.E ' J.$.1 ;.Y g N.b.h.t.4.+.' Y M i @ ",
"J...K.L.I.}.h.].} x 7.u # #.M.v.V r.3.O.t : D u 7.$.:.|. XI.}.h.].} x 7.u # #.M.v.V r.3.O.t : m < + ",
"$.N P a .XI.t.Z ; n.k.u i ;.2 3 g.d 2.o.8 X 0 > > # N P a .XI.t.Z ; n.k.u i ;.2 3 g.d 2.o.8 X 0 u O ",
";.j $ (.a  XR.[.U 9 S 0 d.;.T c.x.e.1.- . L g x 0 M # XX(.a  XR.[.U 9 S 0 d.;.T c.x.e.1.- . ; g x 0 ",
";.# T $ P |.Z.A n U V.} J.$.j / P w.<.Z n Q j.t : :.M T XXP |.Z.A n U V.} J.$.j / P w.<.Z n . L 9 9 ",
"$.$.M # N :.} j.. . 8 X.[ :. .# #  .' >.U . A { oX@.^ M # N :.} j.. . 8 X.[ :. .# #  .' >.U . A 8 8 ",
"' %.:.M # $.n.X ].*.!.R.H.+.| $.;.;.:.! t _ K z OX+X@.:.M # $.n.X ].*.!.R.H.+.| $.;.;.:.! t _ K z 7 ",
"; t : o > 7.$.| '._.Q.T.C Z.} S z.u h :...) J @X#XOXoX: 0 > 7.$.| '._.Q.T.C Z.} S z.u h :...) J l 6 ",
"n A X y > u 1 M `.).W.Y.3.- ; : h s.7.;.N ( p.W.@Xz { t x > u 1 M `.).W.Y.3.- ; : h s.7.;.N ( H k 5 ",
"~.n ; g 0 D ;.# / (.E.U.0.Z U 9 S m D ;.j F x.p.J K A j.g 0 D ;.# / (.E.U.0.Z U 9 S m D ;.j F G w 4 ",
"  $X. ; X : :.M T m.c w.E 8 n U >.! ~ $.# / F ( ) _ . Q L X : :.M T m.c w.E 8 n U >.! ~ $.# / F q 3 ",
"n Q . . 8 t ' ^ N j j ] [ 8 . . A { } |  .# j N ..t U n . 8 t ' ^ N j j ] [ 8 . . A { } |  .# j j 2 ",
"; ; X.- o.O.+.@.#.M # $.%.X { &.*.=.-.+.| $.;.;.:.! >.Z - o.O.+.@.#.M # $.%.X { &.*.=.-.+.| ^ M 1 1 ",
",.' <.1.2.3.4.5.: 6.7.7.$.%.+.8.9.9.0.-.} ~ D 7.h :.' <.1.2.3.4.5.: 6.7.7.$.%.+.8.9.9.0.-.} ~ D u < ",
"q. .w.e.d r.t.X.9 S > < y.M u.i.p.a.9.=.{ ! m s.u ;. .w.e.d r.t.X.9 S > < y.M u.i.p.a.9.=.{ ! m < , ",
"d.# P f.g.V h.W j.! o k.1 # ` 3 l.p.9.*.A >.S h z.;.# P x.g.V h.W j.! o k.1 # ` 3 l.p.9.*.A 9 S h > ",
";.# / c.3 v.b.A Q L } n.#.M T m.3 i.8.&.. U 9 : S $.# / c.3 v.b.A Q L } n.#.M T m.3 i.8.&.. U 9 g : ",
"M M # T 2 M.N.A n . j.9 B.#.N T ` u.+.{ . n U ; } |  .j T 2 M.N.A n . j.9 B.#.N T ` u.+.{ . Q A 8 ; ",
":.:.$.M ;.#.g V.8 W &._ C.| #.M # M %.X 8 8 Z - Z.+.:.$.;.;.#.g V.8 W &._ C.| #.M # M %.X 8 W Z - - ",
"A.,.| M y.# Y [ S.D.F.F.G.C.B.#.1 y.$.%.[ E 0.3.C H.[ J.d.i # Y [ S.D.F.F.G.C.B.#.1 y.$.%.[ E C f = ",
"U ; } 0 u u ;.^ K.L.P.I.F._ 9 n.k.< 7.$.] w.U.Y.T.R.X.} 0 u u ;.^ K.L.P.I.F._ 9 n.k.< 7.$.] R V d * ",
"  . >.S k.7.1 # B I w P.F.&.j.} o > 7.# j c E.W.Q.!.8 V.S k.7.1 # B I w P.F.&.j.} o > 7.# j c % s & ",
"~.n A X n.x $.# ^./.I L.D.W . L ! S 6.M j m.(.)._.*.. U 9 n.x $.# ^./.I L.D.W . L ! S 6.M j P 3 a % ",
"  n Q A ; } J.$.j ^.B K.S.8 n Q j.9 : #.N T / `.'.].. n U ; } J.$.j ^.B K.S.8 n Q j.9 : #.N T B p $ ",
"U A A [.Z ].' :.$.# # ^ [ V.A A W X.5.@.^ M # M | X j.A [.Z ].' :.$.# # ^ [ V.A A W X.5.@.^ M N # # ",
"9 X {.R.t.h.E ' J.$.1 ;.Y g N.b.h.t.4.+.' :.;.1 $.n.} Z.R.t.h.E ' J.$.1 ;.Y g N.b.h.t.4.+.' Y M i @ ",
"J...K.L.I.}.h.].} x 7.u # #.M.v.V r.3.O.t : D u 7.$.:.|. XI.}.h.].} x 7.u # #.M.v.V r.3.O.t : m < + ",
"$.N P a .XI.t.Z ; n.k.u y.;.2 3 g.d 2.o.8 X 0 > > # N P a .XI.t.Z ; n.k.u y.;.2 3 g.d 2.o.8 X 0 u O ",
"M # $ (.a L.R.[.A X S 0 M M T c.f.e.1.- . ; g y o M # $ (.a L.R.[.A X S 0 M M T c.f.e.1.- . ; : y o ",
"M N T $ P K.{.A Q A >.} | $.# / P w.<.X.. . ; X : :.M T $ P K.{.A Q A >.} | $.# / P w.<.X.. U ; t X ",
"M M N # N ..X A n n . ; ,.:.M # #  .' ; Q $Xn A t %.$.# j N ..X A n n . ; ,.:.M # #  .' ; Q n n . . ",
"M M M M $.J.9 U   ~.  U A.:.M ;.d.q.,.; n   ~.n ; ' $.;.;.$.J.9 U   ~.  U A.:.M ;.d.q.,.; n         "
};
