/* XPM */
static char *wall1667941774[] = {
/* columns rows colors chars-per-pixel */
"50 50 146 2 ",
"   c #88160F",
".  c #8C1B0E",
"X  c #921F0E",
"o  c #820F11",
"O  c #851210",
"+  c #8D240B",
"@  c #9B2307",
"#  c #942D0C",
"$  c #9F2C0B",
"%  c #9A3006",
"&  c #96330A",
"*  c #9A350B",
"=  c #9C390C",
"-  c #982C12",
";  c #A42E03",
":  c #A92F02",
">  c #A23306",
",  c #AB3103",
"<  c #AE3907",
"1  c #A53508",
"2  c #AC3709",
"3  c #A43B0C",
"4  c #AC3B0A",
"5  c #B23403",
"6  c #B93704",
"7  c #B33906",
"8  c #BB3C06",
"9  c #B23C08",
"0  c #BA3F0A",
"q  c #A23F17",
"w  c #A93F15",
"e  c #C43D06",
"r  c #A7410E",
"t  c #AB420E",
"y  c #B5430D",
"u  c #BB430B",
"i  c #B7480E",
"p  c #BB4B0F",
"a  c #A44310",
"s  c #AC4511",
"d  c #AC4A13",
"f  c #B44610",
"g  c #BA4710",
"h  c #B24B12",
"j  c #BB4C12",
"k  c #AC501B",
"l  c #B45115",
"z  c #BD5215",
"x  c #B5561B",
"c  c #BC5518",
"v  c #BE5D1B",
"b  c #BE601C",
"n  c #B65A22",
"m  c #C74107",
"M  c #C84206",
"N  c #C5430A",
"B  c #C8450B",
"V  c #C34A0D",
"C  c #CB4B0C",
"Z  c #C6510F",
"A  c #CC540E",
"S  c #D1590F",
"D  c #C34E11",
"F  c #C35414",
"G  c #CC5513",
"H  c #C45A16",
"J  c #CE5A15",
"K  c #C15618",
"L  c #C85718",
"P  c #C55C19",
"I  c #CD5D1A",
"U  c #D15C13",
"Y  c #D15F18",
"T  c #CE6117",
"R  c #C3621C",
"E  c #CB631C",
"W  c #CE6A1E",
"Q  c #D26316",
"!  c #D2641A",
"~  c #D46B1D",
"^  c #D6711F",
"/  c #D8731F",
"(  c #C66521",
")  c #CE6721",
"_  c #C56922",
"`  c #CC6C23",
"'  c #D06421",
"]  c #D36D21",
"[  c #CE7024",
"{  c #C3732E",
"}  c #CC742B",
"|  c #CE7A2F",
" . c #D67323",
".. c #D87624",
"X. c #D67A26",
"o. c #DA7B25",
"O. c #D57529",
"+. c #D67B2C",
"@. c #D97D2A",
"#. c #CE7C31",
"$. c #D57D31",
"%. c #D97F32",
"&. c #D87F3C",
"*. c #DD8026",
"=. c #D7812D",
"-. c #DB832C",
";. c #DE892F",
":. c #D58233",
">. c #DB8432",
",. c #DD8B34",
"<. c #D9843F",
"1. c #DD8D39",
"2. c #DF9037",
"3. c #DE923B",
"4. c #E08E33",
"5. c #E19235",
"6. c #E0953C",
"7. c #E1993E",
"8. c #DE8F40",
"9. c #DE9542",
"0. c #DF9A43",
"q. c #E09743",
"w. c #E19C43",
"e. c #E29D4B",
"r. c #E19F51",
"t. c #DFA149",
"y. c #E2A146",
"u. c #E3A44B",
"i. c #E4A94F",
"p. c #E3A352",
"a. c #E5AB54",
"s. c #E3A65B",
"d. c #E5AC5B",
"f. c #E6B157",
"g. c #E8B257",
"h. c #E6B25C",
"j. c #E8B358",
"k. c #E7B463",
"l. c #E8B664",
"z. c #E8B865",
"x. c #E8B66A",
"c. c #E9BB6B",
"v. c #EABE72",
"b. c #EAC175",
"n. c #EBC47B",
"m. c #ECC981",
/* pixels */
"* * * * & & & & % % < , 8 e C U ~ o.o.o. .v t = d R X.*.*.../ Q J S A S S S U A u < , % & # +   O O ",
"* * * = = = = * = 1 < 7 8 N C Q  .o.*.*.X.b d a d R  .*.*.X./ ^ Q U U Q Q S U J V u < 4 = = # X   O ",
"* * 3 t d d d d s y y u p Z J ] @.;.4.4.=._ l 4 s H ~ ..-.-.-.X. . . . .~ ! Q J H c c x k k q - + . ",
"> 1 4 l b R R b R F F G J Q  .@.,.6.7.7.1.} x w i j I ^ -.2.3.2.,.>.>.>.-. .Q Q W [ | :.#.{ n w $ @ ",
", < p R [ X.=.X. .~ ! ! ~  .@.<.w.y.u.u.3.:.v f 0 N G ] >.0.u.u.y.y.t.y.3.-.] ] X.3.0.u.t.3.{ z 2 : ",
"i p H [ ;.,.2.;.;.o.~ ~ ~  .@.4.u.a.f.a.t.:.R j g L ) +.9.a.f.h.a.f.f.i.w.>.....,.u.a.g.a.t.+.v 7 : ",
"H T [ -.5.7.7.5.5.*.o.] ~ ! O.8.s.l.l.f.t.:.E G L ` :.9.s.l.c.c.c.l.f.a.w.1.@.@.9.s.z.z.f.t.#.c 7 , ",
"^ / -.2.y.y.y.y.7.4.*...Y J ' &.s.v.c.f.t.:.E L ' %.9.a.k.c.b.b.b.c.h.a.y.,.-.>.0.k.v.c.f.0.| c 9 : ",
"*.*.;.0.p.a.g.a.u.7.5.o.' G I &.s.c.k.a.9.+.I G ' $.w.a.l.c.b.b.n.v.d.i.6.,.;.,.e.x.b.b.k.0.$.K 9 5 ",
"X.-.2.t.k.c.z.h.g.i.w.,.] G I &.p.h.a.u.1.O.P F P O.2.u.a.k.c.b.n.v.s.w.,.;.-.,.p.z.b.c.h.0.$.L u 6 ",
"..@.2.s.x.b.v.v.z.h.u.2.O.J Y O.9.i.y.2.=.` K g K ] -.2.w.p.l.c.v.x.a.1.;.*.*.,.e.x.b.c.f.0.%.I N e ",
"/ -.1.d.v.n.m.n.v.l.a.q.+.' Y O.,.3.,.@. .P j f z R  .=.2.w.i.k.x.s.8.$. . .X.,.e.k.c.z.a.0.O.Y B e ",
"o.*.6.s.v.m.m.m.b.l.a.0.>...]  .+.X.O.E L j f 9 i j R ` -.2.w.u.u.9.#.) E ~ X.>.e.a.d.d.e.4.O.J B e ",
"o.*.6.s.v.m.m.v.c.k.a.w.,.-... .] ] R c j f y y y i p R [ -.4.4.,.=._ K z R X.;.6.i.i.u.5.-.] G B e ",
"/ o.,.e.x.v.v.v.c.h.i.w.,.@.X. .] ~ E F c h j j g g j c E  ...X. .` H g j T  .-.5.w.w.2.4.] ! G C B ",
"^ / @.6.r.d.k.k.h.p.w.,.@. .]  .+.+.O.} _ _ P P H H P P P P R R R c z p D R  .;.2.2.1.-. .! U S G C ",
"Q Q ~ @.4.w.u.a.p.w.4.@.] Y Y O.,.9.9.3.1.:.+.[  . .` E P z j d k h j D L ! o.*.4.;.-. .! U G G S S ",
"A H T ~ o.>.6.w.w.5.-.o.' J Y O.3.u.i.a.i.w.3.>.;.-.-. .R j f s s s g D G ! ] @.o.@...! J D D G Z A ",
"i p F T ] o.;.2.5.,.-.o.! Y ! +.3.i.f.h.h.d.a.0.0.6.2.:.[ P z h f f D G L Y ! ' ~ ~ ! L j f i j p p ",
"3 r h F !  .@.;.;.,.@.o.~ Y ! %.0.a.f.c.v.c.x.k.d.a.w.2.=. .E F D D D U Y U J J J G L D h t w t r r ",
"= = t F T  ...o.*.-.@...^ ! ~ @.3.a.h.b.b.b.n.b.c.h.u.7.,.-. .I G C J Y ! Y I J J G G z s a = = = * ",
"1 4 y H ! ^ o.o.o.o... .~ ! ^ @.3.a.h.b.n.n.n.n.c.h.i.7.2.-. .Q G G Y ! ] ] ] ] ] ] ) K j s w = & & ",
"7 0 p T  .o.*.o... .~ ~ ! Q ] @.0.a.k.b.n.n.n.n.c.h.i.w.4.-. .! G G !  .o.:.>.1.8.1.>.O.L g w * * & ",
"N C G ~ @.*.;.-.o. .~ Q Q ! ] %.3.i.h.c.b.n.n.b.c.h.u.w.2.*. .Y J J ! ..>.5.y.y.p.u.q.:.) L g 2 = * ",
"A U ! o.,.,.5.,.;...] ! Q ! ~ o.1.w.s.k.c.c.c.z.k.f.u.w.2.-./ Q U Y ! o.4.6.y.a.h.j.a.e.&.' K f r 3 ",
"! ~ O.,.q.w.w.7.2.>.o.^ ~ Q !  .-.5.w.a.h.h.h.d.a.a.i.w.2.-./ ~ Q Q ] @.,.6.u.a.h.c.x.s.w.>.) K u 8 ",
"..o.*.6.w.y.u.u.w.6.>.o./ ~ ! ^ o.>.5.w.i.i.i.i.u.u.y.w.2.-...^ ! ~ ] ..;.,.w.i.h.c.c.k.a.9.$.L N 8 ",
"/ ..*.,.7.u.a.f.a.p.q.1.@. .^ ^  .o.:.,.2.3.7.w.0.y.3.7.;.-...^ ! Q ~ ^  .-.1.9.p.d.k.h.f.e.:.I N 8 ",
"Q ~ / -.2.w.d.l.c.l.d.r.3.@. .^ ~ ~ ....@.-.,.4.2.3.,.4.;.-...^ ! Q Y Y ! ] O.@.1.9.e.i.i.t.=.H u 6 ",
"S Q Q / -.3.s.c.b.n.v.x.e.,.o.^ ~ ! ! ~ ~  .o.@.-.-.*.@.-.*...^ ! Y U G G Y ! ^ ..@.,.6.y.t.| c 7 , ",
"Z Z J Q  .1.u.x.v.n.v.v.a.1.o./ ! Q ! ! ! ~ ^  ... . . . .W [ ~ ~ ! Y U U Y ! ~ ~ ]  .>.3.3.| z < : ",
"u u V H ! @.9.d.x.n.n.v.p.6.o.~ ~ Q ~ ~ ^ ~ ! Y Y Q Q E H H R W ]  .] ~ ! ] ^ ^ ! ! ! ..>.>.` j < : ",
"< 7 u Z T o.2.u.d.c.v.x.p.4.O.^ ! ! ^ o...] ! G G G G D D g F ) X.*.@.o.o.@.o...! J J ! o.o.) j < , ",
"y u Z R ] @.,.0.i.d.k.s.e.>. .^ ~ ~ ..*.-.o.! I C D V V j j P [ =.>.,.>.;.,.,.-. .! J ! ] ] R j u 7 ",
"H R W [ >.,.,.,.2.w.e.q.4.o.^ ~ / ..-.4.1.>...! L D V g F P ` =.2.3.7.5.3.7.6.,.-. .! E ! J J C p V ",
"~ ^ +.2.3.9.2.;.>.,.,.>.O.~ ~ ~ ..@.,.6.w.6.>.o.) c g D R  .-.1.t.y.y.y.y.y.y.0.1.-...~ Y L A G A A ",
"/ *.,.0.i.u.0.,.;.*.o...]  . .@.>.6.w.p.p.w.4.@.E F j K ` -.5.u.i.a.a.a.a.a.a.i.w.5.-. .! J G U S S ",
"*.-.3.p.h.h.a.3.,.o.....o.@.4.8.e.s.d.k.h.p.6.@.~ L D P O.4.y.a.h.z.z.k.z.z.l.h.a.w.1.-.] ! Y Y Q S ",
"/ *.3.a.c.c.d.t.1.@.] ] @.4.e.p.k.x.v.b.c.d.6.@.! L G I $.w.p.k.c.b.v.v.v.v.v.c.h.p.w.,.-...~ Q Q S ",
"/ *.1.r.k.x.h.i.9.@.~ ] %.q.a.k.c.b.b.b.v.d.w.>. .J G E %.w.a.k.v.b.b.n.n.n.n.v.z.a.u.3.;.o./ Q S S ",
"~ ^ @.6.r.a.a.i.3.+.! ' +.w.a.h.k.c.b.b.b.l.i.1.O.' G Y +.5.u.a.z.c.b.n.m.n.n.b.c.d.u.3.2.-./ Q Q S ",
"U ! ] @.,.9.u.u.9.+.I ' +.q.u.a.a.h.l.b.b.c.a.0.%.' G J ] >.6.e.a.h.c.b.n.n.n.b.z.a.u.6.,.o./ Q U S ",
"S U Q  .@.,.3.y.1.O.I Y O.3.y.u.u.i.h.c.c.c.f.t.,.' G J ! o.-.5.w.a.h.c.b.n.b.c.k.i.w.5.;.-.^ T H A ",
"S U Q ^ o.;.2.2.,. .Y Y O.,.7.y.y.i.h.k.z.l.f.u.4.O.Y G U ]  .>.3.w.a.l.c.c.c.l.a.u.7.5.;.*.W P j p ",
"S U Q / o.;.,.,.*. .! !  .;.,.7.w.i.a.a.a.f.a.u.1.O.Y J G J !  .;.3.u.a.h.h.h.a.y.3.,.;.-.X.W l a 3 ",
"S U Q ~ o.*.o.o...~ ! ! ~ ..-.2.w.u.y.y.u.w.e.w.1.+.~ Y J G I ~ ..-.,.0.0.t.0.0.2.-.X.*.X. .b d = & ",
"p j F T ~ ~ ] ! ! U U J Q ~ ..-.,.3.1.>.$.:.,.,.>.%.@.O.~ ! J Q ! ] ..+.=.$.| } [ R R R b b k r = & ",
"r t i H Q Q Y G G C C A A Y ~ ..-.-...' ! ! !  .@.,.1.,.@. .! U G J L I I P c c z j i i l d a = * & ",
"* = r p U S A B M N N C C S Q ^ / ..! G C C S Q X.1.w.7.,.o.~ Y C B B B B u 9 9 7 7 2 3 3 * = * * * ",
"& * r p Z S C M m M m N C A U ~ / / Q A m M C J  .2.y.y.5.-.~ J B e e e e 6 5 : : : , > % & & * * * "
};
