/* XPM */
static char *result[] = {
/* columns rows colors chars-per-pixel */
"40 40 161 2 ",
"   c #563C1E",
".  c #784F2A",
"X  c #734C29",
"o  c #734C28",
"O  c #724B28",
"+  c #754D29",
"@  c #744C29",
"#  c #6F4A27",
"$  c #764E2A",
"%  c #6E4927",
"&  c #4E3A1A",
"*  c #5D411F",
"=  c #644422",
"-  c #4E381B",
";  c #4D361A",
":  c #4A3519",
">  c #654523",
",  c #593F1E",
"<  c #5F4220",
"1  c #573E1D",
"2  c #533C1C",
"3  c #4A3719",
"4  c #553B1D",
"5  c #372A12",
"6  c #543D1C",
"7  c #553C1D",
"8  c #6C4926",
"9  c #513B1B",
"0  c #513B1C",
"q  c #5C4020",
"w  c #30250F",
"e  c #674624",
"r  c #593E1F",
"t  c #513A1C",
"y  c #654522",
"u  c #483818",
"i  c #634422",
"p  c #744C28",
"a  c #6E4926",
"s  c #563D1D",
"d  c #5C3E20",
"f  c #583D1E",
"g  c #7F532D",
"h  c #4A3919",
"j  c #694724",
"k  c #5A401E",
"l  c #513C1B",
"z  c #674524",
"x  c #3E2E14",
"c  c #895831",
"v  c #533D1C",
"b  c #583F1E",
"n  c #684624",
"m  c #724C28",
"M  c #332710",
"N  c #81542E",
"B  c #5E4220",
"V  c #6B4825",
"C  c #754D28",
"Z  c #4D3A1A",
"A  c #714B27",
"S  c #6C4825",
"D  c #543C1C",
"F  c #82542E",
"G  c #664623",
"H  c #875730",
"J  c #5D4120",
"K  c #543D1D",
"L  c #724B27",
"P  c #614321",
"I  c #855630",
"U  c #4F3B1B",
"Y  c #704A26",
"T  c #624321",
"R  c #4C3919",
"E  c #4B3919",
"W  c #523B1B",
"Q  c #664523",
"!  c #5C4120",
"~  c #82552F",
"^  c #4C3A1A",
"/  c #6A4725",
"(  c #6A4724",
")  c #583E1E",
"_  c #7E532D",
"`  c #503B1B",
"'  c #885831",
"]  c #5A411F",
"[  c #5C401F",
"{  c #865730",
"}  c #684623",
"|  c #704A27",
" . c #6D4926",
".. c #7F542E",
"X. c #664522",
"o. c #614221",
"O. c #7A502B",
"+. c #604220",
"@. c #5B401F",
"#. c #624322",
"$. c #5C411F",
"%. c #6A4825",
"&. c #754E2A",
"*. c #734B27",
"=. c #5A3F1F",
"-. c #6B4824",
";. c #6E4925",
":. c #563E1D",
">. c #4F3A1A",
",. c #6C4A26",
"<. c #5E4120",
"1. c #84562F",
"2. c #523C1C",
"3. c #644523",
"4. c #4E3B1A",
"5. c #6B4724",
"6. c #604221",
"7. c #604321",
"8. c #664624",
"9. c #493818",
"0. c #6D4825",
"q. c #553D1D",
"w. c #5F4221",
"e. c #614422",
"r. c #5A401F",
"t. c #714C28",
"y. c #83552F",
"u. c #684724",
"i. c #5A3F1E",
"p. c #5F4120",
"a. c #6C4824",
"s. c #573E1E",
"d. c #714A26",
"f. c #604320",
"g. c #5B3F1F",
"h. c #885730",
"j. c #654423",
"k. c #5C4220",
"l. c #6F4A26",
"z. c #513C1C",
"x. c #644421",
"c. c #5D4220",
"v. c #634421",
"b. c #624422",
"n. c #774F2A",
"m. c #503C1B",
"M. c #533D1D",
"N. c #80532D",
"B. c #553E1D",
"V. c #583E1D",
"C. c #694725",
"Z. c #5E4121",
"A. c #7E522C",
"S. c #674623",
"D. c #724C27",
"F. c #6D4925",
"G. c #493919",
"H. c #563E1E",
"J. c #7B502B",
"K. c #583F1F",
"L. c #744D29",
/* pixels */
"                                                                                ",
". . . . X o O . . . . . . . . + @ # . . + @ # . . . $ + % $ . . . . . . + o X . ",
"& * = = - ; : > & & , < 1 2 2 3 4 5 # 6 7 4 5 8 9 & 0 q w e , 6 , 6 6 = r ; t y ",
"u i p a s d f g h u = j k l l & z x c v = z x c z b n m M N B v B v v p V d i C ",
"Z , A S D d f F 9 u e G k l l & z x H l = z x c p A S m M N B v B v v p V d i C ",
"k & J K 9 d f F J K L P k l l & z x I U = z x c p p S m M N B v B v v Y V d i i ",
"T R & E W d f F S Q p ! k l l & z x ~ ^ = z x c p p S m M N B v B v v / V d i P ",
"( U u 6 ) d f F L L p , k l l & z x _ ` = z x ' o p S m M N B v B v b i V d i ] ",
"a J h T [ d f F p p Y l k l l & z x _ q = z x { A p } m M N B v B v [ B V d i ] ",
"> A < | ) d f g p p Y l k l l & z x ~  .= z x ..X.A o.m M N B v B v [ B V d i P ",
"k L a S D d f O.p p n Z k l l & z x { A +.z x _ ` @.& m M N B v B v #.$.%.d i i ",
"v S p > W d f &.*.p > ^ $.l l & z x c *.=.z x _ u E E m M N B v B v -.k j d i A ",
"E i p K 9 d f m ;.p < Z +.l l & z x c ;.2 z x _ u u E m M N B v B v ;.:.e d i C ",
"h )  .>.9 d f ,.#.p b R P l l & z x c <.& z x 1.2.E b m M N B v B v p ` 3.d i C ",
"& Z 9 h 2 d f ,.[ ;.2.Z = l l & z x 1.4.& z x c 5.6.} m M N B v B l L Z 7.d i C ",
"6 u u 4.1 d f ,.9 ) E U <.l l & z x _ u & z x c p L S m M N B v B Z a ` 7.d i 8.",
"$.9.u 2., d f ,.9.E u v +.l l & z x _ u 2 z x c p p S m M N B v B R 0.:.P d i P ",
"[ E u q.q.d f ,.u u u @.B l l & z x _ u s z x ' o p S m M N B v B E S +.i d i ] ",
"+.v u y 2 d f ,.u u u w.B l l & z x _ h +.z x { A p V m M N B v B u j n e.d i ] ",
":.6 :.r.9 d f t.u u u y B l l & z x _ s i z x y.( p } m M N B v B u y a u.d i ] ",
"& +.+.9 9 d f O.Z u ` V k i.l & z x ~ ( = z x _ J L r.m M N B v B Z J L %.d i ] ",
"h r.6.h 9 d f N , 9.=./ v p.l & z x H L = z x _ ^ i ` m M N B v B 9 s p V d i P ",
"u U 2 u 9 d f F ( ^ Q S & 6.l & z x c p T z x _ u Z E m M N B v B 9 9 p V d i 8.",
"u u u 9.W d f F p z p u.u a.l & z x c p <.z x _ u u E m M N B v B s.>.o V d i C ",
"Z u u E D d f g p p p y u d.l & z x c Y ) z x ~ ^ u E m M N B v B f.u Y V d i C ",
"1 h u 2.s d f O.p p p @.u | U & z x c n & z x I s.u ` m M N B v k G u n V d i i ",
"P Z h g., d f m *.p o 6 h  .^ & z x h.J & z x c j.2.@.m M N B v K V h T ( d i k.",
"} 1 9 = ) d f ,.n p S U ` j u & z x I U & z x c A 6.Q m M N B v ` S E [ e d i ] ",
"i o.@.X.D d f ,.:.l.* h k j u & z x _ u ` z x c p A S m M N B v & a U z.> d i ] ",
"+.} = x.W d f ,.9.:.U u c.y u & z x _ u D z x c p p S m M N B v & A , & i d i ] ",
":.| p v.9 d f m u u u ^ Q J u & z x _ Z [ z x ' o p } m M N B v u Y <.E b.d i ] ",
"U ( p f.9 d f n.h u u m.a M.u & z x g , i z x { A p #.m M N B v u -.> Z 7.d i k.",
"E i L s.9 d f N.9 u u B.Y u u & z x 1.S = z x y.a L J m M N B v u #.;.` 7.d i i ",
"u 1 ( 9 9 d f N @.9.u w.a u s.& z x c p = z x N X.a V.m M N B , u , A =.i d i C.",
"u ` Z.h 9 d f A.5.E Z S.P u f.& z x c p = z x g @.T >.m M N B , u U a +.i d i D.",
"E h & h 2 d f t.Y = , l.$.u v.& z x c p = z x _ Z ` E m M N $.r.u E 6.( G d i . ",
"U u u Z s d f ,.P *.| F.2.G.j & z x c p P z x _ u h E m M N b P h 9.H.l.j d i J.",
"q.h u :.i.d f ,.m.a L 7.u U | & z x c A [ z x _ u u E m M N 2.= & u Z = e d i J.",
"P R u i.i.d f ,.u M.6.^ u b *.9 z x c 5.s z x _ u u E m M N E T U u u Z b.d i J.",
"Z.K.s.q 1 d f L.u u E u ` o.#.) z x 1.2.& z x ~ ^ u 2 m M N 2.r.2.u u u 7.d i % "
};
