/* XPM */
static char *Yin_Yang1685539622[] = {
/* columns rows colors chars-per-pixel */
"32 32 241 2 ",
"   c #030201",
".  c #0B0401",
"X  c #020B02",
"o  c #0B0B01",
"O  c #0B020B",
"+  c #08090C",
"@  c #140301",
"#  c #130B01",
"$  c #1B0C00",
"%  c #13070D",
"&  c #031303",
"*  c #0B1401",
"=  c #081607",
"-  c #131301",
";  c #1C1403",
":  c #13130C",
">  c #18190A",
",  c #030212",
"<  c #0D0B14",
"1  c #0B011B",
"2  c #0C0B1A",
"3  c #090518",
"4  c #140A13",
"5  c #130B19",
"6  c #1A0817",
"7  c #0B1219",
"8  c #181619",
"9  c #230D00",
"0  c #2B0C00",
"q  c #231500",
"w  c #2A1500",
"e  c #291C02",
"r  c #371902",
"t  c #261717",
"y  c #371F15",
"u  c #122200",
"i  c #1B230E",
"p  c #1A2319",
"a  c #2D2500",
"s  c #282400",
"d  c #352200",
"f  c #3A2300",
"g  c #3D2A00",
"h  c #372900",
"j  c #3B3500",
"k  c #272717",
"l  c #36311D",
"z  c #0B0626",
"x  c #120B2A",
"c  c #1B0C2C",
"v  c #170A26",
"b  c #161023",
"n  c #16142A",
"m  c #1B1826",
"M  c #1B1834",
"N  c #120D2F",
"B  c #231C28",
"V  c #1F2125",
"C  c #292725",
"Z  c #2C2A32",
"A  c #2F3432",
"S  c #483902",
"D  c #4C3000",
"F  c #463933",
"G  c #4E4300",
"H  c #665400",
"J  c #655C1B",
"K  c #7B6B05",
"L  c #585030",
"P  c #6B5933",
"I  c #56643C",
"U  c #7B6B32",
"Y  c #3C2D42",
"T  c #483C54",
"R  c #4A4759",
"E  c #535254",
"W  c #655D5A",
"Q  c #59625D",
"!  c #6A6D53",
"~  c #5B5B63",
"^  c #665675",
"/  c #757979",
"(  c #73607C",
")  c #86730E",
"_  c #827639",
"`  c #8F7B2A",
"'  c #86784B",
"]  c #72845A",
"[  c #7C8776",
"{  c #89820D",
"}  c #968618",
"|  c #9C911B",
" . c #988B24",
".. c #9B8735",
"X. c #9E9923",
"o. c #B8AE3D",
"O. c #A9982E",
"+. c #D7B906",
"@. c #D2B91D",
"#. c #E8B906",
"$. c #F1BA0D",
"%. c #EFB617",
"&. c #FBBC18",
"*. c #CBB828",
"=. c #D3BB29",
"-. c #D5BA33",
";. c #C7AF29",
":. c #FBB726",
">. c #E9BA26",
",. c #DCC300",
"<. c #D5C60D",
"1. c #DCD401",
"2. c #DBD60B",
"3. c #D9C815",
"4. c #DBD313",
"5. c #CAC418",
"6. c #EAC400",
"7. c #E4CA03",
"8. c #EDCC02",
"9. c #E8C808",
"0. c #F2C501",
"q. c #F4C907",
"w. c #E6D203",
"e. c #EED901",
"r. c #E8D809",
"t. c #F6DC00",
"y. c #FBD806",
"u. c #EDCB14",
"i. c #E8C71A",
"p. c #FECC1F",
"a. c #F7C718",
"s. c #EBD41B",
"d. c #E8D915",
"f. c #F5DE14",
"g. c #F6D51A",
"h. c #E5E201",
"j. c #ECE304",
"k. c #EBE40A",
"l. c #F2E20B",
"z. c #F6E605",
"x. c #ECE414",
"c. c #E8E419",
"v. c #F9E619",
"b. c #FCF419",
"n. c #DAC62B",
"m. c #DEC936",
"M. c #DCD22E",
"N. c #EACB21",
"B. c #E5C524",
"V. c #FEC323",
"C. c #FCC22E",
"Z. c #F4C925",
"A. c #EDD323",
"S. c #E6D826",
"D. c #F7D825",
"F. c #E6C939",
"G. c #FFC73A",
"H. c #E4DC3B",
"J. c #E4D437",
"K. c #F2D33A",
"L. c #EBE423",
"P. c #EBE527",
"I. c #F6E825",
"U. c #FAE836",
"Y. c #FAF625",
"T. c #B09B46",
"R. c #93937C",
"E. c #ACA173",
"W. c #948858",
"Q. c #C2B147",
"!. c #DFD749",
"~. c #DAC650",
"^. c #E5CC46",
"/. c #E9D747",
"(. c #F4DD47",
"). c #EDD855",
"_. c #F1DC57",
"`. c #EDE448",
"'. c #F3E95C",
"]. c #F3E84C",
"[. c #E2D263",
"{. c #F5E860",
"}. c #FBF164",
"|. c #FEED79",
" X c #695884",
".X c #979597",
"XX c #A6978B",
"oX c #A69AA9",
"OX c #B5B1B4",
"+X c #C1B59C",
"@X c #C9B7B0",
"#X c #CCC2A7",
"$X c #D9C7BF",
"%X c #D9DABA",
"&X c #C6C8BD",
"*X c #E0DBBE",
"=X c #AA99C5",
"-X c #B2ACD5",
";X c #C5B7C7",
":X c #BFD5C8",
">X c #C4C8C7",
",X c #D7C8C2",
"<X c #D5D6CB",
"1X c #DBCAD3",
"2X c #DAD4D5",
"3X c #C7D0D2",
"4X c #E7D9CE",
"5X c #E4D2D5",
"6X c #DDE2DA",
"7X c #D6E7D1",
"8X c #ECEDDC",
"9X c #E7E6D8",
"0X c #E9F8D6",
"qX c #F4F9DD",
"wX c #E9E6D1",
"eX c #DAD6E9",
"rX c #D5D3E7",
"tX c #E9DBF2",
"yX c #DCE6E5",
"uX c #DCE2F2",
"iX c #E7E8E9",
"pX c #F3EAE4",
"aX c #EAF7E6",
"sX c #FBFEE5",
"dX c #FEFDE9",
"fX c #F5F8E7",
"gX c #ECE5F2",
"hX c #EAECF4",
"jX c #EDE4FF",
"kX c #E6EAFC",
"lX c #E6E9FA",
"zX c #F2E4FD",
"xX c #F7EAFA",
"cX c #ECF2FA",
"vX c #EDF5F6",
"bX c #FEFCF3",
"nX c #F3F3FD",
"mX c #FCF4FE",
"MX c #F4FCFF",
"NX c #FDFCFD",
"BX c #F6F7F4",
/* pixels */
"i.g.e.j.v.c.L.c.h.j.h.b.2.L.Y.x.r.7.s.D.i.i.a.$.V.&.:.:.G.B.i.2.",
"Z.+.v.j.k.c.2.L.2.b.c.U.m./.5.n.*.-.m.;.=.K.B.p.$.&.&.%.#.i.d.d.",
"%.D.#.7.j.k.Y.4.I.5.'. .$ g h w w 9 r $ T.~.@.N.a.#.0.y.6.6.c.d.",
"C.a.6.z.1.h.P.H.}.) $ ' 4X;XeXrX5X5X1XF ; q ) ).B.u.6.8.y.t.r.v.",
"C.&.6.6.v.<.'.K $ ' #X,XnXMXcXcXnXnXMXrXA - j q ) ^.N.+.z.z.8.v.",
":.&.0.6.<.}.H W.+X<XBXxXhXkXMXvXvXiXkXMXuXA * * w ) ~.U.t.e.v.f.",
"a.#.Z.i.).H ! 5XmXzXNX9XbXaX<XaX0XsXiXrXMXR 3 m % @ ` {.A.e.v.q.",
"a.q.#.B.) _ pXmXzXjXBX0X7XqX0XI I %XfXNXyX3XR 3 x 4 s K J.I.r.v.",
"q.a.3._.q E.NXgXnXiXfXwXqX<XQ +   W iXxXyXNX/   M O . S '.L.d.j.",
"7.<.).K _ *X9XhXhXiXdX%XdX>X+ x A O ;XxXpX8X!   < B - a { H.r.k.",
"3.S.[.$ +XNXyXhXiXBX8XwXbX2X XN 1 ^ xXpXqXdX!   * p o o j !.L.k.",
"4.J.` L 1XcXMXcXiXfX8XdX9XmXzX( ' tXNXpX4X#XL o > = <   s  .P.h.",
"S.*.r $XmXuXcXcXhXiXBXfX9XBXgXgXxXpXwXwXbXE $ - * = b b ; h M.h.",
"S.-.9 5XmXjXhXiXaXvXiXhXbX9XiXNXiXfXbXpXtXT . ; * > 1 M O e H.x.",
"s.F.r +XxXNXaX0XaXvXeXcXmXiXbX7XaXyX>X>XT N 5 : > * , v 1 h `.c.",
"r.*.f ,XmXiX0X0XaXyXNXjXgXBX<X<X:X7XC O z z B # u & C c v w F.x.",
"j.J.q 1XMXkX7X0XcXjXzXjXxXOX* : = = p = 1 c 8 : * * 7 < % r >.q.",
"k.H.g oXNXvXaX0XvXjXmX=X3 C   X p & - : 6 b 5 X u & & 7 t r F.u.",
"x./.$ 1XNXkXaX0X9XBX.X6 C .   C   p o - t O m < = = N N t 0 -.a.",
"v.J.D ,XgXlXpXqXqXdXOX. . : C , M < . > % . t 8 7 7 M 7 @ D ;.i.",
"b.3.Q.G $XNXiXfXqXR.l $ 8 : , 3X-XN 5 t @ ; : + 7 7 2   9 T.n.Z.",
"e.v.{.q +XmXiXiXbXR.  : 8 Z oXMXnX-XB % e # ; o 2 b : . G ~.n.s.",
"h.Y.M.| U ,XxXtXxX.X. : < A NXhXkXMXZ   k . > 4 3 b ; a } F.+.u.",
"z.1.P.'.q XXmXjXNX/ + 8 X 8 [ aXBX[ p o - - o b c 8 . S H.N.9.q.",
"k.L.L.`.} P <XmXxXOX~ , m X * ] ] u * & > . B 3 c . r } N.9.$.D.",
"Y.4.2.P.)...L $XbXNX.X2 n 7 i   X X & 7 : : B 6 % r ` ^.9.6.p.$.",
"P.c.b.1.A./.) U W.%X2XC x x 8 C 8 m n n + . - $ f ..~.A.0.0.&.:.",
"L.r.z.z.+.s.F.) h J #X.XR , 4 4 z 1 1 5 t q u G  .).U.#.0.$.%.(.",
"l.v.,.e.y.#.g.n.).O.@ ' XX$ y @ % 6 t @ a j X.}.H.S.v.y.8.8.Z.>.",
"r.v.8.#.q.q.#.g.3.@.|...9 D r D D r f S o.!.].L.v.r.t.z.z.q.i.B.",
"D.#.a.V.&.a.#.q.g.+.5.J.^.^.=.F.K.(.(.4.P.c.c.1.x.v.r.r.v.d.3.A.",
"B.Z.C.:.:.:.p.$.8.7.d.i.3.<.s.7.f.l.l.z.h.h.h.k.x.2.I.I.i.D.U.<."
};
