/* XPM */
static char *result[] = {
/* columns rows colors chars-per-pixel */
"40 40 136 2 ",
"   c #3A3732",
".  c #3D3A35",
"X  c #3E3D39",
"o  c #433E33",
"O  c #413E39",
"+  c #534D2E",
"@  c #5B542D",
"#  c #454232",
"$  c #494435",
"%  c #44423D",
"&  c #4E493B",
"*  c #595332",
"=  c #5E5835",
"-  c #57533F",
";  c #5C5639",
":  c #5E5838",
">  c #665E2C",
",  c #625A33",
"<  c #625C3A",
"1  c #67612D",
"2  c #746D27",
"3  c #706729",
"4  c #776D2A",
"5  c #7F7626",
"6  c #7D7428",
"7  c #696234",
"8  c #6A6339",
"9  c #736C31",
"0  c #786F31",
"q  c #474541",
"w  c #494642",
"e  c #4C4A45",
"r  c #4F4C48",
"t  c #504F47",
"y  c #514E4A",
"u  c #545046",
"i  c #54524E",
"p  c #575551",
"a  c #585652",
"s  c #5B5955",
"d  c #5E5C59",
"f  c #615E4F",
"g  c #615E56",
"h  c #625F5C",
"j  c #6A6440",
"k  c #66614C",
"l  c #666356",
"z  c #64615E",
"x  c #68655F",
"c  c #6D6B5F",
"v  c #79735B",
"b  c #666562",
"n  c #696663",
"m  c #6B6966",
"M  c #6E6C69",
"N  c #706D66",
"B  c #716E6C",
"V  c #73716E",
"C  c #7C7A6C",
"Z  c #767472",
"A  c #787674",
"S  c #7A7976",
"D  c #7E7C7A",
"F  c #8D7F1F",
"G  c #837523",
"H  c #8B7D23",
"J  c #867929",
"K  c #827E56",
"L  c #807F7C",
"P  c #96891F",
"I  c #9D8D1E",
"U  c #9E911E",
"Y  c #A5961D",
"T  c #AD9C1C",
"R  c #B29F17",
"E  c #B09F1C",
"W  c #B9A616",
"Q  c #BDAA15",
"!  c #B5A31C",
"~  c #BAA719",
"^  c #B6A81B",
"/  c #BCAA1B",
"(  c #8F8125",
")  c #928423",
"_  c #978922",
"`  c #9A8C22",
"'  c #9F9123",
"]  c #928630",
"[  c #A19322",
"{  c #C2AE16",
"}  c #C1AE19",
"|  c #C6B515",
" . c #C4B21A",
".. c #CCB91B",
"X. c #89855F",
"o. c #878264",
"O. c #908A60",
"+. c #82817F",
"@. c #858482",
"#. c #888785",
"$. c #8A8986",
"%. c #8D8C8A",
"&. c #908F8D",
"*. c #92918F",
"=. c #928F90",
"-. c #949392",
";. c #9A9897",
":. c #9D9C9A",
">. c #A09F9D",
",. c #A1A09F",
"<. c #A5A4A3",
"1. c #A8A7A6",
"2. c #A9A8A6",
"3. c #ADACAB",
"4. c #B0AFAE",
"5. c #AFB0AE",
"6. c #B1B1AF",
"7. c #B4B3B3",
"8. c #B8B7B7",
"9. c #B9B8B7",
"0. c #BDBCBB",
"q. c #C0BFBF",
"w. c #C1C0BF",
"e. c #C5C5C5",
"r. c #C8C7C7",
"t. c #C7C8C7",
"y. c #C8C8C7",
"u. c #C8C7C8",
"i. c #CCCCCC",
"p. c #CFD0CF",
"a. c #D0D0CF",
"s. c #D3D3D3",
"d. c #D8D7D7",
"f. c #D8D8D7",
"g. c #DADADA",
"h. c gray89",
/* pixels */
"i.3.w ,.s.a.s.s.g.i.p.i.s.i.s.i.i.s.i.d.i.s.i.f.i.i.s.i.i.s.s.i.d.i.s.i.p.d D i.",
"r.S ;.$.1.i.i.i.d.u.i.i.i.i.i.u.u.p.i.s.i.i.r.d.i.i.i.i.t.p.i.i.d.i.i.q.Z 2.m 0.",
"i.@.s.#.r 3.s.p.d.i.i.i.p.i.p.u.u.q.3.7.3.6.3.d.i.i.i.i.i.s.i.i.d.i.e.n e w.=.0.",
"t.+.i.$.. r 2.a.d.i.p.i.p.p.i.1.M i . . . . . Z 7.i.s.i.u.s.p.i.d.w.m . r e.%.0.",
"t.b -.2.% . w ,.d.u.i.i.i.u.B . . . . . . . . O O m 3.t.r.i.i.i.s.d   . L q.V e.",
"i.3.Z i.N X X q 0.p.s.s.<.y O O . X . O . . X O . X y *.i.d.d.i.m . O w q.<.$.i.",
"i.t.D 6.1.% . . y 1.p.,.q . O   . . . X . . . O . . . X A i.e.M O . . Z r.y 7.u.",
"t.i.3.d 8.&.% . . e $.q .       . .   .   .   .     .     D M   . . m 0.S D i.e.",
"e.i.i.$.y 8.:.. O   .       O     .   .   . . O . . . .   . .   X m w.V r e.p.t.",
"i.s.g.i.S a 7.4.q . O . O O O   . O . O . . . O . . O . . O . O A r.A u e.i.g.i.",
"e.i.p.u.u.B s i.:.O .             . . . . . . . .   . . . . . z i.M y 7.i.e.p.t.",
"i.s.g.p.s.p.L L g.w O . O . O O . O . O . . . O . O . . . O . *.A i 8.s.g.i.d.i.",
"i.i.s.i.p.p.i.D z O O   O . O   . X . . . . . O . . . . . O . e e 8.p.i.s.i.s.i.",
"t.i.p.u.i.i.i.i.m   . . .   .   . . . .   . . O . . . . . . . % w.u.i.u.p.t.i.e.",
"u.i.s.i.p.i.p.p.@.  . . O . O     . . . . . . O . . . . . O . % d.i.i.i.p.u.s.u.",
"i.p.d.i.s.s.s.s.1.a V m . . . . . O O V N t . O . . O . p V b x g.p.p.i.d.i.s.i.",
"e.u.i.e.u.i.i.i.s.D i.7..   .     . O w.t.n   . . . . . D i.2.&.s.u.i.r.i.t.p.e.",
"u.p.s.i.p.s.p.p.g.B u.u.S O .   . O L s.i.1.r O . . . i 6.s.A *.g.i.i.i.s.i.s.u.",
"p.s.g.s.s.d.d.s.h.Z 1.s.s.Z y r r @.a.g.s.d.3.y r y s 7.p.7.z 9.g.s.s.s.d.i.d.i.",
"e.i.p.u.i.i.i.p.d.&.z u.i.i.i.e.t.a.y.a.t.i.u.s.t.u.i.u.u.Z D i.d.i.i.u.s.t.p.t.",
"i.p.s.i.s.p.s.s.g.e.d 2.p.p.s.i.i.s.i.+.i 0.i.g.i.p.s.i.3.d 0.i.g.i.p.i.s.u.s.u.",
";.:.,.:.:.:.:.,.<.;.A a q.p.p.i.i.s.y.b % 7.i.g.i.i.s.3.r #.:.:.1.:.>.:.<.;.<.;.",
"s ,.m p b ,.&.e e -.,.s Z %.i.u.i.s.i.e.1.p.i.g.i.u.2.u . X X   .   . . .   O   ",
"b 7.=.u.%.0.:.4.5.:.7.&.i.m A %.e.i.i.s.i.i.t.p.1.m . .   . . . O . .   O   . p ",
"X h g.s.g.d 1.g.h.;.n d.g.d.Z -.#.n D @.D L d n -.S X X X O O O O O O O O O n i.",
"L 3.&.0.%.7.;.1.3.;.3.%.e.m M q.7.%.0.;.i e.8.S e.:.% A Z S S Z L A A Z +.7.w.%.",
"i s r a n <.&.e r -.<.d a . M Z -.D 8.<.p t.:.m +.Z s ,.,.1.<.>.3.>.,.>.1.Z g b ",
"1.1.3.:.% O S 3.7.B     .   8.3.z <.d z % m S M 1.w.M .   . O r i q o O %.<.3.w.",
"i.p.e.s > [ 8 ,.:.O O . O O M 6.B s.p.1.a s.e.S :.Z y O . X e <.d.g _ H N u.d.i.",
"u.i.L * ! } E > %   .   B S :.$.D m L M w L h &.#.&.y :.X .   % h _ } ~ ] <.p.t.",
"i.s.:.$ [  . ./ * . O V i.B q.p.i.u.0.u.0.e.0.g.s.1.i p.:.% . O ' } { ! 7 <.g.i.",
"u.i.p.%.$ ` / / ~ + B 0.M y @.0.u.s.u.s.i.i.i.d.8.S d L t.&.# H  ./ ! @ h e.i.t.",
"e.i.p.e.+.+ ` }  .E O.B y 7.>.>.q.s.u.s.u.i.u.d.#.5.t.A @.l ) /  .T > u t.t.i.t.",
"i.s.d.e.v ` ) / ..} ~ @ -.p.s.>.*.t.i.g.s.s.e.5.3.s.d.0.& '  .} / > _ 8 4.i.d.i.",
"r.u.e.K ^ } ! G } / } ! , 0.i.r.0.#.%.*.%.%.@.2.t.i.0.z P Q Q ! > _ } E = ,.p.t.",
"i.e.X.6 }  . ./ 4 /  .{ ~ C i.i.i.d.w.i.w.u.u.g.i.w.c P | | / 1 ' }  .{ ` ; 4.i.",
"e.K ~ R F W W 2 z 3 W Q Y t 0.t.e.p.u.p.u.i.u.s.t.3.u E Q ^ 7 a J W { I I T < 9.",
"u.L ) { ! ) 0 +.f.#.9 I k 7.p.u.u.s.i.s.i.p.i.f.i.i.3.: U 8 ;.t.D 5 _ I  .T j 0.",
"e.8.m F W ( D y.s.w.@.r 7.u.i.e.e.i.t.p.e.i.e.s.e.u.i.>.w :.y.t.p.m > W R = >.e.",
"p.d.s.x 1 -.g.g.h.s.d.d.g.d.g.s.s.h.s.g.f.f.s.h.s.f.g.s.s.g.g.f.h.s.S 6 < 3.g.s."
};
